<svg width="168" height="24" viewBox="0 0 168 24" fill="none" xmlns="http://www.w3.org/2000/svg">
<path d="M2.98202 23.268C2.87002 23.268 2.75802 23.212 2.64602 23.1L2.35202 23.016L2.26802 23.058L2.35202 22.932C2.35202 22.848 2.29602 22.806 2.18402 22.806C2.07202 22.806 1.98802 22.806 1.93202 22.806C1.96002 22.61 1.84802 22.512 1.59602 22.512C1.37202 22.512 1.27402 22.456 1.30202 22.344L1.13402 22.302C1.10602 22.162 1.02202 22.036 0.882023 21.924C0.938023 21.868 0.952023 21.798 0.924023 21.714C0.896023 21.658 0.882023 21.616 0.882023 21.588C0.826023 21.588 0.770024 21.56 0.714023 21.504L0.672023 21.378C0.616023 21.378 0.532023 21.35 0.420023 21.294C0.420023 21.238 0.406023 21.182 0.378023 21.126C0.378023 21.07 0.378023 21.028 0.378023 21H0.336023C0.308023 20.888 0.266023 20.832 0.210023 20.832C0.182023 20.832 0.140023 20.818 0.0840235 20.79C0.0280234 20.566 0.0140234 20.398 0.0420234 20.286C0.0700235 20.174 0.0700235 20.02 0.0420234 19.824L0.0840235 19.74C0.224023 19.488 0.294023 19.362 0.294023 19.362C0.378023 19.362 0.448023 19.446 0.504023 19.614C0.560023 19.782 0.616023 19.908 0.672023 19.992C0.700023 20.02 0.742024 20.048 0.798024 20.076C0.854023 20.104 0.868023 20.132 0.840024 20.16L0.798024 20.328L0.882023 20.286C0.882023 20.398 0.910023 20.482 0.966023 20.538C0.994023 20.65 1.05002 20.832 1.13402 21.084C1.21802 21.308 1.35802 21.406 1.55402 21.378C1.55402 21.462 1.59602 21.546 1.68002 21.63C1.79202 21.714 1.89002 21.742 1.97402 21.714C2.00202 21.77 2.07202 21.812 2.18402 21.84C2.29602 21.868 2.38002 21.896 2.43602 21.924C2.57602 21.896 2.71602 21.882 2.85602 21.882C3.02402 21.91 3.17802 21.91 3.31802 21.882L4.24202 21.714C4.27002 21.686 4.41002 21.616 4.66202 21.504C4.91402 21.392 5.09602 21.28 5.20802 21.168H5.25002C5.39002 21.168 5.53002 21.14 5.67002 21.084C5.83802 21 5.97802 20.93 6.09002 20.874C6.17402 20.846 6.24402 20.804 6.30002 20.748C6.35602 20.664 6.42602 20.608 6.51002 20.58L6.88802 20.37C6.97202 20.314 7.05602 20.3 7.14002 20.328C7.25202 20.328 7.35002 20.272 7.43402 20.16C7.51802 20.104 7.58802 20.034 7.64402 19.95C7.72802 19.866 7.79802 19.796 7.85402 19.74H7.98002C8.06402 19.6 8.12002 19.488 8.14802 19.404L8.94602 19.11C9.00202 19.054 9.04402 18.998 9.07202 18.942C9.12802 18.858 9.17002 18.788 9.19802 18.732C9.25402 18.676 9.32402 18.634 9.40802 18.606C9.49202 18.55 9.53402 18.466 9.53402 18.354C9.67402 18.298 9.80002 18.228 9.91202 18.144C10.052 18.06 10.15 17.962 10.206 17.85C10.262 17.822 10.43 17.696 10.71 17.472C10.99 17.22 11.312 16.94 11.676 16.632C12.04 16.324 12.362 16.058 12.642 15.834C12.922 15.582 13.076 15.442 13.104 15.414L13.272 15.246L11.97 14.742C11.242 14.462 10.486 14.238 9.70202 14.07C8.94602 13.874 8.12002 13.734 7.22402 13.65C7.02802 13.622 6.88802 13.566 6.80402 13.482C6.74802 13.37 6.72002 13.174 6.72002 12.894C6.72002 12.53 6.86002 12.292 7.14002 12.18C7.42002 12.04 7.74202 11.97 8.10602 11.97C8.49802 11.97 8.80602 11.998 9.03002 12.054C9.28202 12.11 9.63202 12.152 10.08 12.18C10.136 12.18 10.346 12.222 10.71 12.306C11.074 12.362 11.466 12.418 11.886 12.474C11.942 12.474 12.166 12.488 12.558 12.516C12.978 12.544 13.342 12.558 13.65 12.558C14.014 12.53 14.392 12.516 14.784 12.516C15.176 12.516 15.568 12.516 15.96 12.516L16.632 11.76C16.884 11.48 17.122 11.2 17.346 10.92C17.598 10.64 17.864 10.374 18.144 10.122C18.228 10.038 18.312 9.96795 18.396 9.91195C18.508 9.85595 18.606 9.77195 18.69 9.65995L19.068 9.19795C19.124 9.14195 19.18 9.09995 19.236 9.07195C19.32 9.04395 19.376 9.01595 19.404 8.98795C19.516 8.87595 19.614 8.74995 19.698 8.60995C19.782 8.46995 19.852 8.34395 19.908 8.23195C19.964 8.23195 20.062 8.14795 20.202 7.97995C20.342 7.81195 20.426 7.69995 20.454 7.64395C20.594 7.58795 20.692 7.50395 20.748 7.39195C20.832 7.25195 20.902 7.11195 20.958 6.97195C21.042 6.91595 21.126 6.85995 21.21 6.80395C21.322 6.71995 21.406 6.63595 21.462 6.55195C21.518 6.46795 21.56 6.36995 21.588 6.25795C21.644 6.14595 21.728 6.07595 21.84 6.04795C21.924 5.82395 22.106 5.57195 22.386 5.29195C22.694 4.98395 22.862 4.77395 22.89 4.66195C23.03 4.63395 23.156 4.54995 23.268 4.40995C23.38 4.24195 23.492 4.12995 23.604 4.07395C23.716 3.76595 23.926 3.49995 24.234 3.27595C24.542 3.02395 24.71 2.75795 24.738 2.47795C24.766 2.42195 24.808 2.37995 24.864 2.35195C24.92 2.32395 24.962 2.29595 24.99 2.26795C25.074 2.21195 25.13 2.14195 25.158 2.05795C25.214 1.94595 25.284 1.84795 25.368 1.76395C25.396 1.70795 25.424 1.66595 25.452 1.63795C25.508 1.60995 25.55 1.58195 25.578 1.55395C25.55 1.55395 25.452 1.52595 25.284 1.46995C25.228 1.46995 25.116 1.46995 24.948 1.46995C24.78 1.44195 24.598 1.42795 24.402 1.42795C23.758 1.42795 23.324 1.45595 23.1 1.51195C22.568 1.53995 22.106 1.58195 21.714 1.63795C21.35 1.69395 20.916 1.79195 20.412 1.93195C20.412 1.93195 20.398 1.91795 20.37 1.88995C20.342 1.86195 20.314 1.84795 20.286 1.84795L20.244 1.80595C20.16 1.77795 20.146 1.79195 20.202 1.84795C20.258 1.90395 20.244 1.94595 20.16 1.97395C19.992 2.00195 19.796 2.04395 19.572 2.09995C19.376 2.15595 19.194 2.18395 19.026 2.18395C18.942 2.21195 18.858 2.22595 18.774 2.22595C18.69 2.19795 18.606 2.18395 18.522 2.18395C18.242 2.21195 17.962 2.30995 17.682 2.47795C17.43 2.61795 17.164 2.71595 16.884 2.77195L16.38 2.89795C16.184 2.95395 16.03 3.00995 15.918 3.06595C15.834 3.09395 15.68 3.13595 15.456 3.19195L15.078 3.31795C14.994 3.34595 14.896 3.37395 14.784 3.40195C14.7 3.42995 14.602 3.45795 14.49 3.48595C14.266 3.56995 14.028 3.66795 13.776 3.77995C13.552 3.89195 13.328 3.97595 13.104 4.03195L12.348 4.24195C12.264 4.26995 12.138 4.28395 11.97 4.28395C11.746 4.28395 11.592 4.25595 11.508 4.19995C11.396 4.14395 11.256 3.98995 11.088 3.73795C10.948 3.45795 10.892 3.26195 10.92 3.14995C11.088 2.89795 11.424 2.70195 11.928 2.56195C12.46 2.39395 12.796 2.29595 12.936 2.26795C12.964 2.23995 13.09 2.19795 13.314 2.14195C13.566 2.05795 13.804 1.98795 14.028 1.93195C14.252 1.87595 14.364 1.87595 14.364 1.93195C14.392 1.95995 14.238 2.07195 13.902 2.26795C13.566 2.43595 13.384 2.53395 13.356 2.56195C13.356 2.58995 13.328 2.63195 13.272 2.68795C13.244 2.74395 13.244 2.75795 13.272 2.72995L14.238 2.47795C14.294 2.44995 14.406 2.43595 14.574 2.43595H14.868C15.064 2.43595 15.19 2.40795 15.246 2.35195C15.302 2.23995 15.358 2.18395 15.414 2.18395C15.554 2.12795 15.764 2.08595 16.044 2.05795C16.352 2.00195 16.548 1.94595 16.632 1.88995C16.772 1.86195 16.926 1.84795 17.094 1.84795C17.262 1.81995 17.416 1.77795 17.556 1.72195C17.64 1.69395 17.92 1.63795 18.396 1.55395C18.9 1.46995 19.404 1.38595 19.908 1.30195C20.412 1.21795 20.692 1.17595 20.748 1.17595H20.79C20.93 1.17595 21.07 1.16195 21.21 1.13395C21.35 1.07795 21.434 1.13395 21.462 1.30195C21.49 1.30195 21.504 1.31595 21.504 1.34395C21.504 1.34395 21.518 1.34395 21.546 1.34395C21.714 1.34395 21.868 1.27395 22.008 1.13395C22.064 1.10595 22.204 1.07795 22.428 1.04995C22.652 1.02195 22.792 1.00795 22.848 1.00795C23.072 0.979953 23.254 0.965953 23.394 0.965953C23.534 0.965953 23.66 0.965953 23.772 0.965953C23.996 0.965953 24.192 0.979953 24.36 1.00795C24.556 1.00795 24.794 1.02195 25.074 1.04995C25.186 1.07795 25.326 1.09195 25.494 1.09195C25.69 1.09195 25.858 1.10595 25.998 1.13395L26.166 0.923952C26.362 0.811952 26.53 0.755952 26.67 0.755952C26.782 0.755952 26.838 0.811952 26.838 0.923952C26.838 1.23195 26.684 1.51195 26.376 1.76395C26.348 1.79195 26.278 1.83395 26.166 1.88995C26.054 1.91795 25.984 1.95995 25.956 2.01595C25.816 2.37995 25.536 2.71595 25.116 3.02395C24.724 3.33195 24.514 3.55595 24.486 3.69595C24.374 3.75195 24.248 3.83595 24.108 3.94795C23.968 4.05995 23.884 4.17195 23.856 4.28395C23.716 4.45195 23.604 4.63395 23.52 4.82995C23.436 4.99795 23.31 5.16595 23.142 5.33395C23.058 5.41795 22.918 5.58595 22.722 5.83795C22.526 6.08995 22.33 6.34195 22.134 6.59395C21.938 6.81795 21.798 6.92995 21.714 6.92995C21.63 7.01395 21.588 7.06995 21.588 7.09795C21.616 7.12595 21.56 7.18195 21.42 7.26595C21.28 7.40595 21.168 7.55995 21.084 7.72795C20.916 7.75595 20.776 7.86795 20.664 8.06395C20.58 8.23195 20.496 8.38595 20.412 8.52595C20.3 8.66595 20.174 8.79195 20.034 8.90395C19.922 9.01595 19.81 9.14195 19.698 9.28195C19.586 9.30995 19.46 9.43595 19.32 9.65995C19.208 9.85595 19.124 9.99595 19.068 10.08C18.9 10.276 18.746 10.43 18.606 10.542C18.494 10.654 18.438 10.85 18.438 11.13C18.382 11.186 18.298 11.27 18.186 11.382C18.074 11.494 18.004 11.592 17.976 11.676C17.92 11.788 17.836 11.886 17.724 11.97C17.64 12.054 17.57 12.152 17.514 12.264L17.388 12.348L17.346 12.432C17.682 12.432 18.018 12.432 18.354 12.432C18.69 12.432 19.012 12.418 19.32 12.39L20.706 12.306C20.762 12.306 20.846 12.348 20.958 12.432C21.098 12.488 21.182 12.502 21.21 12.474C21.294 12.474 21.322 12.432 21.294 12.348C21.266 12.236 21.308 12.18 21.42 12.18C21.672 12.152 21.98 12.124 22.344 12.096C22.736 12.04 23.114 11.97 23.478 11.886L23.856 10.71L24.234 9.49195C24.29 9.29595 24.374 9.16995 24.486 9.11395C24.598 9.05795 24.668 8.97395 24.696 8.86195C24.724 8.80595 24.696 8.76395 24.612 8.73595C24.528 8.67995 24.528 8.59595 24.612 8.48395C24.864 7.69995 25.186 6.91595 25.578 6.13195C25.97 5.34795 26.306 4.63395 26.586 3.98995V3.94795C26.67 3.83595 26.74 3.75195 26.796 3.69595C26.88 3.63995 26.936 3.56995 26.964 3.48595C26.936 3.45795 26.936 3.42995 26.964 3.40195C26.992 3.37395 26.978 3.34595 26.922 3.31795C27.118 3.12195 27.23 2.86995 27.258 2.56195L27.678 1.67995L28.308 0.671953C28.336 0.587952 28.406 0.489952 28.518 0.377953C28.742 0.125952 28.938 -4.86374e-05 29.106 -4.86374e-05C29.358 -4.86374e-05 29.372 0.153951 29.148 0.461952L29.064 0.671953L28.77 1.04995L28.602 1.51195C28.322 2.01595 28.056 2.56195 27.804 3.14995C27.552 3.73795 27.272 4.35395 26.964 4.99795V5.16595C26.964 5.30595 26.922 5.40395 26.838 5.45995C26.782 5.51595 26.67 5.57195 26.502 5.62795C26.586 5.79595 26.6 5.97795 26.544 6.17395L26.25 7.01395C26.138 7.29395 25.984 7.62995 25.788 8.02195C25.592 8.41395 25.48 8.72195 25.452 8.94595C25.172 9.84195 24.962 10.696 24.822 11.508C24.906 11.48 24.99 11.452 25.074 11.424C25.158 11.396 25.228 11.368 25.284 11.34C25.424 11.284 25.522 11.256 25.578 11.256C25.662 11.256 25.774 11.242 25.914 11.214C26.082 11.158 26.25 11.088 26.418 11.004C26.502 10.948 26.614 10.92 26.754 10.92C26.894 10.92 26.964 10.962 26.964 11.046C26.964 11.158 26.838 11.284 26.586 11.424L25.704 11.928C25.48 11.984 25.298 12.012 25.158 12.012C25.102 12.012 24.962 12.04 24.738 12.096L24.57 13.062L24.612 13.692C24.584 13.776 24.458 13.818 24.234 13.818C24.038 13.818 24.01 13.944 24.15 14.196C24.262 14.336 24.332 14.434 24.36 14.49C24.388 14.518 24.374 14.644 24.318 14.868C24.206 15.204 24.108 15.652 24.024 16.212C23.968 16.772 23.926 17.234 23.898 17.598C23.898 17.626 23.87 17.696 23.814 17.808C23.786 17.92 23.758 18.004 23.73 18.06C23.73 18.088 23.744 18.102 23.772 18.102C23.828 18.102 23.856 18.13 23.856 18.186C23.912 18.774 23.912 19.32 23.856 19.824L23.772 20.79C23.772 20.818 23.744 20.874 23.688 20.958C23.632 21.042 23.618 21.112 23.646 21.168C23.562 21.476 23.408 21.686 23.184 21.798C22.96 21.938 22.736 22.008 22.512 22.008C22.092 22.008 21.812 21.938 21.672 21.798L21.462 21.63V20.706C21.294 20.566 21.126 20.426 20.958 20.286C20.79 20.146 20.622 20.02 20.454 19.908C20.146 19.684 19.838 19.488 19.53 19.32C19.25 19.124 18.956 18.914 18.648 18.69C18.312 18.438 17.976 18.172 17.64 17.892C17.332 17.612 16.996 17.346 16.632 17.094C16.24 16.814 15.834 16.562 15.414 16.338C14.994 16.086 14.574 15.862 14.154 15.666C14.042 15.778 13.832 15.988 13.524 16.296C13.216 16.576 12.922 16.856 12.642 17.136C12.362 17.388 12.194 17.528 12.138 17.556C12.11 17.612 12.068 17.668 12.012 17.724C11.984 17.78 11.942 17.836 11.886 17.892C11.83 17.92 11.746 17.962 11.634 18.018C11.55 18.074 11.508 18.13 11.508 18.186C11.452 18.242 11.368 18.298 11.256 18.354C11.172 18.382 11.116 18.452 11.088 18.564L11.13 18.606C11.018 18.634 10.962 18.662 10.962 18.69C10.99 18.718 11.004 18.774 11.004 18.858C10.976 18.886 10.878 18.942 10.71 19.026C10.57 19.11 10.472 19.166 10.416 19.194C10.164 19.334 9.98202 19.446 9.87002 19.53C9.78602 19.614 9.67402 19.782 9.53402 20.034C9.45002 20.09 9.26802 20.202 8.98802 20.37C8.70802 20.538 8.56802 20.65 8.56802 20.706C8.45602 20.734 8.38602 20.79 8.35802 20.874C8.33002 20.958 8.28802 21.028 8.23202 21.084C8.20402 21.14 8.14802 21.182 8.06402 21.21C7.98002 21.238 7.92402 21.294 7.89602 21.378L7.81202 21.42H7.77002C7.68602 21.42 7.60202 21.462 7.51802 21.546C7.46202 21.63 7.40602 21.7 7.35002 21.756C7.04202 21.784 6.80402 21.868 6.63602 22.008C6.49602 22.176 6.30002 22.316 6.04802 22.428C5.71202 22.568 5.36202 22.708 4.99802 22.848C4.63402 22.988 4.25602 23.086 3.86402 23.142C3.75202 23.198 3.66802 23.24 3.61202 23.268C3.58402 23.324 3.50002 23.324 3.36002 23.268C3.41602 23.184 3.40202 23.142 3.31802 23.142C3.20602 23.226 3.09402 23.268 2.98202 23.268ZM21.546 20.16V20.034C21.546 19.95 21.588 19.866 21.672 19.782C21.644 19.726 21.616 19.698 21.588 19.698C21.588 19.67 21.588 19.642 21.588 19.614L22.47 15.456C22.582 14.952 22.708 14.448 22.848 13.944C23.016 13.412 23.184 12.88 23.352 12.348C23.296 12.376 23.24 12.39 23.184 12.39C23.044 12.418 22.932 12.432 22.848 12.432C22.764 12.432 22.624 12.46 22.428 12.516C22.148 12.572 21.826 12.656 21.462 12.768C21.126 12.88 20.762 12.95 20.37 12.978C20.09 13.006 19.866 13.006 19.698 12.978C19.558 12.95 19.348 12.95 19.068 12.978C18.928 13.006 18.704 13.048 18.396 13.104C18.088 13.132 17.85 13.146 17.682 13.146L16.38 13.314C16.38 13.314 16.366 13.328 16.338 13.356C16.338 13.384 16.338 13.412 16.338 13.44C16.282 13.496 16.17 13.594 16.002 13.734C15.862 13.846 15.778 13.958 15.75 14.07L15.624 14.112C15.596 14.14 15.54 14.21 15.456 14.322C15.4 14.406 15.358 14.476 15.33 14.532C15.218 14.56 15.12 14.63 15.036 14.742C14.952 14.854 14.882 14.966 14.826 15.078C14.714 15.078 14.63 15.106 14.574 15.162C15.246 15.526 15.848 15.89 16.38 16.254C16.492 16.338 16.576 16.422 16.632 16.506C16.688 16.59 16.772 16.674 16.884 16.758C17.136 16.926 17.374 17.066 17.598 17.178C17.85 17.262 18.074 17.388 18.27 17.556L20.832 19.488C20.916 19.544 21.028 19.642 21.168 19.782C21.308 19.894 21.434 20.02 21.546 20.16ZM13.776 14.742C14 14.518 14.224 14.294 14.448 14.07C14.672 13.846 14.896 13.622 15.12 13.398L11.718 13.608C11.326 13.636 11.046 13.65 10.878 13.65C10.738 13.65 10.528 13.678 10.248 13.734C10.612 13.818 10.962 13.916 11.298 14.028C11.634 14.112 11.97 14.21 12.306 14.322C12.446 14.378 12.572 14.434 12.684 14.49C12.796 14.546 12.908 14.602 13.02 14.658C13.076 14.686 13.132 14.672 13.188 14.616C13.244 14.532 13.286 14.504 13.314 14.532L13.776 14.742ZM28.9554 21.168C28.6754 21.168 28.3814 21.112 28.0734 21C27.7654 20.86 27.6534 20.706 27.7374 20.538C27.8494 20.314 27.9754 20.09 28.1154 19.866C28.2834 19.614 28.4374 19.348 28.5774 19.068L29.0394 18.186C29.0954 18.046 29.1514 17.948 29.2074 17.892C29.2914 17.808 29.3614 17.71 29.4174 17.598C29.4454 17.57 29.4594 17.5 29.4594 17.388C29.4594 17.248 29.5154 17.094 29.6274 16.926C29.7674 16.73 29.8654 16.548 29.9214 16.38C29.9494 16.352 29.9774 16.436 30.0054 16.632C30.0334 16.828 30.1034 16.814 30.2154 16.59C30.2434 16.562 30.2294 16.52 30.1734 16.464C30.1454 16.408 30.1314 16.352 30.1314 16.296C30.1314 16.24 30.1454 16.212 30.1734 16.212C30.2294 16.184 30.2574 16.156 30.2574 16.128C30.2854 16.044 30.2574 16.016 30.1734 16.044C30.1174 16.044 30.0894 16.03 30.0894 16.002C30.1454 15.918 30.2014 15.862 30.2574 15.834C30.3414 15.806 30.3974 15.764 30.4254 15.708C30.4254 15.652 30.3974 15.624 30.3414 15.624C30.3134 15.596 30.3134 15.568 30.3414 15.54C30.4814 15.148 30.6354 14.686 30.8034 14.154C30.9714 13.622 31.0974 13.132 31.1814 12.684C31.1814 12.684 31.1534 12.67 31.0974 12.642C31.0414 12.586 31.0134 12.53 31.0134 12.474L30.7194 12.264C30.3834 12.572 30.0194 12.838 29.6274 13.062C29.5994 13.09 29.5434 13.104 29.4594 13.104C29.3474 13.104 29.2774 13.048 29.2494 12.936C29.2214 12.824 29.2634 12.726 29.3754 12.642C29.5154 12.558 29.6274 12.502 29.7114 12.474C29.7954 12.418 29.8934 12.334 30.0054 12.222C30.0614 12.166 30.0894 12.11 30.0894 12.054C30.1174 11.998 30.1454 11.942 30.1734 11.886L30.3414 11.676C30.3414 11.536 30.3694 11.424 30.4254 11.34C30.4814 11.284 30.5234 11.256 30.5514 11.256C30.5794 11.256 30.5934 11.256 30.5934 11.256V11.172C30.5934 11.06 30.6354 10.99 30.7194 10.962C30.8314 10.934 30.8874 10.892 30.8874 10.836C30.9434 10.444 31.2794 10.15 31.8954 9.95395C32.5114 9.75795 33.0574 9.65995 33.5334 9.65995C34.0094 9.65995 34.2474 9.72995 34.2474 9.86995C34.2474 9.95395 34.1634 10.052 33.9954 10.164C33.9114 10.22 33.7714 10.346 33.5754 10.542C33.3794 10.738 33.1974 10.976 33.0294 11.256L32.7354 11.76L32.4414 12.138C32.2454 12.586 31.9654 13.272 31.6014 14.196C31.2374 15.12 30.8594 16.282 30.4674 17.682C30.5514 17.57 30.7474 17.332 31.0554 16.968C31.3634 16.604 31.7274 16.184 32.1474 15.708C32.5674 15.232 32.9734 14.784 33.3654 14.364C33.7574 13.916 34.0794 13.566 34.3314 13.314L34.5414 13.188C34.5974 13.132 34.6534 13.062 34.7094 12.978C34.7934 12.866 34.8634 12.782 34.9194 12.726C34.9474 12.698 34.9614 12.754 34.9614 12.894C34.9894 13.006 35.0174 13.048 35.0454 13.02C35.1574 12.936 35.2134 12.81 35.2134 12.642C35.2414 12.474 35.3114 12.362 35.4234 12.306C35.7314 12.054 36.1514 11.704 36.6834 11.256C37.2434 10.78 37.8174 10.5 38.4054 10.416C38.4614 10.36 38.5454 10.346 38.6574 10.374C38.7974 10.374 38.8954 10.36 38.9514 10.332C39.0074 10.332 39.0494 10.318 39.0774 10.29C39.1054 10.262 39.1754 10.248 39.2874 10.248C39.3434 10.248 39.4554 10.29 39.6234 10.374C39.8194 10.458 39.9314 10.57 39.9594 10.71C40.1274 10.822 40.2114 10.99 40.2114 11.214C40.2114 11.606 40.0014 11.9 39.5814 12.096C39.4414 12.236 39.2874 12.376 39.1194 12.516C38.9514 12.628 38.7834 12.754 38.6154 12.894C38.5594 12.95 38.5174 12.978 38.4894 12.978C38.2934 13.146 38.1254 13.328 37.9854 13.524C37.8454 13.72 37.7754 13.972 37.7754 14.28C37.7754 14.308 37.8034 14.35 37.8594 14.406C37.9154 14.434 37.9294 14.462 37.9014 14.49C37.9854 14.574 38.1114 14.63 38.2794 14.658C38.4474 14.658 38.6154 14.658 38.7834 14.658C39.0634 14.658 39.4834 14.546 40.0434 14.322H40.1274C40.1554 14.322 40.1694 14.336 40.1694 14.364C40.1694 14.42 40.1134 14.518 40.0014 14.658C39.8894 14.77 39.7634 14.854 39.6234 14.91C39.3154 15.022 38.9934 15.092 38.6574 15.12C38.3214 15.12 38.0834 15.12 37.9434 15.12C37.4394 15.12 37.1174 15.022 36.9774 14.826C36.8654 14.63 36.7534 14.392 36.6414 14.112V13.902L36.8514 13.692C36.8234 13.608 36.7814 13.524 36.7254 13.44C36.6694 13.356 36.6414 13.258 36.6414 13.146C36.6414 12.866 36.7534 12.544 36.9774 12.18C36.6694 12.264 36.2774 12.502 35.8014 12.894C35.3534 13.258 34.8914 13.692 34.4154 14.196C33.9394 14.672 33.5054 15.148 33.1134 15.624C32.7214 16.072 32.4134 16.436 32.1894 16.716C32.1054 16.828 32.0074 16.898 31.8954 16.926C31.8114 16.926 31.7414 16.968 31.6854 17.052C31.6574 17.08 31.6854 17.094 31.7694 17.094C31.8814 17.094 31.9234 17.108 31.8954 17.136C31.5314 17.696 31.1394 18.312 30.7194 18.984C30.3274 19.656 29.9354 20.314 29.5434 20.958C29.4594 21.098 29.2634 21.168 28.9554 21.168ZM41.3411 21.378C41.1731 21.378 41.0891 21.28 41.0891 21.084C41.0891 20.944 41.1311 20.776 41.2151 20.58C41.4391 20.104 41.6911 19.432 41.9711 18.564C42.2791 17.696 42.6571 16.954 43.1051 16.338L45.2051 12.012C45.0371 12.012 44.8691 12.054 44.7011 12.138C44.5611 12.222 44.4911 12.292 44.4911 12.348C44.4911 12.46 44.3371 12.572 44.0291 12.684C43.7211 12.796 43.5531 12.866 43.5251 12.894C43.1051 13.006 42.7131 13.132 42.3491 13.272C42.0691 13.58 41.7891 13.888 41.5091 14.196C41.2571 14.504 41.0191 14.812 40.7951 15.12C40.7671 15.148 40.7391 15.162 40.7111 15.162C40.4591 15.442 40.2491 15.652 40.0811 15.792C39.9131 15.932 39.7311 16.058 39.5351 16.17C39.4231 16.254 39.3111 16.282 39.1991 16.254C39.0591 16.198 39.0451 16.142 39.1571 16.086C39.2971 16.03 39.5211 15.834 39.8291 15.498C40.1371 15.162 40.3751 14.91 40.5431 14.742C40.6831 14.658 40.7251 14.658 40.6691 14.742C40.6411 14.826 40.6831 14.812 40.7951 14.7L41.8451 13.356L41.8871 13.314C41.7471 13.23 41.6771 13.006 41.6771 12.642C41.6771 12.362 41.7331 12.138 41.8451 11.97C41.8451 11.942 41.8731 11.928 41.9291 11.928L42.8111 11.676C42.8951 11.676 42.9511 11.662 42.9791 11.634C43.0351 11.578 43.0911 11.508 43.1471 11.424C43.2311 11.312 43.3291 11.172 43.4411 11.004L43.9451 10.332L44.2811 9.86995C44.2811 9.78595 44.3371 9.68795 44.4491 9.57595C44.5891 9.43595 44.7011 9.33795 44.7851 9.28195C44.8971 9.11395 44.9671 8.98795 44.9951 8.90395C45.0511 8.79195 45.1351 8.65195 45.2471 8.48395C45.2471 8.45595 45.2891 8.44195 45.3731 8.44195C45.4571 8.41395 45.4991 8.38595 45.4991 8.35795C45.5271 8.07795 45.5691 7.95195 45.6251 7.97995C45.7091 7.97995 45.7511 7.93795 45.7511 7.85395C45.7511 7.76995 45.8071 7.69995 45.9191 7.64395L46.1291 7.39195C46.1291 7.36395 46.1711 7.30795 46.2551 7.22395V7.18195C46.2551 7.12595 46.2551 7.05595 46.2551 6.97195C46.2551 6.88795 46.2831 6.80395 46.3391 6.71995C46.3951 6.66395 46.4371 6.63595 46.4651 6.63595C46.4931 6.63595 46.5071 6.63595 46.5071 6.63595C46.5071 6.60795 46.4931 6.59395 46.4651 6.59395C46.4651 6.56595 46.4651 6.55195 46.4651 6.55195C46.4651 6.43995 46.5211 6.36995 46.6331 6.34195C46.7451 6.31395 46.8011 6.27195 46.8011 6.21595C46.8571 5.82395 47.1931 5.52995 47.8091 5.33395C48.4251 5.13795 48.9711 5.03995 49.4471 5.03995C49.9231 5.03995 50.1611 5.10995 50.1611 5.24995C50.1611 5.30595 50.0771 5.40395 49.9091 5.54395C49.8251 5.57195 49.6851 5.69795 49.4891 5.92195C49.2931 6.11795 49.1111 6.35595 48.9431 6.63595L48.6071 7.13995C48.5791 7.19595 48.5371 7.26595 48.4811 7.34995C48.4531 7.40595 48.4111 7.46195 48.3551 7.51795C48.1591 7.85395 47.8931 8.32995 47.5571 8.94595C47.2491 9.53395 46.9131 10.192 46.5491 10.92L47.6411 10.794C47.7251 10.794 47.7531 10.808 47.7251 10.836C47.7251 10.864 47.7671 10.864 47.8511 10.836C47.9911 10.836 48.0891 10.822 48.1451 10.794C48.2011 10.738 48.2991 10.696 48.4391 10.668C48.6631 10.64 48.9151 10.626 49.1951 10.626C49.5031 10.598 49.7411 10.584 49.9091 10.584C50.0211 10.584 50.1611 10.584 50.3291 10.584C50.4971 10.584 50.6231 10.598 50.7071 10.626C50.7631 10.626 50.7771 10.654 50.7491 10.71C50.7491 10.738 50.7631 10.752 50.7911 10.752C50.8471 10.752 50.8891 10.738 50.9171 10.71C50.9731 10.682 51.0291 10.668 51.0851 10.668C51.1131 10.64 51.1551 10.64 51.2111 10.668C51.2951 10.668 51.3511 10.668 51.3791 10.668L51.7991 10.794C51.9671 10.822 52.0511 10.92 52.0511 11.088C52.0791 11.256 52.0091 11.312 51.8411 11.256C51.7291 11.2 51.6311 11.172 51.5471 11.172H50.4971C50.3011 11.172 50.1191 11.172 49.9511 11.172C49.7831 11.172 49.6151 11.186 49.4471 11.214C49.3911 11.242 49.3631 11.214 49.3631 11.13C49.3911 11.046 49.3771 11.004 49.3211 11.004C49.2931 11.004 49.2511 11.046 49.1951 11.13C49.1391 11.186 49.0971 11.214 49.0691 11.214L48.8591 11.34C48.4111 11.452 47.9351 11.578 47.4311 11.718C46.9271 11.83 46.4371 11.956 45.9611 12.096C45.5411 12.964 45.1351 13.79 44.7431 14.574C44.3791 15.33 44.0991 15.918 43.9031 16.338C43.8471 16.506 43.8191 16.604 43.8191 16.632C43.8191 16.856 43.9451 16.968 44.1971 16.968C44.3651 16.968 44.5331 16.926 44.7011 16.842L45.1211 16.674C45.7931 16.058 46.4931 15.54 47.2211 15.12C47.2491 15.12 47.2631 15.12 47.2631 15.12C47.2911 15.092 47.3191 15.078 47.3471 15.078C47.4311 15.078 47.4871 15.134 47.5151 15.246C47.5431 15.33 47.5151 15.4 47.4311 15.456C46.6191 15.904 45.8631 16.478 45.1631 17.178C45.1351 17.234 45.1071 17.29 45.0791 17.346C45.0511 17.402 45.0091 17.458 44.9531 17.514C44.8971 17.57 44.8131 17.668 44.7011 17.808C44.6171 17.948 44.5751 18.032 44.5751 18.06C44.5471 18.144 44.5051 18.172 44.4491 18.144C44.4211 18.116 44.3371 18.158 44.1971 18.27C44.1691 18.298 44.1411 18.354 44.1131 18.438C44.1131 18.522 44.0991 18.592 44.0711 18.648C44.0151 18.732 43.9591 18.802 43.9031 18.858C43.8471 18.886 43.8191 18.914 43.8191 18.942C43.7911 19.054 43.7351 19.124 43.6511 19.152C43.5951 19.152 43.5391 19.18 43.4831 19.236C43.4551 19.236 43.4411 19.25 43.4411 19.278C43.4411 19.53 43.4131 19.642 43.3571 19.614C43.3011 19.586 43.2591 19.614 43.2311 19.698C43.1191 19.81 43.0351 19.866 42.9791 19.866C42.8111 19.922 42.7411 19.964 42.7691 19.992C42.8251 20.02 42.8671 20.048 42.8951 20.076C42.9511 20.076 42.9091 20.118 42.7691 20.202C42.7131 20.23 42.6571 20.314 42.6011 20.454C42.5451 20.566 42.4891 20.65 42.4331 20.706C42.3491 20.762 42.2651 20.804 42.1811 20.832C42.0971 20.86 42.0271 20.916 41.9711 21C41.7191 21.252 41.5091 21.378 41.3411 21.378ZM43.7351 11.508C43.8471 11.48 43.9451 11.452 44.0291 11.424C44.1411 11.396 44.2531 11.354 44.3651 11.298L45.6251 11.088C45.9611 10.416 46.2551 9.81395 46.5071 9.28195C46.7591 8.72195 46.9411 8.31595 47.0531 8.06395C47.0531 8.06395 47.0251 8.04995 46.9691 8.02195C46.9411 7.96595 46.9271 7.90995 46.9271 7.85395C46.8711 7.82595 46.8011 7.78395 46.7171 7.72795C46.6611 7.67195 46.6051 7.62995 46.5491 7.60195L46.1711 7.97995L45.7091 8.60995C45.7091 8.63795 45.6671 8.66595 45.5831 8.69395C45.5271 8.69395 45.4991 8.70795 45.4991 8.73595C45.4991 8.81995 45.4571 8.90395 45.3731 8.98795C45.3171 9.07195 45.2611 9.09995 45.2051 9.07195L45.0371 9.49195C45.0371 9.57595 44.9951 9.64595 44.9111 9.70195L44.6171 10.08C44.6171 10.108 44.6031 10.136 44.5751 10.164C44.5751 10.164 44.5751 10.192 44.5751 10.248C44.5471 10.304 44.5051 10.374 44.4491 10.458C44.3931 10.542 44.3231 10.626 44.2391 10.71C44.2111 10.71 44.1971 10.724 44.1971 10.752C44.1971 10.752 44.1831 10.752 44.1551 10.752L44.0291 11.004C43.9171 11.06 43.8471 11.088 43.8191 11.088L43.7771 11.172C43.7771 11.34 43.7631 11.452 43.7351 11.508ZM64.9524 22.806C64.7844 22.75 64.6024 22.708 64.4064 22.68C64.2384 22.652 64.0564 22.61 63.8604 22.554L64.0704 22.68C63.9584 22.68 63.8464 22.652 63.7344 22.596C63.6504 22.568 63.5664 22.568 63.4824 22.596L62.6844 22.386L62.6424 22.344C62.5304 22.232 62.4184 22.134 62.3064 22.05C62.1944 21.966 62.0404 21.952 61.8444 22.008C61.9004 22.036 61.9564 22.05 62.0124 22.05C62.0684 22.05 62.1104 22.078 62.1384 22.134H62.0544C61.9424 22.134 61.8584 22.106 61.8024 22.05C61.7464 21.994 61.6764 21.938 61.5924 21.882C61.1724 21.63 60.7944 21.336 60.4584 21V20.958C60.3464 20.818 60.2624 20.678 60.2064 20.538C60.1504 20.37 60.0524 20.244 59.9124 20.16H59.8704C59.7864 19.992 59.7024 19.81 59.6184 19.614C59.5624 19.39 59.5064 19.18 59.4504 18.984C59.4504 18.9 59.4364 18.83 59.4084 18.774C59.4084 18.69 59.4084 18.606 59.4084 18.522C59.4084 18.41 59.4084 18.312 59.4084 18.228C59.4364 18.116 59.4644 18.004 59.4924 17.892C59.3524 17.948 59.2824 17.906 59.2824 17.766C59.2544 17.458 59.2404 17.15 59.2404 16.842C59.2684 16.534 59.3104 16.198 59.3664 15.834L59.4924 15.204C59.5484 15.064 59.6324 14.966 59.7444 14.91C59.8564 14.854 59.8984 14.756 59.8704 14.616C59.8424 14.616 59.8144 14.63 59.7864 14.658C59.7584 14.686 59.7164 14.7 59.6604 14.7C59.6604 14.7 59.6464 14.7 59.6184 14.7C59.6184 14.672 59.6184 14.644 59.6184 14.616H59.6604V14.574C59.6324 14.546 59.6324 14.532 59.6604 14.532C59.6884 14.532 59.6884 14.518 59.6604 14.49V14.448C59.6604 14.308 59.7024 14.168 59.7864 14.028C59.8704 13.86 59.9404 13.692 59.9964 13.524C60.0524 13.384 60.1364 13.258 60.2484 13.146C60.3884 13.034 60.4304 12.894 60.3744 12.726H60.2484C60.3324 12.67 60.3744 12.614 60.3744 12.558L60.4164 12.516L60.8364 11.634H60.8784C61.1024 11.634 61.2004 11.578 61.1724 11.466C61.1724 11.354 61.1724 11.228 61.1724 11.088V11.046L61.5084 10.5C61.6764 10.416 61.7884 10.29 61.8444 10.122C61.9004 9.92595 61.9844 9.77195 62.0964 9.65995C62.1524 9.51995 62.2364 9.40795 62.3484 9.32395C62.4604 9.21195 62.5584 9.08595 62.6424 8.94595C62.8104 8.72195 62.9784 8.51195 63.1464 8.31595C63.3144 8.09195 63.4964 7.88195 63.6924 7.68595C63.8324 7.62995 63.9304 7.55995 63.9864 7.47595C64.0424 7.39195 64.1124 7.29395 64.1964 7.18195C64.1964 7.15395 64.1964 7.13995 64.1964 7.13995C64.2244 7.13995 64.2384 7.12595 64.2384 7.09795C64.3224 6.98595 64.4344 6.91595 64.5744 6.88795C64.7144 6.85995 64.8124 6.77595 64.8684 6.63595C64.9244 6.49595 65.0084 6.36995 65.1204 6.25795C65.3444 6.03395 65.5824 5.82395 65.8344 5.62795C66.0864 5.40395 66.3384 5.19395 66.5904 4.99795C66.7584 4.96995 66.8844 4.94195 66.9684 4.91395C67.0524 4.85795 67.0944 4.74595 67.0944 4.57795H67.1364C67.4444 4.35395 67.7524 4.14395 68.0604 3.94795C68.3684 3.75195 68.6624 3.56995 68.9424 3.40195C69.1664 3.26195 69.3764 3.13595 69.5724 3.02395C69.7964 2.91195 70.0064 2.79995 70.2024 2.68795H70.3284C70.4404 2.68795 70.5244 2.65995 70.5804 2.60395C70.6364 2.54795 70.7064 2.47795 70.7904 2.39395H70.8324C72.9044 1.46995 74.8224 1.00795 76.5864 1.00795C76.8104 1.00795 77.0484 1.02195 77.3004 1.04995C77.5524 1.04995 77.7904 1.06395 78.0144 1.09195C79.3304 1.25995 80.3244 1.69395 80.9964 2.39395C81.6684 3.06595 82.0044 3.80795 82.0044 4.61995C82.0044 4.89995 81.9624 5.19395 81.8784 5.50195C82.1584 5.30595 82.4104 5.10995 82.6344 4.91395C82.8584 4.71795 83.0404 4.49395 83.1804 4.24195C83.2364 4.15795 83.3064 4.12995 83.3904 4.15795C83.4744 4.15795 83.4884 4.19995 83.4324 4.28395C83.3484 4.53595 83.1664 4.81595 82.8864 5.12395C82.6064 5.40395 82.2984 5.65595 81.9624 5.87995C81.9624 5.90795 81.8924 6.00595 81.7524 6.17395C81.6124 6.31395 81.5564 6.41195 81.5844 6.46795C81.5844 6.49595 81.5424 6.55195 81.4584 6.63595C81.4024 6.69195 81.3604 6.74795 81.3324 6.80395L81.0384 7.18195C81.0384 7.18195 81.0384 7.19595 81.0384 7.22395C81.0384 7.22395 81.0244 7.23795 80.9964 7.26595C80.9964 7.26595 80.9404 7.29395 80.8284 7.34995C80.7724 7.40595 80.6884 7.50395 80.5764 7.64395C80.4924 7.78395 80.3804 7.88195 80.2404 7.93795L80.0724 8.02195C80.0444 8.04995 80.0164 8.09195 79.9884 8.14795C79.9604 8.17595 79.9184 8.21795 79.8624 8.27395C79.7504 8.38595 79.5404 8.52595 79.2324 8.69395C78.9524 8.83395 78.7424 8.95995 78.6024 9.07195C78.6024 9.07195 78.5744 9.08595 78.5184 9.11395C78.4624 9.14195 78.3924 9.18395 78.3084 9.23995L78.1824 9.28195C78.1544 9.28195 78.0984 9.30995 78.0144 9.36595C77.9584 9.42195 77.9164 9.46395 77.8884 9.49195C77.8604 9.51995 77.8184 9.53395 77.7624 9.53395C77.7344 9.53395 77.6924 9.56195 77.6364 9.61795C77.6084 9.64595 77.5664 9.65995 77.5104 9.65995C77.4544 9.65995 77.3984 9.68795 77.3424 9.74395L76.7124 9.91195C76.6844 9.93995 76.6004 9.99595 76.4604 10.08C76.3484 10.136 76.2784 10.164 76.2504 10.164H76.1664C76.1384 10.164 76.1104 10.178 76.0824 10.206C76.0824 10.234 76.0544 10.248 75.9984 10.248C75.9704 10.276 75.9284 10.29 75.8724 10.29C75.8444 10.262 75.8024 10.262 75.7464 10.29C75.7184 10.29 75.6764 10.318 75.6204 10.374C75.5924 10.402 75.5644 10.416 75.5364 10.416H75.4104L75.1584 10.542C75.0464 10.57 74.9204 10.584 74.7804 10.584C74.6684 10.584 74.5424 10.612 74.4024 10.668C74.3744 10.668 74.3184 10.654 74.2344 10.626C74.1784 10.598 74.1224 10.584 74.0664 10.584C73.8144 10.668 73.5624 10.71 73.3104 10.71C73.2824 10.738 73.2544 10.738 73.2264 10.71C73.2264 10.682 73.2124 10.668 73.1844 10.668C73.1564 10.668 73.1424 10.682 73.1424 10.71C73.1424 10.71 73.1284 10.71 73.1004 10.71C73.1004 10.71 73.0584 10.71 72.9744 10.71C72.9184 10.682 72.8764 10.654 72.8484 10.626H72.8064C72.7504 10.626 72.7084 10.612 72.6804 10.584C72.6524 10.556 72.6244 10.542 72.5964 10.542C72.5964 10.542 72.5964 10.556 72.5964 10.584C72.5964 10.584 72.5824 10.584 72.5544 10.584C72.5264 10.584 72.4984 10.57 72.4704 10.542C72.4144 10.542 72.3164 10.528 72.1764 10.5C72.0644 10.444 71.9944 10.402 71.9664 10.374C71.8824 10.402 71.7984 10.374 71.7144 10.29C71.6584 10.234 71.6304 10.22 71.6304 10.248L71.3364 10.122C71.3364 10.094 71.3224 10.08 71.2944 10.08C71.2944 10.052 71.2944 10.038 71.2944 10.038H71.2104C71.1544 9.98195 71.1124 9.95395 71.0844 9.95395C71.0564 9.86995 71.0284 9.81395 71.0004 9.78595C70.9724 9.75795 70.9304 9.71595 70.8744 9.65995C70.8744 9.54795 70.8604 9.49195 70.8324 9.49195C70.8324 9.43595 70.7904 9.35195 70.7064 9.23995C70.6504 9.09995 70.6224 8.97395 70.6224 8.86195L70.5804 8.81995C70.4684 8.70795 70.4404 8.51195 70.4964 8.23195C70.5244 8.09195 70.5104 8.03595 70.4544 8.06395C70.3984 8.06395 70.4124 7.97995 70.4964 7.81195L70.7064 7.39195C70.7064 7.36395 70.6924 7.34995 70.6644 7.34995C70.6364 7.32195 70.6364 7.29395 70.6644 7.26595C70.6644 7.23795 70.6644 7.22395 70.6644 7.22395C70.6924 7.19595 70.7064 7.16795 70.7064 7.13995C70.7344 7.11195 70.7484 7.05595 70.7484 6.97195C70.7484 6.91595 70.7624 6.87395 70.7904 6.84595C70.7904 6.81795 70.8184 6.76195 70.8744 6.67795C70.9584 6.56595 71.0144 6.49595 71.0424 6.46795L71.2944 6.17395C71.3224 6.14595 71.3644 6.11795 71.4204 6.08995C71.4764 6.06195 71.5184 6.01995 71.5464 5.96395C71.6024 5.90795 71.6584 5.87995 71.7144 5.87995C71.7984 5.85195 71.8544 5.80995 71.8824 5.75395C71.9664 5.61395 72.0644 5.54395 72.1764 5.54395H72.2604C72.3724 5.54395 72.4284 5.57195 72.4284 5.62795C72.4284 5.76795 72.3444 5.87995 72.1764 5.96395C72.0644 6.07595 72.0084 6.13195 72.0084 6.13195C72.0084 6.10395 71.9664 6.13195 71.8824 6.21595C71.8824 6.24395 71.8544 6.25795 71.7984 6.25795C71.7704 6.25795 71.7564 6.28595 71.7564 6.34195C71.7284 6.34195 71.7284 6.35595 71.7564 6.38395C71.7844 6.41195 71.7844 6.45395 71.7564 6.50995C71.7564 6.62195 71.7564 6.67795 71.7564 6.67795C71.7284 6.70595 71.7284 6.74795 71.7564 6.80395C71.7844 6.83195 71.7844 6.87395 71.7564 6.92995C71.7284 6.92995 71.7004 6.94395 71.6724 6.97195L71.6304 7.55995C71.6304 7.55995 71.6444 7.64395 71.6724 7.81195C71.7004 7.95195 71.7004 8.03595 71.6724 8.06395V8.27395C71.6724 8.35795 71.7984 8.44195 72.0504 8.52595C72.0784 8.55395 72.1064 8.56795 72.1344 8.56795C72.1904 8.53995 72.2324 8.53995 72.2604 8.56795C72.6244 8.67995 72.8624 8.76395 72.9744 8.81995C73.0864 8.84795 73.3384 8.86195 73.7304 8.86195H74.0664C74.2064 8.86195 74.3324 8.84795 74.4444 8.81995C74.4724 8.81995 74.4724 8.83395 74.4444 8.86195C74.4444 8.86195 74.4584 8.86195 74.4864 8.86195L74.9904 8.77795C75.0184 8.74995 75.0464 8.73595 75.0744 8.73595C75.1024 8.70795 75.1304 8.70795 75.1584 8.73595C75.1864 8.73595 75.2144 8.73595 75.2424 8.73595L76.1664 8.48395C76.3344 8.42795 76.4884 8.37195 76.6284 8.31595C76.7964 8.23195 76.9644 8.17595 77.1324 8.14795C77.3844 8.09195 77.6504 7.99395 77.9304 7.85395C78.2104 7.68595 78.4904 7.54595 78.7704 7.43395C78.7704 7.40595 78.8964 7.32195 79.1484 7.18195C79.4284 7.04195 79.7224 6.88795 80.0304 6.71995L80.1564 6.29995C80.2124 6.15995 80.2964 6.08995 80.4084 6.08995C80.5204 6.06195 80.6044 6.00595 80.6604 5.92195C80.5764 5.86595 80.5064 5.82395 80.4504 5.79595C80.3944 5.76795 80.3944 5.69795 80.4504 5.58595V5.54395L80.6604 4.87195C80.7724 4.53595 80.8284 4.21395 80.8284 3.90595C80.8284 3.20595 80.5624 2.70195 80.0304 2.39395C79.4984 2.08595 78.8684 1.93195 78.1404 1.93195C78.0284 1.93195 77.9024 1.93195 77.7624 1.93195C77.6504 1.93195 77.5244 1.94595 77.3844 1.97395C77.1324 2.00195 76.8804 2.04395 76.6284 2.09995C76.3764 2.15595 76.1104 2.21195 75.8304 2.26795H75.7464C75.6344 2.26795 75.5364 2.29595 75.4524 2.35195C75.3684 2.37995 75.2844 2.42195 75.2004 2.47795C74.8084 2.58995 74.3744 2.74395 73.8984 2.93995C73.6464 2.99595 73.4644 3.07995 73.3524 3.19195C73.2404 3.24795 73.1704 3.27595 73.1424 3.27595V3.31795C72.9744 3.37395 72.8344 3.40195 72.7224 3.40195C72.6664 3.40195 72.5964 3.40195 72.5124 3.40195C72.4284 3.37395 72.3444 3.35995 72.2604 3.35995C72.3164 3.38795 72.3584 3.40195 72.3864 3.40195C72.4144 3.40195 72.4424 3.41595 72.4704 3.44395C72.4984 3.52795 72.4704 3.58395 72.3864 3.61195C72.3304 3.63995 72.2884 3.68195 72.2604 3.73795H72.2184C72.1904 3.76595 72.1344 3.79395 72.0504 3.82195C71.9944 3.84995 71.9384 3.89195 71.8824 3.94795C71.6304 3.97595 71.4064 4.05995 71.2104 4.19995C71.0424 4.33995 70.8884 4.49395 70.7484 4.66195H70.7064L69.7404 5.33395C69.5164 5.44595 69.3204 5.58595 69.1524 5.75395C68.7884 6.03395 68.4244 6.32795 68.0604 6.63595C67.6964 6.94395 67.3324 7.25195 66.9684 7.55995H66.8844C66.7444 7.55995 66.6604 7.60195 66.6324 7.68595C66.6324 7.74195 66.6044 7.83995 66.5484 7.97995H66.5064C66.4224 8.09195 66.3244 8.18995 66.2124 8.27395C66.1004 8.30195 66.0304 8.35795 66.0024 8.44195C65.9744 8.52595 65.9184 8.60995 65.8344 8.69395L65.5404 8.98795C65.4284 8.95995 65.3024 8.91795 65.1624 8.86195C65.0504 8.77795 64.9244 8.73595 64.7844 8.73595C64.7844 8.73595 64.7704 8.74995 64.7424 8.77795C64.7424 8.77795 64.7424 8.80595 64.7424 8.86195C64.9104 8.88995 65.0504 8.95995 65.1624 9.07195C65.2744 9.18395 65.2604 9.30995 65.1204 9.44995L65.0364 9.53395C64.9244 9.64595 64.7844 9.68795 64.6164 9.65995C64.4764 9.63195 64.3504 9.68795 64.2384 9.82795C64.2944 9.85595 64.3644 9.86995 64.4484 9.86995C64.5324 9.86995 64.5744 9.93995 64.5744 10.08C64.4344 10.248 64.2944 10.416 64.1544 10.584C64.0424 10.752 63.9164 10.92 63.7764 11.088C63.6644 11.2 63.5664 11.326 63.4824 11.466C63.3984 11.578 63.2864 11.676 63.1464 11.76C63.1184 11.788 63.1044 11.83 63.1044 11.886C63.1324 11.914 63.1324 11.942 63.1044 11.97V12.012L62.4744 13.02C62.3344 13.104 62.2224 13.188 62.1384 13.272C62.0544 13.356 62.0124 13.482 62.0124 13.65C62.1244 13.538 62.1804 13.496 62.1804 13.524V13.566C62.1804 13.622 62.1524 13.678 62.0964 13.734C62.0404 13.762 61.9984 13.804 61.9704 13.86L61.7604 14.364C61.4804 15.008 61.2844 15.582 61.1724 16.086C61.0044 16.618 60.9204 17.122 60.9204 17.598C60.8924 17.71 60.8364 17.822 60.7524 17.934C60.6964 18.018 60.7104 18.116 60.7944 18.228C60.8504 18.284 60.8924 18.326 60.9204 18.354C60.9484 18.354 60.9624 18.41 60.9624 18.522C60.9624 18.662 60.9764 18.76 61.0044 18.816V18.942C61.0044 19.026 60.9764 19.11 60.9204 19.194C60.8644 19.278 60.8504 19.362 60.8784 19.446C60.9064 19.474 60.9624 19.488 61.0464 19.488C61.1304 19.46 61.1864 19.474 61.2144 19.53L61.4664 19.992C61.5504 20.048 61.6064 20.132 61.6344 20.244C61.6624 20.356 61.6904 20.44 61.7184 20.496C61.7744 20.552 61.8444 20.608 61.9284 20.664C62.0124 20.692 62.0684 20.748 62.0964 20.832C62.0964 20.86 62.0824 20.888 62.0544 20.916C62.0544 20.916 62.0544 20.944 62.0544 21C62.1944 20.944 62.2084 20.832 62.0964 20.664C62.2644 20.776 62.2644 20.888 62.0964 21C62.1524 21 62.2084 21 62.2644 21C62.3204 20.972 62.3764 20.958 62.4324 20.958C62.5444 20.958 62.6564 21 62.7684 21.084C63.2164 21.308 63.7204 21.462 64.2804 21.546C64.8684 21.658 65.4984 21.714 66.1704 21.714C66.9264 21.714 67.7384 21.644 68.6064 21.504C69.4744 21.392 70.3424 21.238 71.2104 21.042V21C71.2664 21 71.3084 21.014 71.3364 21.042C71.3644 21.042 71.3924 21.042 71.4204 21.042C71.5604 21.042 71.6864 20.986 71.7984 20.874L72.2604 20.748C72.4844 20.608 72.6944 20.496 72.8904 20.412C73.0864 20.328 73.2964 20.314 73.5204 20.37C73.5764 20.398 73.5764 20.426 73.5204 20.454C73.4924 20.454 73.4784 20.482 73.4784 20.538C73.5344 20.51 73.5764 20.468 73.6044 20.412C73.6324 20.356 73.6744 20.314 73.7304 20.286L73.9824 20.202C74.1784 20.174 74.3464 20.132 74.4864 20.076C74.6264 19.992 74.7804 19.922 74.9484 19.866L75.4104 19.698C75.4664 19.726 75.5224 19.74 75.5784 19.74C75.6904 19.74 75.7744 19.712 75.8304 19.656C75.8864 19.572 75.9704 19.488 76.0824 19.404C76.1104 19.404 76.1804 19.376 76.2924 19.32C76.4324 19.264 76.5864 19.222 76.7544 19.194C76.9224 19.138 77.0624 19.054 77.1744 18.942H77.2164C77.6364 18.746 78.0424 18.55 78.4344 18.354C78.8264 18.158 79.2044 17.962 79.5684 17.766L80.7024 17.136C80.8424 17.024 80.9544 16.926 81.0384 16.842C81.1224 16.758 81.2344 16.716 81.3744 16.716L81.4164 16.674C81.6124 16.478 81.8224 16.324 82.0464 16.212C82.2704 16.072 82.4524 15.932 82.5924 15.792C82.8164 15.596 82.9844 15.498 83.0964 15.498C83.1804 15.498 83.2224 15.554 83.2224 15.666C83.2224 15.806 83.1384 15.96 82.9704 16.128C82.7184 16.352 82.4384 16.604 82.1304 16.884C81.8224 17.164 81.4724 17.458 81.0804 17.766C80.9404 17.878 80.7864 17.948 80.6184 17.976C80.4784 18.004 80.3804 18.102 80.3244 18.27C80.1564 18.382 79.9744 18.494 79.7784 18.606C79.6104 18.718 79.4144 18.83 79.1904 18.942C78.9384 19.082 78.6724 19.222 78.3924 19.362C78.1404 19.502 77.8604 19.642 77.5524 19.782C77.4684 19.782 77.3704 19.782 77.2584 19.782C77.1744 19.754 77.0904 19.74 77.0064 19.74C76.8104 19.74 76.6704 19.782 76.5864 19.866C76.5864 19.866 76.5864 19.88 76.5864 19.908C76.5864 19.908 76.6004 19.936 76.6284 19.992C76.6844 19.992 76.7404 19.992 76.7964 19.992C76.8524 19.964 76.9084 19.964 76.9644 19.992C76.9644 19.992 76.9644 20.006 76.9644 20.034C76.9644 20.062 76.9364 20.076 76.8804 20.076C76.7684 20.132 76.6844 20.16 76.6284 20.16V20.202L76.3344 20.328H76.2924C76.1804 20.44 76.0964 20.412 76.0404 20.244C75.9564 20.272 75.8724 20.328 75.7884 20.412C75.7324 20.496 75.6624 20.566 75.5784 20.622L75.2844 20.748C75.1724 20.776 75.0604 20.804 74.9484 20.832C74.8364 20.832 74.7524 20.874 74.6964 20.958H74.6544C74.5424 21.014 74.4024 21.07 74.2344 21.126C74.0944 21.154 73.9544 21.196 73.8144 21.252V21.294H73.6044C73.4644 21.294 73.3104 21.28 73.1424 21.252C72.9744 21.196 72.8064 21.168 72.6384 21.168C72.6944 21.252 72.7924 21.294 72.9324 21.294C73.0724 21.322 73.1144 21.392 73.0584 21.504C73.0584 21.532 73.0444 21.546 73.0164 21.546L71.9244 21.84V21.882C71.8124 21.91 71.6864 21.924 71.5464 21.924C71.4344 21.952 71.3224 21.994 71.2104 22.05C70.1184 22.33 69.0404 22.526 67.9764 22.638C66.9124 22.75 65.9184 22.806 64.9944 22.806H64.9524ZM73.9824 10.29C74.0104 10.262 74.0664 10.248 74.1504 10.248C74.2624 10.22 74.3464 10.192 74.4024 10.164L75.3264 10.08C75.3544 10.08 75.3824 10.066 75.4104 10.038C75.4384 10.01 75.4664 9.99595 75.4944 9.99595C75.5224 9.96795 75.5644 9.95395 75.6204 9.95395C75.7604 9.84195 75.8304 9.82795 75.8304 9.91195C75.8304 9.96795 75.8864 9.95395 75.9984 9.86995C76.0264 9.84195 76.0684 9.82795 76.1244 9.82795C76.1804 9.77195 76.2224 9.74395 76.2504 9.74395C76.3064 9.71595 76.3484 9.68795 76.3764 9.65995C76.4324 9.63195 76.4604 9.61795 76.4604 9.61795C76.4604 9.58995 76.4884 9.57595 76.5444 9.57595H76.5864C76.6424 9.57595 76.7404 9.53395 76.8804 9.44995C77.0204 9.36595 77.0904 9.32395 77.0904 9.32395C77.1184 9.32395 77.1464 9.29595 77.1744 9.23995C77.2304 9.18395 77.2724 9.15595 77.3004 9.15595C77.3284 9.12795 77.3704 9.11395 77.4264 9.11395C77.4824 9.08595 77.5104 9.05795 77.5104 9.02995C77.5664 9.00195 77.6224 8.97395 77.6784 8.94595C77.7344 8.91795 77.7764 8.90395 77.8044 8.90395C77.8324 8.87595 77.8884 8.83395 77.9724 8.77795C78.0844 8.72195 78.1404 8.67995 78.1404 8.65195C78.1964 8.59595 78.2524 8.55395 78.3084 8.52595C78.3924 8.49795 78.4484 8.46995 78.4764 8.44195C78.5604 8.41395 78.7564 8.27395 79.0644 8.02195C79.3724 7.74195 79.6384 7.41995 79.8624 7.05595C79.9184 6.99995 79.7924 7.06995 79.4844 7.26595C79.2044 7.43395 79.0504 7.53195 79.0224 7.55995C78.9944 7.55995 78.9384 7.60195 78.8544 7.68595C78.7704 7.74195 78.7144 7.76995 78.6864 7.76995L78.6024 7.85395H78.4764L78.4344 7.89595C78.4344 7.89595 78.3784 7.92395 78.2664 7.97995C78.2384 7.97995 78.1824 8.00795 78.0984 8.06395C78.0144 8.11995 77.9584 8.14795 77.9304 8.14795C77.9024 8.14795 77.8744 8.16195 77.8464 8.18995C77.8184 8.18995 77.7904 8.18995 77.7624 8.18995C77.6504 8.27395 77.4824 8.35795 77.2584 8.44195C77.0624 8.52595 76.9224 8.56795 76.8384 8.56795H76.7964C76.7404 8.56795 76.6844 8.59595 76.6284 8.65195L76.5864 8.69395L76.3764 8.73595C76.3204 8.76395 76.2504 8.79195 76.1664 8.81995C76.0824 8.84795 76.0124 8.86195 75.9564 8.86195C75.9284 8.88995 75.9144 8.90395 75.9144 8.90395C75.9144 8.87595 75.9144 8.86195 75.9144 8.86195C75.8584 8.91795 75.7884 8.94595 75.7044 8.94595C75.6764 8.94595 75.6624 8.94595 75.6624 8.94595C75.6624 8.91795 75.6484 8.90395 75.6204 8.90395C75.5924 8.90395 75.5364 8.94595 75.4524 9.02995H75.2424C75.2424 9.05795 75.2144 9.07195 75.1584 9.07195H75.1164C75.0884 9.07195 75.0464 9.08595 74.9904 9.11395C74.9344 9.14195 74.8924 9.15595 74.8644 9.15595C74.8364 9.15595 74.8224 9.16995 74.8224 9.19795C74.8224 9.19795 74.8084 9.19795 74.7804 9.19795C74.7804 9.16995 74.7664 9.15595 74.7384 9.15595H74.6964L74.4444 9.23995H74.3184C74.2344 9.23995 74.1364 9.22595 74.0244 9.19795C73.9404 9.16995 73.8424 9.16995 73.7304 9.19795C73.7024 9.19795 73.6884 9.21195 73.6884 9.23995C73.6884 9.23995 73.6744 9.23995 73.6464 9.23995H73.5624C73.5624 9.23995 73.5484 9.23995 73.5204 9.23995C73.5204 9.23995 73.5064 9.25395 73.4784 9.28195C73.4784 9.25395 73.4644 9.23995 73.4364 9.23995H73.1844C73.1844 9.21195 73.1704 9.19795 73.1424 9.19795C73.1144 9.19795 73.0864 9.21195 73.0584 9.23995C73.0304 9.23995 73.0024 9.23995 72.9744 9.23995C72.8064 9.23995 72.6804 9.18395 72.5964 9.07195C72.5124 8.95995 72.3584 8.93195 72.1344 8.98795C72.1344 8.95995 72.1204 8.94595 72.0924 8.94595C72.0644 8.91795 72.0504 8.88995 72.0504 8.86195H72.0084C71.9524 8.91795 71.9244 8.95995 71.9244 8.98795C71.8964 9.01595 71.8964 9.05795 71.9244 9.11395C71.9804 9.14195 71.9944 9.18395 71.9664 9.23995C71.9944 9.26795 72.0084 9.30995 72.0084 9.36595C72.0364 9.39395 72.0644 9.40795 72.0924 9.40795C72.0924 9.49195 72.1344 9.57595 72.2184 9.65995C72.2184 9.68795 72.2324 9.71595 72.2604 9.74395C72.3164 9.77195 72.3304 9.78595 72.3024 9.78595C72.3304 9.81395 72.3584 9.82795 72.3864 9.82795C72.4144 9.82795 72.4284 9.85595 72.4284 9.91195L72.5544 10.038H72.5964C72.8484 10.15 73.1004 10.234 73.3524 10.29C73.6324 10.318 73.8424 10.318 73.9824 10.29ZM91.2585 21.21C90.8385 21.21 90.5305 21.028 90.3345 20.664C90.3065 20.58 90.2365 20.454 90.1245 20.286C90.0405 20.118 89.9705 19.978 89.9145 19.866V19.824C89.9145 19.768 89.9285 19.712 89.9565 19.656C89.9845 19.6 89.9985 19.544 89.9985 19.488C89.9985 19.376 89.9705 19.278 89.9145 19.194C89.8585 19.082 89.8305 18.97 89.8305 18.858C89.8305 18.466 89.9425 18.004 90.1665 17.472C90.4185 16.94 90.6145 16.478 90.7545 16.086C90.8105 15.862 90.9505 15.596 91.1745 15.288C91.2025 15.26 91.2305 15.246 91.2585 15.246C91.3145 15.246 91.3565 15.232 91.3845 15.204C91.4405 15.12 91.4685 15.036 91.4685 14.952C91.4965 14.84 91.5245 14.742 91.5525 14.658C91.5805 14.602 91.6365 14.574 91.7205 14.574C91.8045 14.574 91.8605 14.546 91.8885 14.49C91.9165 14.434 91.8745 14.406 91.7625 14.406C91.6505 14.406 91.6085 14.378 91.6365 14.322C91.8325 13.958 92.0425 13.58 92.2665 13.188C92.5185 12.796 92.6865 12.544 92.7705 12.432C92.7425 12.46 92.7285 12.432 92.7285 12.348C92.7285 12.236 92.7005 12.194 92.6445 12.222C92.6165 12.25 92.5465 12.32 92.4345 12.432C92.3225 12.544 92.2385 12.628 92.1825 12.684C92.0425 12.796 91.8745 12.95 91.6785 13.146C91.4825 13.342 91.3565 13.468 91.3005 13.524C91.2165 13.552 91.1045 13.678 90.9645 13.902C90.8245 14.098 90.7265 14.224 90.6705 14.28C90.5585 14.392 90.4465 14.448 90.3345 14.448C90.2785 14.448 90.2365 14.42 90.2085 14.364C90.2085 14.28 90.2365 14.196 90.2925 14.112C90.3485 14.056 90.4045 13.986 90.4605 13.902C90.5165 13.79 90.5585 13.706 90.5865 13.65C90.6145 13.622 90.6565 13.58 90.7125 13.524C90.7685 13.44 90.7965 13.384 90.7965 13.356L91.1325 12.978C91.1605 12.95 91.2165 12.95 91.3005 12.978C91.3845 12.978 91.4405 12.964 91.4685 12.936C91.4965 12.88 91.4545 12.852 91.3425 12.852C91.2585 12.824 91.2305 12.796 91.2585 12.768C91.5105 12.32 91.8325 11.886 92.2245 11.466C92.6165 11.046 92.8825 10.752 93.0225 10.584C93.1625 10.416 93.3445 10.29 93.5685 10.206C93.8205 10.094 94.0585 10.038 94.2825 10.038C94.4785 10.038 94.6185 10.052 94.7025 10.08C94.8705 10.136 95.0665 10.22 95.2905 10.332C95.5425 10.416 95.6965 10.542 95.7525 10.71C95.8365 10.878 95.7805 11.144 95.5845 11.508C95.3885 11.872 95.1505 12.236 94.8705 12.6C94.6185 12.936 94.4085 13.16 94.2405 13.272C94.2125 13.3 94.1425 13.314 94.0305 13.314C93.9185 13.314 93.7785 13.314 93.6105 13.314C93.4425 13.286 93.3445 13.3 93.3165 13.356C93.2325 13.468 93.1345 13.58 93.0225 13.692C92.9105 13.776 92.8265 13.888 92.7705 14.028C92.7425 14.196 92.7005 14.336 92.6445 14.448C92.6165 14.56 92.5325 14.728 92.3925 14.952C92.3645 15.008 92.3085 15.106 92.2245 15.246C92.1405 15.358 92.0845 15.442 92.0565 15.498C91.8605 16.114 91.6785 16.702 91.5105 17.262C91.3705 17.794 91.3005 18.242 91.3005 18.606C91.3005 18.97 91.4125 19.292 91.6365 19.572C91.8605 19.824 92.1545 19.95 92.5185 19.95C92.9385 19.95 93.3865 19.81 93.8625 19.53C94.1425 19.418 94.4505 19.208 94.7865 18.9C94.8425 18.844 94.8845 18.802 94.9125 18.774C94.9685 18.718 95.0245 18.676 95.0805 18.648H95.2065C95.3465 18.648 95.4165 18.704 95.4165 18.816C95.4165 18.928 95.3185 19.068 95.1225 19.236C95.0105 19.32 94.8985 19.39 94.7865 19.446C94.7025 19.502 94.6045 19.572 94.4925 19.656C94.3525 19.74 94.1985 19.88 94.0305 20.076C93.8625 20.244 93.6665 20.328 93.4425 20.328H93.4005C93.3165 20.328 93.2465 20.314 93.1905 20.286C93.1345 20.23 93.0785 20.216 93.0225 20.244C92.9385 20.272 92.9385 20.328 93.0225 20.412C93.1345 20.468 93.1485 20.524 93.0645 20.58L92.7285 20.748C92.1125 21.056 91.6225 21.21 91.2585 21.21ZM84.4545 20.958C84.2865 20.958 84.0765 20.776 83.8245 20.412C83.6565 20.188 83.5725 19.838 83.5725 19.362C83.5725 18.886 83.6565 18.368 83.8245 17.808C84.0205 17.248 84.2585 16.758 84.5385 16.338C84.8465 15.722 85.0565 15.26 85.1685 14.952C85.2805 14.644 85.3925 14.392 85.5045 14.196C85.5045 14.168 85.4765 14.14 85.4205 14.112C85.3645 14.084 85.3365 14.028 85.3365 13.944C85.1685 13.832 84.9865 13.678 84.7905 13.482C84.6225 13.258 84.6085 13.048 84.7485 12.852C84.8045 12.796 84.8465 12.768 84.8745 12.768C84.9025 12.74 84.9165 12.726 84.9165 12.726V12.642C84.9165 12.53 84.9585 12.46 85.0425 12.432C85.1545 12.404 85.2105 12.362 85.2105 12.306C85.2665 11.914 85.5885 11.62 86.1765 11.424C86.7925 11.228 87.3385 11.13 87.8145 11.13C88.3465 11.13 88.6125 11.214 88.6125 11.382C88.6125 11.466 88.5145 11.564 88.3185 11.676C88.2345 11.704 88.0945 11.816 87.8985 12.012C87.7025 12.208 87.5205 12.446 87.3525 12.726L87.0585 13.23L86.7645 13.608C86.5965 13.916 86.4145 14.238 86.2185 14.574C86.0505 14.882 85.7705 15.47 85.3785 16.338C85.2665 16.618 85.1685 16.884 85.0845 17.136C85.0285 17.388 85.0285 17.584 85.0845 17.724C85.1125 17.752 85.0145 17.85 84.7905 18.018C84.5945 18.186 84.5105 18.284 84.5385 18.312C84.5665 18.312 84.6085 18.326 84.6645 18.354C84.7205 18.354 84.7905 18.354 84.8745 18.354C85.0425 18.354 85.2105 18.326 85.3785 18.27C85.4625 18.242 85.5325 18.186 85.5885 18.102C85.6445 17.99 85.6865 17.934 85.7145 17.934C85.8825 17.934 86.0645 17.892 86.2605 17.808C86.5685 17.668 86.9465 17.388 87.3945 16.968C87.4505 16.912 87.5625 16.87 87.7305 16.842C87.8985 16.786 88.0385 16.688 88.1505 16.548C88.4865 16.24 88.6825 16.058 88.7385 16.002C88.7945 15.918 88.9625 15.736 89.2425 15.456C89.2425 15.428 89.2985 15.302 89.4105 15.078C89.5225 14.826 89.5785 14.686 89.5785 14.658C89.6345 14.518 89.6905 14.448 89.7465 14.448C89.8585 14.448 89.9425 14.546 89.9985 14.742C90.0825 14.938 90.0825 15.106 89.9985 15.246C89.9705 15.274 89.9005 15.33 89.7885 15.414C89.7045 15.498 89.6345 15.568 89.5785 15.624L89.0325 16.17L87.8985 17.178C87.8705 17.206 87.8425 17.248 87.8145 17.304C87.7865 17.36 87.7445 17.416 87.6885 17.472L87.3105 18.06C87.2825 18.116 87.2265 18.116 87.1425 18.06C87.0585 17.976 86.9465 17.99 86.8065 18.102C86.7785 18.13 86.7505 18.186 86.7225 18.27C86.7225 18.354 86.7085 18.424 86.6805 18.48C86.6525 18.564 86.6525 18.62 86.6805 18.648C86.7085 18.648 86.7225 18.662 86.7225 18.69C86.6945 18.774 86.6385 18.83 86.5545 18.858C86.4985 18.886 86.4425 18.928 86.3865 18.984C86.3585 19.012 86.3585 19.054 86.3865 19.11C86.4145 19.166 86.4005 19.222 86.3445 19.278C86.3165 19.362 86.2885 19.39 86.2605 19.362C86.2325 19.334 86.1905 19.348 86.1345 19.404C86.1065 19.432 86.0645 19.474 86.0085 19.53C85.9805 19.558 85.9385 19.586 85.8825 19.614C85.6585 19.698 85.5325 19.81 85.5045 19.95C85.4765 20.09 85.3785 20.244 85.2105 20.412C84.8465 20.776 84.5945 20.958 84.4545 20.958ZM97.6566 21.168C97.3766 21.168 97.0826 21.112 96.7746 21C96.4666 20.86 96.3546 20.706 96.4386 20.538C96.5506 20.314 96.6766 20.09 96.8166 19.866C96.9846 19.614 97.1386 19.348 97.2786 19.068L97.7406 18.186C97.7966 18.046 97.8526 17.948 97.9086 17.892C97.9926 17.808 98.0626 17.71 98.1186 17.598C98.1466 17.57 98.1606 17.5 98.1606 17.388C98.1606 17.248 98.2166 17.094 98.3286 16.926C98.4686 16.73 98.5666 16.548 98.6226 16.38C98.6506 16.352 98.6786 16.436 98.7066 16.632C98.7346 16.828 98.8046 16.814 98.9166 16.59C98.9446 16.562 98.9306 16.52 98.8746 16.464C98.8466 16.408 98.8326 16.352 98.8326 16.296C98.8326 16.24 98.8466 16.212 98.8746 16.212C98.9306 16.184 98.9586 16.156 98.9586 16.128C98.9866 16.044 98.9586 16.016 98.8746 16.044C98.8186 16.044 98.7906 16.03 98.7906 16.002C98.8466 15.918 98.9026 15.862 98.9586 15.834C99.0426 15.806 99.0986 15.764 99.1266 15.708C99.1266 15.652 99.0986 15.624 99.0426 15.624C99.0146 15.596 99.0146 15.568 99.0426 15.54C99.1826 15.148 99.3366 14.686 99.5046 14.154C99.6726 13.622 99.7986 13.132 99.8826 12.684C99.8826 12.684 99.8546 12.67 99.7986 12.642C99.7426 12.586 99.7146 12.53 99.7146 12.474L99.4206 12.264C99.0846 12.572 98.7206 12.838 98.3286 13.062C98.3006 13.09 98.2446 13.104 98.1606 13.104C98.0486 13.104 97.9786 13.048 97.9506 12.936C97.9226 12.824 97.9646 12.726 98.0766 12.642C98.2166 12.558 98.3286 12.502 98.4126 12.474C98.4966 12.418 98.5946 12.334 98.7066 12.222C98.7626 12.166 98.7906 12.11 98.7906 12.054C98.8186 11.998 98.8466 11.942 98.8746 11.886L99.0426 11.676C99.0426 11.536 99.0706 11.424 99.1266 11.34C99.1826 11.284 99.2246 11.256 99.2526 11.256C99.2806 11.256 99.2946 11.256 99.2946 11.256V11.172C99.2946 11.06 99.3366 10.99 99.4206 10.962C99.5326 10.934 99.5886 10.892 99.5886 10.836C99.6446 10.444 99.9806 10.15 100.597 9.95395C101.213 9.75795 101.759 9.65995 102.235 9.65995C102.711 9.65995 102.949 9.72995 102.949 9.86995C102.949 9.95395 102.865 10.052 102.697 10.164C102.613 10.22 102.473 10.346 102.277 10.542C102.081 10.738 101.899 10.976 101.731 11.256L101.437 11.76L101.143 12.138C100.947 12.586 100.667 13.272 100.303 14.196C99.9386 15.12 99.5606 16.282 99.1686 17.682C99.2526 17.57 99.4486 17.332 99.7566 16.968C100.065 16.604 100.429 16.184 100.849 15.708C101.269 15.232 101.675 14.784 102.067 14.364C102.459 13.916 102.781 13.566 103.033 13.314L103.243 13.188C103.299 13.132 103.355 13.062 103.411 12.978C103.495 12.866 103.565 12.782 103.621 12.726C103.649 12.698 103.663 12.754 103.663 12.894C103.691 13.006 103.719 13.048 103.747 13.02C103.859 12.936 103.915 12.81 103.915 12.642C103.943 12.474 104.013 12.362 104.125 12.306C104.433 12.054 104.853 11.704 105.385 11.256C105.945 10.78 106.519 10.5 107.107 10.416C107.163 10.36 107.247 10.346 107.359 10.374C107.499 10.374 107.597 10.36 107.653 10.332C107.709 10.332 107.751 10.318 107.779 10.29C107.807 10.262 107.877 10.248 107.989 10.248C108.045 10.248 108.157 10.29 108.325 10.374C108.521 10.458 108.633 10.57 108.661 10.71C108.829 10.822 108.913 10.99 108.913 11.214C108.913 11.606 108.703 11.9 108.283 12.096C108.143 12.236 107.989 12.376 107.821 12.516C107.653 12.628 107.485 12.754 107.317 12.894C107.261 12.95 107.219 12.978 107.191 12.978C106.995 13.146 106.827 13.328 106.687 13.524C106.547 13.72 106.477 13.972 106.477 14.28C106.477 14.308 106.505 14.35 106.561 14.406C106.617 14.434 106.631 14.462 106.603 14.49C106.687 14.574 106.813 14.63 106.981 14.658C107.149 14.658 107.317 14.658 107.485 14.658C107.765 14.658 108.185 14.546 108.745 14.322H108.829C108.857 14.322 108.871 14.336 108.871 14.364C108.871 14.42 108.815 14.518 108.703 14.658C108.591 14.77 108.465 14.854 108.325 14.91C108.017 15.022 107.695 15.092 107.359 15.12C107.023 15.12 106.785 15.12 106.645 15.12C106.141 15.12 105.819 15.022 105.679 14.826C105.567 14.63 105.455 14.392 105.343 14.112V13.902L105.553 13.692C105.525 13.608 105.483 13.524 105.427 13.44C105.371 13.356 105.343 13.258 105.343 13.146C105.343 12.866 105.455 12.544 105.679 12.18C105.371 12.264 104.979 12.502 104.503 12.894C104.055 13.258 103.593 13.692 103.117 14.196C102.641 14.672 102.207 15.148 101.815 15.624C101.423 16.072 101.115 16.436 100.891 16.716C100.807 16.828 100.709 16.898 100.597 16.926C100.513 16.926 100.443 16.968 100.387 17.052C100.359 17.08 100.387 17.094 100.471 17.094C100.583 17.094 100.625 17.108 100.597 17.136C100.233 17.696 99.8406 18.312 99.4206 18.984C99.0286 19.656 98.6366 20.314 98.2446 20.958C98.1606 21.098 97.9646 21.168 97.6566 21.168ZM116.048 21.378C115.88 21.378 115.796 21.28 115.796 21.084C115.796 20.944 115.838 20.776 115.922 20.58C116.146 20.104 116.398 19.432 116.678 18.564C116.986 17.696 117.364 16.954 117.812 16.338C118.12 15.722 118.4 15.12 118.652 14.532C118.932 13.916 119.198 13.3 119.45 12.684C119.45 12.684 119.422 12.67 119.366 12.642C119.31 12.586 119.282 12.53 119.282 12.474C119.142 12.362 118.974 12.208 118.778 12.012C118.582 11.788 118.568 11.564 118.736 11.34C118.792 11.284 118.82 11.256 118.82 11.256C118.848 11.256 118.862 11.256 118.862 11.256C118.862 11.228 118.848 11.214 118.82 11.214C118.82 11.214 118.82 11.2 118.82 11.172L118.778 11.13C118.75 11.13 118.722 11.13 118.694 11.13C118.694 11.102 118.68 11.088 118.652 11.088C118.54 11.088 118.414 11.116 118.274 11.172C118.134 11.2 117.994 11.214 117.854 11.214C117.686 11.214 117.462 11.284 117.182 11.424C116.902 11.536 116.65 11.634 116.426 11.718C116.314 11.746 116.244 11.76 116.216 11.76C116.216 11.732 116.16 11.746 116.048 11.802C116.02 11.83 116.02 11.788 116.048 11.676C116.104 11.536 116.132 11.438 116.132 11.382C116.132 11.354 116.118 11.34 116.09 11.34C116.034 11.34 115.922 11.424 115.754 11.592C115.586 11.732 115.474 11.816 115.418 11.844C115.39 11.872 115.376 11.914 115.376 11.97C115.404 12.026 115.418 12.082 115.418 12.138C115.418 12.222 115.348 12.32 115.208 12.432C115.068 12.516 114.97 12.586 114.914 12.642C114.802 12.726 114.662 12.782 114.494 12.81C114.354 12.81 114.214 12.866 114.074 12.978C113.906 13.09 113.822 13.174 113.822 13.23C113.85 13.286 113.766 13.384 113.57 13.524C113.318 13.72 112.968 14.014 112.52 14.406C112.1 14.798 111.778 15.148 111.554 15.456C111.022 16.1 110.532 16.842 110.084 17.682C109.664 18.522 109.454 19.18 109.454 19.656C109.454 20.02 109.608 20.202 109.916 20.202C109.972 20.202 110.028 20.202 110.084 20.202C110.14 20.174 110.21 20.146 110.294 20.118L111.386 19.488L111.638 19.446V19.404L111.806 19.53C111.834 19.502 111.82 19.46 111.764 19.404C111.736 19.32 111.736 19.278 111.764 19.278C111.792 19.278 111.806 19.292 111.806 19.32C111.834 19.32 111.862 19.32 111.89 19.32L111.974 19.194C111.974 19.194 112.016 19.208 112.1 19.236C112.212 19.236 112.296 19.208 112.352 19.152C112.436 19.124 112.45 19.082 112.394 19.026C112.366 18.97 112.324 18.928 112.268 18.9L112.562 18.648C112.59 18.592 112.702 18.536 112.898 18.48C113.374 18.172 113.766 17.808 114.074 17.388C114.41 16.94 114.788 16.534 115.208 16.17H115.25L115.754 15.666L115.712 15.54L116.258 14.91H116.342C116.37 14.854 116.426 14.784 116.51 14.7C116.622 14.616 116.692 14.546 116.72 14.49C116.776 14.462 116.902 14.322 117.098 14.07C117.322 13.79 117.532 13.566 117.728 13.398C117.952 13.23 118.078 13.146 118.106 13.146C118.134 13.146 118.148 13.16 118.148 13.188C118.148 13.272 118.106 13.398 118.022 13.566C117.966 13.734 117.91 13.846 117.854 13.902C117.658 14.21 117.406 14.56 117.098 14.952C116.79 15.316 116.608 15.54 116.552 15.624C116.216 15.988 115.81 16.478 115.334 17.094C114.858 17.682 114.34 18.27 113.78 18.858C113.22 19.446 112.66 19.95 112.1 20.37C111.568 20.762 111.064 20.958 110.588 20.958C110.14 20.958 109.664 20.818 109.16 20.538C108.656 20.258 108.404 19.726 108.404 18.942C108.404 18.69 108.432 18.41 108.488 18.102C108.572 17.766 108.698 17.416 108.866 17.052C108.866 17.052 108.894 17.024 108.95 16.968C109.006 16.884 109.048 16.856 109.076 16.884C109.132 16.8 109.146 16.716 109.118 16.632C109.118 16.52 109.118 16.45 109.118 16.422L109.202 16.338C109.258 16.03 109.468 15.75 109.832 15.498C110.196 15.246 110.392 15.05 110.42 14.91C110.448 14.882 110.462 14.84 110.462 14.784L110.63 14.238V14.07H110.798L110.924 13.902L110.966 13.818C110.91 13.79 110.924 13.748 111.008 13.692C111.12 13.608 111.176 13.566 111.176 13.566C111.204 13.51 111.232 13.468 111.26 13.44C111.316 13.412 111.358 13.384 111.386 13.356H111.68C111.736 13.272 111.708 13.23 111.596 13.23C111.484 13.23 111.428 13.23 111.428 13.23C111.428 13.202 111.428 13.188 111.428 13.188C111.456 13.16 111.47 13.132 111.47 13.104L111.932 12.726C112.072 12.614 112.212 12.516 112.352 12.432C112.492 12.348 112.618 12.25 112.73 12.138C112.814 12.138 112.828 12.18 112.772 12.264C112.8 12.32 112.828 12.32 112.856 12.264C112.912 12.208 112.94 12.18 112.94 12.18L113.15 12.138V12.096C113.15 12.04 113.164 11.956 113.192 11.844C113.22 11.732 113.234 11.662 113.234 11.634C113.822 11.186 114.438 10.794 115.082 10.458C115.726 10.094 116.356 9.91195 116.972 9.91195C117.7 9.91195 118.358 10.192 118.946 10.752L119.156 10.878C119.184 10.878 119.198 10.864 119.198 10.836C119.254 10.444 119.576 10.15 120.164 9.95395C120.78 9.75795 121.326 9.65995 121.802 9.65995C122.306 9.65995 122.558 9.72995 122.558 9.86995C122.558 9.92595 122.474 10.024 122.306 10.164C122.222 10.22 122.082 10.346 121.886 10.542C121.69 10.738 121.494 10.976 121.298 11.256C121.27 11.34 121.228 11.424 121.172 11.508C121.116 11.592 121.06 11.676 121.004 11.76C120.976 11.816 120.934 11.886 120.878 11.97C120.85 12.026 120.808 12.082 120.752 12.138C120.276 12.95 119.898 13.636 119.618 14.196C119.338 14.756 119.002 15.47 118.61 16.338C118.554 16.506 118.526 16.604 118.526 16.632C118.526 16.856 118.652 16.968 118.904 16.968C119.072 16.968 119.24 16.926 119.408 16.842L119.828 16.674C120.5 16.058 121.2 15.54 121.928 15.12C121.956 15.12 121.97 15.12 121.97 15.12C121.998 15.092 122.026 15.078 122.054 15.078C122.138 15.078 122.194 15.134 122.222 15.246C122.25 15.33 122.222 15.4 122.138 15.456C121.326 15.904 120.57 16.478 119.87 17.178C119.842 17.234 119.814 17.29 119.786 17.346C119.758 17.402 119.716 17.458 119.66 17.514C119.576 17.57 119.492 17.668 119.408 17.808C119.324 17.948 119.282 18.032 119.282 18.06C119.254 18.144 119.212 18.172 119.156 18.144C119.128 18.116 119.044 18.158 118.904 18.27C118.876 18.298 118.848 18.354 118.82 18.438C118.82 18.522 118.806 18.592 118.778 18.648C118.722 18.732 118.666 18.802 118.61 18.858C118.554 18.886 118.526 18.914 118.526 18.942C118.498 19.054 118.442 19.124 118.358 19.152C118.302 19.152 118.246 19.18 118.19 19.236C118.162 19.236 118.148 19.25 118.148 19.278C118.148 19.53 118.12 19.642 118.064 19.614C118.008 19.586 117.952 19.614 117.896 19.698C117.84 19.81 117.77 19.866 117.686 19.866C117.518 19.922 117.448 19.964 117.476 19.992C117.532 20.02 117.574 20.048 117.602 20.076C117.658 20.076 117.616 20.118 117.476 20.202C117.42 20.23 117.364 20.314 117.308 20.454C117.252 20.566 117.196 20.65 117.14 20.706C117.056 20.762 116.972 20.804 116.888 20.832C116.804 20.86 116.734 20.916 116.678 21C116.426 21.252 116.216 21.378 116.048 21.378ZM123.249 21.378C123.081 21.378 122.997 21.28 122.997 21.084C122.997 20.944 123.039 20.776 123.123 20.58C123.347 20.104 123.599 19.432 123.879 18.564C124.187 17.696 124.565 16.954 125.013 16.338L127.113 12.012C126.945 12.012 126.777 12.054 126.609 12.138C126.469 12.222 126.399 12.292 126.399 12.348C126.399 12.46 126.245 12.572 125.937 12.684C125.629 12.796 125.461 12.866 125.433 12.894C125.013 13.006 124.621 13.132 124.257 13.272C123.977 13.58 123.697 13.888 123.417 14.196C123.165 14.504 122.927 14.812 122.703 15.12C122.675 15.148 122.647 15.162 122.619 15.162C122.367 15.442 122.157 15.652 121.989 15.792C121.821 15.932 121.639 16.058 121.443 16.17C121.331 16.254 121.219 16.282 121.107 16.254C120.967 16.198 120.953 16.142 121.065 16.086C121.205 16.03 121.429 15.834 121.737 15.498C122.045 15.162 122.283 14.91 122.451 14.742C122.591 14.658 122.633 14.658 122.577 14.742C122.549 14.826 122.591 14.812 122.703 14.7L123.753 13.356L123.795 13.314C123.655 13.23 123.585 13.006 123.585 12.642C123.585 12.362 123.641 12.138 123.753 11.97C123.753 11.942 123.781 11.928 123.837 11.928L124.719 11.676C124.803 11.676 124.859 11.662 124.887 11.634C124.943 11.578 124.999 11.508 125.055 11.424C125.139 11.312 125.237 11.172 125.349 11.004L125.853 10.332L126.189 9.86995C126.189 9.78595 126.245 9.68795 126.357 9.57595C126.497 9.43595 126.609 9.33795 126.693 9.28195C126.805 9.11395 126.875 8.98795 126.903 8.90395C126.959 8.79195 127.043 8.65195 127.155 8.48395C127.155 8.45595 127.197 8.44195 127.281 8.44195C127.365 8.41395 127.407 8.38595 127.407 8.35795C127.435 8.07795 127.477 7.95195 127.533 7.97995C127.617 7.97995 127.659 7.93795 127.659 7.85395C127.659 7.76995 127.715 7.69995 127.827 7.64395L128.037 7.39195C128.037 7.36395 128.079 7.30795 128.163 7.22395V7.18195C128.163 7.12595 128.163 7.05595 128.163 6.97195C128.163 6.88795 128.191 6.80395 128.247 6.71995C128.303 6.66395 128.345 6.63595 128.373 6.63595C128.401 6.63595 128.415 6.63595 128.415 6.63595C128.415 6.60795 128.401 6.59395 128.373 6.59395C128.373 6.56595 128.373 6.55195 128.373 6.55195C128.373 6.43995 128.429 6.36995 128.541 6.34195C128.653 6.31395 128.709 6.27195 128.709 6.21595C128.765 5.82395 129.101 5.52995 129.717 5.33395C130.333 5.13795 130.879 5.03995 131.355 5.03995C131.831 5.03995 132.069 5.10995 132.069 5.24995C132.069 5.30595 131.985 5.40395 131.817 5.54395C131.733 5.57195 131.593 5.69795 131.397 5.92195C131.201 6.11795 131.019 6.35595 130.851 6.63595L130.515 7.13995C130.487 7.19595 130.445 7.26595 130.389 7.34995C130.361 7.40595 130.319 7.46195 130.263 7.51795C130.067 7.85395 129.801 8.32995 129.465 8.94595C129.157 9.53395 128.821 10.192 128.457 10.92L129.549 10.794C129.633 10.794 129.661 10.808 129.633 10.836C129.633 10.864 129.675 10.864 129.759 10.836C129.899 10.836 129.997 10.822 130.053 10.794C130.109 10.738 130.207 10.696 130.347 10.668C130.571 10.64 130.823 10.626 131.103 10.626C131.411 10.598 131.649 10.584 131.817 10.584C131.929 10.584 132.069 10.584 132.237 10.584C132.405 10.584 132.531 10.598 132.615 10.626C132.671 10.626 132.685 10.654 132.657 10.71C132.657 10.738 132.671 10.752 132.699 10.752C132.755 10.752 132.797 10.738 132.825 10.71C132.881 10.682 132.937 10.668 132.993 10.668C133.021 10.64 133.063 10.64 133.119 10.668C133.203 10.668 133.259 10.668 133.287 10.668L133.707 10.794C133.875 10.822 133.959 10.92 133.959 11.088C133.987 11.256 133.917 11.312 133.749 11.256C133.637 11.2 133.539 11.172 133.455 11.172H132.405C132.209 11.172 132.027 11.172 131.859 11.172C131.691 11.172 131.523 11.186 131.355 11.214C131.299 11.242 131.271 11.214 131.271 11.13C131.299 11.046 131.285 11.004 131.229 11.004C131.201 11.004 131.159 11.046 131.103 11.13C131.047 11.186 131.005 11.214 130.977 11.214L130.767 11.34C130.319 11.452 129.843 11.578 129.339 11.718C128.835 11.83 128.345 11.956 127.869 12.096C127.449 12.964 127.043 13.79 126.651 14.574C126.287 15.33 126.007 15.918 125.811 16.338C125.755 16.506 125.727 16.604 125.727 16.632C125.727 16.856 125.853 16.968 126.105 16.968C126.273 16.968 126.441 16.926 126.609 16.842L127.029 16.674C127.701 16.058 128.401 15.54 129.129 15.12C129.157 15.12 129.171 15.12 129.171 15.12C129.199 15.092 129.227 15.078 129.255 15.078C129.339 15.078 129.395 15.134 129.423 15.246C129.451 15.33 129.423 15.4 129.339 15.456C128.527 15.904 127.771 16.478 127.071 17.178C127.043 17.234 127.015 17.29 126.987 17.346C126.959 17.402 126.917 17.458 126.861 17.514C126.805 17.57 126.721 17.668 126.609 17.808C126.525 17.948 126.483 18.032 126.483 18.06C126.455 18.144 126.413 18.172 126.357 18.144C126.329 18.116 126.245 18.158 126.105 18.27C126.077 18.298 126.049 18.354 126.021 18.438C126.021 18.522 126.007 18.592 125.979 18.648C125.923 18.732 125.867 18.802 125.811 18.858C125.755 18.886 125.727 18.914 125.727 18.942C125.699 19.054 125.643 19.124 125.559 19.152C125.503 19.152 125.447 19.18 125.391 19.236C125.363 19.236 125.349 19.25 125.349 19.278C125.349 19.53 125.321 19.642 125.265 19.614C125.209 19.586 125.167 19.614 125.139 19.698C125.027 19.81 124.943 19.866 124.887 19.866C124.719 19.922 124.649 19.964 124.677 19.992C124.733 20.02 124.775 20.048 124.803 20.076C124.859 20.076 124.817 20.118 124.677 20.202C124.621 20.23 124.565 20.314 124.509 20.454C124.453 20.566 124.397 20.65 124.341 20.706C124.257 20.762 124.173 20.804 124.089 20.832C124.005 20.86 123.935 20.916 123.879 21C123.627 21.252 123.417 21.378 123.249 21.378ZM125.643 11.508C125.755 11.48 125.853 11.452 125.937 11.424C126.049 11.396 126.161 11.354 126.273 11.298L127.533 11.088C127.869 10.416 128.163 9.81395 128.415 9.28195C128.667 8.72195 128.849 8.31595 128.961 8.06395C128.961 8.06395 128.933 8.04995 128.877 8.02195C128.849 7.96595 128.835 7.90995 128.835 7.85395C128.779 7.82595 128.709 7.78395 128.625 7.72795C128.569 7.67195 128.513 7.62995 128.457 7.60195L128.079 7.97995L127.617 8.60995C127.617 8.63795 127.575 8.66595 127.491 8.69395C127.435 8.69395 127.407 8.70795 127.407 8.73595C127.407 8.81995 127.365 8.90395 127.281 8.98795C127.225 9.07195 127.169 9.09995 127.113 9.07195L126.945 9.49195C126.945 9.57595 126.903 9.64595 126.819 9.70195L126.525 10.08C126.525 10.108 126.511 10.136 126.483 10.164C126.483 10.164 126.483 10.192 126.483 10.248C126.455 10.304 126.413 10.374 126.357 10.458C126.301 10.542 126.231 10.626 126.147 10.71C126.119 10.71 126.105 10.724 126.105 10.752C126.105 10.752 126.091 10.752 126.063 10.752L125.937 11.004C125.825 11.06 125.755 11.088 125.727 11.088L125.685 11.172C125.685 11.34 125.671 11.452 125.643 11.508ZM133.647 21.63C133.031 21.63 132.485 21.462 132.009 21.126C131.561 20.762 131.337 20.146 131.337 19.278C131.337 18.97 131.393 18.536 131.505 17.976C131.617 17.416 131.799 16.828 132.051 16.212C132.191 15.876 132.345 15.554 132.513 15.246C132.709 14.938 132.891 14.644 133.059 14.364C133.087 14.336 133.171 14.364 133.311 14.448C133.479 14.532 133.577 14.56 133.605 14.532C133.633 14.476 133.591 14.42 133.479 14.364C133.395 14.28 133.367 14.224 133.395 14.196C133.451 14.14 133.493 14.112 133.521 14.112C133.577 14.084 133.619 14.042 133.647 13.986C133.675 13.93 133.689 13.874 133.689 13.818C133.689 13.734 133.647 13.664 133.563 13.608C133.507 13.552 133.535 13.468 133.647 13.356C133.787 13.16 133.941 12.978 134.109 12.81C134.305 12.614 134.473 12.446 134.613 12.306C134.669 12.25 134.739 12.166 134.823 12.054C134.907 11.914 134.963 11.83 134.991 11.802L135.075 11.718C135.103 11.69 135.131 11.662 135.159 11.634C135.159 11.606 135.159 11.592 135.159 11.592C135.187 11.592 135.201 11.578 135.201 11.55C135.201 11.466 135.117 11.382 134.949 11.298C134.781 11.214 134.697 11.158 134.697 11.13C134.697 11.102 134.683 11.074 134.655 11.046C134.627 11.018 134.599 10.976 134.571 10.92C134.599 10.92 134.627 10.892 134.655 10.836C134.711 10.752 134.753 10.71 134.781 10.71C134.809 10.71 134.865 10.738 134.949 10.794C135.033 10.822 135.089 10.836 135.117 10.836C135.145 10.836 135.159 10.822 135.159 10.794C135.187 10.766 135.215 10.752 135.243 10.752C135.299 10.752 135.425 10.794 135.621 10.878C135.817 10.934 135.929 10.962 135.957 10.962C135.985 10.962 136.069 10.892 136.209 10.752C136.349 10.612 136.433 10.528 136.461 10.5C136.517 10.444 136.559 10.388 136.587 10.332C136.615 10.248 136.685 10.15 136.797 10.038H136.839C136.867 10.01 136.881 9.98195 136.881 9.95395C136.881 9.92595 136.881 9.91195 136.881 9.91195C136.937 9.85595 136.979 9.81395 137.007 9.78595C137.063 9.72995 137.105 9.68795 137.133 9.65995C137.161 9.63195 137.175 9.61795 137.175 9.61795C137.203 9.61795 137.217 9.61795 137.217 9.61795C137.245 9.56195 137.273 9.51995 137.301 9.49195C137.357 9.46395 137.399 9.43595 137.427 9.40795L137.511 9.23995C137.567 9.18395 137.763 9.05795 138.099 8.86195C138.435 8.66595 138.687 8.56795 138.855 8.56795H139.065C139.065 8.56795 139.065 8.58195 139.065 8.60995C139.065 8.60995 139.079 8.60995 139.107 8.60995C139.135 8.60995 139.163 8.60995 139.191 8.60995C139.219 8.58195 139.247 8.56795 139.275 8.56795C139.275 8.56795 139.317 8.60995 139.401 8.69395C139.429 8.72195 139.457 8.73595 139.485 8.73595C139.513 8.70795 139.541 8.69395 139.569 8.69395C139.597 8.72195 139.611 8.74995 139.611 8.77795C139.611 8.80595 139.625 8.81995 139.653 8.81995C139.709 8.81995 139.723 8.81995 139.695 8.81995C139.695 8.79195 139.709 8.77795 139.737 8.77795C139.765 8.77795 139.779 8.80595 139.779 8.86195C139.779 8.91795 139.793 8.97395 139.821 9.02995C139.793 9.11395 139.765 9.21195 139.737 9.32395C139.737 9.40795 139.723 9.47795 139.695 9.53395C139.443 9.86995 139.247 10.038 139.107 10.038C139.107 10.066 139.065 10.122 138.981 10.206C138.897 10.206 138.799 10.234 138.687 10.29C138.575 10.346 138.463 10.402 138.351 10.458V10.584C138.351 10.696 138.309 10.752 138.225 10.752C138.169 10.724 138.113 10.766 138.057 10.878V10.92C138.113 11.004 138.211 11.046 138.351 11.046L138.645 11.088C138.701 11.088 138.729 11.074 138.729 11.046C138.757 11.018 138.785 11.004 138.813 11.004C138.841 11.004 138.855 11.018 138.855 11.046C138.855 11.046 138.869 11.046 138.897 11.046C138.953 11.046 138.995 11.032 139.023 11.004C139.051 10.976 139.079 10.962 139.107 10.962L139.485 11.004C139.401 10.864 139.359 10.752 139.359 10.668C139.359 10.528 139.485 10.444 139.737 10.416C140.129 10.416 140.465 10.556 140.745 10.836C140.801 10.808 140.871 10.808 140.955 10.836C141.039 10.864 141.123 10.864 141.207 10.836L141.417 10.71L141.459 10.752C141.571 10.696 141.641 10.668 141.669 10.668C141.725 10.668 141.739 10.682 141.711 10.71C141.711 10.71 141.725 10.71 141.753 10.71C141.753 10.71 141.781 10.682 141.837 10.626C141.865 10.626 141.893 10.64 141.921 10.668C141.977 10.668 142.019 10.654 142.047 10.626L142.173 10.5H142.677L142.719 10.458C142.775 10.43 142.845 10.402 142.929 10.374C143.041 10.318 143.139 10.29 143.223 10.29C143.223 10.262 143.251 10.248 143.307 10.248C143.363 10.22 143.405 10.206 143.433 10.206H143.517C143.657 10.206 143.727 10.248 143.727 10.332C143.727 10.416 143.685 10.486 143.601 10.542C143.573 10.57 143.531 10.584 143.475 10.584C143.419 10.556 143.363 10.556 143.307 10.584C143.195 10.696 143.111 10.752 143.055 10.752C143.027 10.752 143.013 10.752 143.013 10.752C143.013 10.724 142.999 10.71 142.971 10.71C142.943 10.71 142.887 10.752 142.803 10.836L142.509 10.878H142.467C142.411 10.878 142.383 10.906 142.383 10.962C142.271 10.962 142.159 10.976 142.047 11.004C141.935 11.004 141.823 11.018 141.711 11.046L141.669 11.088C141.641 11.088 141.613 11.102 141.585 11.13C141.557 11.13 141.515 11.13 141.459 11.13C141.403 11.158 141.249 11.172 140.997 11.172C141.165 11.396 141.277 11.606 141.333 11.802C141.389 11.942 141.431 12.166 141.459 12.474C141.515 12.754 141.529 12.964 141.501 13.104C141.501 13.188 141.473 13.216 141.417 13.188C141.361 13.132 141.333 13.132 141.333 13.188C141.333 13.272 141.361 13.328 141.417 13.356C141.501 13.356 141.543 13.426 141.543 13.566C141.543 13.65 141.529 13.762 141.501 13.902C141.473 14.014 141.445 14.14 141.417 14.28C141.389 14.448 141.347 14.63 141.291 14.826C141.263 14.994 141.193 15.162 141.081 15.33L140.955 15.54V15.792C140.955 16.016 140.885 16.17 140.745 16.254C140.633 16.338 140.549 16.436 140.493 16.548C140.437 16.716 140.395 16.828 140.367 16.884C140.367 16.94 140.311 17.052 140.199 17.22C139.835 17.78 139.401 18.312 138.897 18.816C138.393 19.32 137.903 19.782 137.427 20.202C137.007 20.566 136.433 20.902 135.705 21.21C135.005 21.49 134.319 21.63 133.647 21.63ZM134.067 20.874C134.151 20.874 134.319 20.86 134.571 20.832C134.823 20.776 135.089 20.65 135.369 20.454C135.425 20.426 135.481 20.44 135.537 20.496C135.593 20.552 135.649 20.566 135.705 20.538C135.845 20.482 135.901 20.44 135.873 20.412C135.845 20.384 135.887 20.356 135.999 20.328H136.041C136.209 20.328 136.279 20.314 136.251 20.286C136.251 20.23 136.265 20.16 136.293 20.076C136.293 19.992 136.335 19.922 136.419 19.866C136.503 19.81 136.573 19.768 136.629 19.74C136.937 19.488 137.315 19.068 137.763 18.48C138.211 17.864 138.659 17.248 139.107 16.632C139.135 16.576 139.177 16.562 139.233 16.59C139.289 16.618 139.331 16.618 139.359 16.59C139.387 16.562 139.401 16.478 139.401 16.338C139.401 16.254 139.443 16.128 139.527 15.96C139.611 15.764 139.695 15.61 139.779 15.498C139.807 15.414 139.863 15.26 139.947 15.036C140.031 14.784 140.101 14.56 140.157 14.364C140.241 14.14 140.255 14.028 140.199 14.028C140.143 14 140.115 13.972 140.115 13.944C140.115 13.888 140.199 13.832 140.367 13.776C140.535 13.72 140.521 13.678 140.325 13.65C140.269 13.622 140.283 13.566 140.367 13.482C140.451 13.398 140.409 13.342 140.241 13.314C140.101 13.286 140.045 13.244 140.073 13.188C140.129 13.132 140.171 13.09 140.199 13.062C140.283 12.978 140.325 12.894 140.325 12.81C140.325 12.558 140.255 12.306 140.115 12.054C140.003 11.802 139.877 11.578 139.737 11.382C139.569 11.494 139.485 11.55 139.485 11.55C139.457 11.55 139.443 11.55 139.443 11.55C139.443 11.522 139.415 11.508 139.359 11.508C139.331 11.508 139.317 11.508 139.317 11.508C139.317 11.48 139.303 11.466 139.275 11.466C139.247 11.466 139.219 11.48 139.191 11.508C139.163 11.536 139.149 11.55 139.149 11.55C139.121 11.578 139.065 11.592 138.981 11.592C138.925 11.592 138.883 11.592 138.855 11.592C138.827 11.592 138.799 11.578 138.771 11.55C138.771 11.522 138.757 11.508 138.729 11.508C138.701 11.508 138.659 11.536 138.603 11.592C138.575 11.648 138.533 11.676 138.477 11.676C138.449 11.676 138.435 11.662 138.435 11.634C138.435 11.606 138.407 11.592 138.351 11.592C138.323 11.592 138.295 11.606 138.267 11.634C138.267 11.662 138.253 11.676 138.225 11.676C138.197 11.676 138.141 11.634 138.057 11.55H138.015C138.015 11.718 137.973 11.802 137.889 11.802C137.861 11.802 137.819 11.774 137.763 11.718C137.455 11.914 136.937 12.376 136.209 13.104C135.481 13.804 134.837 14.616 134.277 15.54C134.165 15.764 134.025 16.03 133.857 16.338C133.717 16.646 133.591 16.996 133.479 17.388C133.451 17.556 133.367 17.682 133.227 17.766C133.115 17.85 133.031 17.948 132.975 18.06C132.947 18.172 132.961 18.242 133.017 18.27C133.073 18.298 133.115 18.34 133.143 18.396C133.143 18.508 133.115 18.662 133.059 18.858C133.031 19.054 133.017 19.236 133.017 19.404C133.017 19.936 133.115 20.314 133.311 20.538C133.535 20.762 133.787 20.874 134.067 20.874ZM144.455 21.168C144.175 21.168 143.881 21.112 143.573 21C143.265 20.86 143.153 20.706 143.237 20.538C143.349 20.314 143.475 20.09 143.615 19.866C143.783 19.614 143.937 19.348 144.077 19.068L144.539 18.186C144.595 18.046 144.651 17.948 144.707 17.892C144.791 17.808 144.861 17.71 144.917 17.598C144.945 17.57 144.959 17.5 144.959 17.388C144.959 17.248 145.015 17.094 145.127 16.926C145.267 16.73 145.365 16.548 145.421 16.38C145.449 16.352 145.477 16.436 145.505 16.632C145.533 16.828 145.603 16.814 145.715 16.59C145.743 16.562 145.729 16.52 145.673 16.464C145.645 16.408 145.631 16.352 145.631 16.296C145.631 16.24 145.645 16.212 145.673 16.212C145.729 16.184 145.757 16.156 145.757 16.128C145.785 16.044 145.757 16.016 145.673 16.044C145.617 16.044 145.589 16.03 145.589 16.002C145.645 15.918 145.701 15.862 145.757 15.834C145.841 15.806 145.897 15.764 145.925 15.708C145.925 15.652 145.897 15.624 145.841 15.624C145.813 15.596 145.813 15.568 145.841 15.54C145.981 15.148 146.135 14.686 146.303 14.154C146.471 13.622 146.597 13.132 146.681 12.684C146.681 12.684 146.653 12.67 146.597 12.642C146.541 12.586 146.513 12.53 146.513 12.474L146.219 12.264C145.883 12.572 145.519 12.838 145.127 13.062C145.099 13.09 145.043 13.104 144.959 13.104C144.847 13.104 144.777 13.048 144.749 12.936C144.721 12.824 144.763 12.726 144.875 12.642C145.015 12.558 145.127 12.502 145.211 12.474C145.295 12.418 145.393 12.334 145.505 12.222C145.561 12.166 145.589 12.11 145.589 12.054C145.617 11.998 145.645 11.942 145.673 11.886L145.841 11.676C145.841 11.536 145.869 11.424 145.925 11.34C145.981 11.284 146.023 11.256 146.051 11.256C146.079 11.256 146.093 11.256 146.093 11.256V11.172C146.093 11.06 146.135 10.99 146.219 10.962C146.331 10.934 146.387 10.892 146.387 10.836C146.443 10.444 146.779 10.15 147.395 9.95395C148.011 9.75795 148.557 9.65995 149.033 9.65995C149.509 9.65995 149.747 9.72995 149.747 9.86995C149.747 9.95395 149.663 10.052 149.495 10.164C149.411 10.22 149.271 10.346 149.075 10.542C148.879 10.738 148.697 10.976 148.529 11.256L148.235 11.76L147.941 12.138C147.745 12.586 147.465 13.272 147.101 14.196C146.737 15.12 146.359 16.282 145.967 17.682C146.051 17.57 146.247 17.332 146.555 16.968C146.863 16.604 147.227 16.184 147.647 15.708C148.067 15.232 148.473 14.784 148.865 14.364C149.257 13.916 149.579 13.566 149.831 13.314L150.041 13.188C150.097 13.132 150.153 13.062 150.209 12.978C150.293 12.866 150.363 12.782 150.419 12.726C150.447 12.698 150.461 12.754 150.461 12.894C150.489 13.006 150.517 13.048 150.545 13.02C150.657 12.936 150.713 12.81 150.713 12.642C150.741 12.474 150.811 12.362 150.923 12.306C151.231 12.054 151.651 11.704 152.183 11.256C152.743 10.78 153.317 10.5 153.905 10.416C153.961 10.36 154.045 10.346 154.157 10.374C154.297 10.374 154.395 10.36 154.451 10.332C154.507 10.332 154.549 10.318 154.577 10.29C154.605 10.262 154.675 10.248 154.787 10.248C154.843 10.248 154.955 10.29 155.123 10.374C155.319 10.458 155.431 10.57 155.459 10.71C155.627 10.822 155.711 10.99 155.711 11.214C155.711 11.606 155.501 11.9 155.081 12.096C154.941 12.236 154.787 12.376 154.619 12.516C154.451 12.628 154.283 12.754 154.115 12.894C154.059 12.95 154.017 12.978 153.989 12.978C153.793 13.146 153.625 13.328 153.485 13.524C153.345 13.72 153.275 13.972 153.275 14.28C153.275 14.308 153.303 14.35 153.359 14.406C153.415 14.434 153.429 14.462 153.401 14.49C153.485 14.574 153.611 14.63 153.779 14.658C153.947 14.658 154.115 14.658 154.283 14.658C154.563 14.658 154.983 14.546 155.543 14.322H155.627C155.655 14.322 155.669 14.336 155.669 14.364C155.669 14.42 155.613 14.518 155.501 14.658C155.389 14.77 155.263 14.854 155.123 14.91C154.815 15.022 154.493 15.092 154.157 15.12C153.821 15.12 153.583 15.12 153.443 15.12C152.939 15.12 152.617 15.022 152.477 14.826C152.365 14.63 152.253 14.392 152.141 14.112V13.902L152.351 13.692C152.323 13.608 152.281 13.524 152.225 13.44C152.169 13.356 152.141 13.258 152.141 13.146C152.141 12.866 152.253 12.544 152.477 12.18C152.169 12.264 151.777 12.502 151.301 12.894C150.853 13.258 150.391 13.692 149.915 14.196C149.439 14.672 149.005 15.148 148.613 15.624C148.221 16.072 147.913 16.436 147.689 16.716C147.605 16.828 147.507 16.898 147.395 16.926C147.311 16.926 147.241 16.968 147.185 17.052C147.157 17.08 147.185 17.094 147.269 17.094C147.381 17.094 147.423 17.108 147.395 17.136C147.031 17.696 146.639 18.312 146.219 18.984C145.827 19.656 145.435 20.314 145.043 20.958C144.959 21.098 144.763 21.168 144.455 21.168ZM158.983 21.42C158.955 21.42 158.913 21.392 158.857 21.336C158.801 21.308 158.759 21.294 158.731 21.294C158.619 21.322 158.521 21.336 158.437 21.336C158.353 21.336 158.269 21.336 158.185 21.336C158.157 21.336 158.129 21.322 158.101 21.294C158.101 21.266 158.087 21.252 158.059 21.252C158.031 21.252 158.017 21.252 158.017 21.252C158.045 21.28 158.045 21.294 158.017 21.294C158.017 21.294 157.989 21.28 157.933 21.252C157.877 21.224 157.835 21.21 157.807 21.21L157.765 21.168C157.709 21.168 157.667 21.154 157.639 21.126C157.639 21.098 157.625 21.084 157.597 21.084L157.555 21.126L157.513 21.084C157.457 21.056 157.373 21.028 157.261 21C157.177 20.944 157.107 20.902 157.051 20.874C156.995 20.874 156.925 20.832 156.841 20.748H156.757C156.701 20.664 156.603 20.608 156.463 20.58C156.463 20.552 156.449 20.524 156.421 20.496H156.379C156.323 20.412 156.281 20.384 156.253 20.412C156.225 20.356 156.183 20.314 156.127 20.286C156.099 20.23 156.057 20.188 156.001 20.16C156.001 20.048 155.973 19.992 155.917 19.992C155.917 19.936 155.861 19.852 155.749 19.74C155.665 19.628 155.609 19.53 155.581 19.446L155.539 19.404C155.427 19.292 155.343 19.11 155.287 18.858C155.259 18.746 155.231 18.704 155.203 18.732C155.203 18.76 155.189 18.69 155.161 18.522C155.161 18.494 155.161 18.452 155.161 18.396C155.189 18.312 155.189 18.256 155.161 18.228C155.161 18.2 155.147 18.186 155.119 18.186C155.119 18.158 155.119 18.13 155.119 18.102C155.091 18.074 155.077 18.06 155.077 18.06C155.105 18.032 155.119 18.018 155.119 18.018C155.119 17.962 155.105 17.934 155.077 17.934C155.077 17.906 155.077 17.878 155.077 17.85V17.766C155.077 17.626 155.105 17.528 155.161 17.472C155.161 17.416 155.175 17.374 155.203 17.346C155.231 17.318 155.245 17.29 155.245 17.262C155.245 17.206 155.273 17.178 155.329 17.178C155.385 17.178 155.413 17.164 155.413 17.136C155.413 17.08 155.427 17.052 155.455 17.052C155.511 17.024 155.553 16.996 155.581 16.968C155.581 16.94 155.595 16.912 155.623 16.884C155.679 16.856 155.707 16.828 155.707 16.8C155.847 16.716 156.001 16.674 156.169 16.674C156.505 16.674 156.673 16.758 156.673 16.926C156.673 16.982 156.589 17.08 156.421 17.22C156.393 17.304 156.379 17.36 156.379 17.388C156.407 17.388 156.393 17.416 156.337 17.472C156.365 17.556 156.379 17.668 156.379 17.808C156.351 17.808 156.337 17.85 156.337 17.934C156.365 17.99 156.379 18.018 156.379 18.018C156.379 18.046 156.393 18.13 156.421 18.27C156.477 18.41 156.519 18.494 156.547 18.522C156.547 18.522 156.575 18.592 156.631 18.732C156.687 18.844 156.715 18.914 156.715 18.942V19.026C156.771 19.11 156.799 19.166 156.799 19.194C156.827 19.194 156.939 19.25 157.135 19.362C157.163 19.39 157.219 19.404 157.303 19.404C157.443 19.488 157.541 19.558 157.597 19.614C157.681 19.67 157.877 19.726 158.185 19.782C158.297 19.81 158.339 19.838 158.311 19.866C158.311 19.866 158.367 19.866 158.479 19.866C158.479 19.866 158.479 19.88 158.479 19.908C158.479 19.908 158.493 19.908 158.521 19.908C158.577 19.88 158.633 19.88 158.689 19.908C158.745 19.908 158.801 19.894 158.857 19.866H159.025C159.221 19.866 159.431 19.838 159.655 19.782L160.285 19.614C160.481 19.586 160.663 19.53 160.831 19.446C160.999 19.362 161.153 19.278 161.293 19.194C161.321 19.194 161.405 19.152 161.545 19.068C161.685 18.956 161.853 18.844 162.049 18.732C162.021 18.648 162.007 18.536 162.007 18.396C162.007 18.312 162.049 18.27 162.133 18.27C162.217 18.242 162.273 18.2 162.301 18.144C162.217 18.088 162.105 18.06 161.965 18.06C161.853 18.06 161.811 18.018 161.839 17.934C161.727 17.318 161.559 16.758 161.335 16.254C161.139 15.75 160.901 15.19 160.621 14.574C160.593 14.49 160.537 14.35 160.453 14.154C160.369 13.958 160.313 13.804 160.285 13.692C160.285 13.664 160.313 13.664 160.369 13.692C160.425 13.692 160.439 13.678 160.411 13.65C160.383 13.51 160.355 13.37 160.327 13.23C160.327 13.09 160.313 12.964 160.285 12.852C160.257 12.796 160.285 12.754 160.369 12.726C160.453 12.698 160.481 12.656 160.453 12.6C160.425 12.544 160.369 12.53 160.285 12.558C160.201 12.586 160.145 12.572 160.117 12.516L159.991 12.012C159.991 11.872 159.963 11.788 159.907 11.76C159.879 11.732 159.907 11.676 159.991 11.592C160.047 11.564 160.075 11.522 160.075 11.466C160.075 11.382 160.089 11.326 160.117 11.298C160.257 11.214 160.313 11.116 160.285 11.004C160.257 10.864 160.285 10.738 160.369 10.626C160.453 10.514 160.523 10.416 160.579 10.332C160.635 10.22 160.719 10.15 160.831 10.122C160.915 10.066 160.943 10.08 160.915 10.164C160.887 10.248 160.887 10.29 160.915 10.29C161.055 10.29 161.111 10.22 161.083 10.08C161.055 9.93995 161.097 9.81395 161.209 9.70195C161.405 9.53395 161.699 9.39395 162.091 9.28195C162.483 9.16995 162.777 9.09995 162.973 9.07195C163.029 9.07195 163.071 9.07195 163.099 9.07195C163.155 9.04395 163.197 9.02995 163.225 9.02995C163.365 9.02995 163.505 9.04395 163.645 9.07195C163.813 9.09995 163.967 9.12795 164.107 9.15595C164.219 9.18395 164.387 9.29595 164.611 9.49195C164.835 9.65995 165.003 9.70195 165.115 9.61795C165.367 9.39395 165.633 9.19795 165.913 9.02995C166.221 8.86195 166.417 8.79195 166.501 8.81995C166.725 8.84795 166.921 8.91795 167.089 9.02995C167.257 9.11395 167.313 9.39395 167.257 9.86995C167.229 10.038 167.159 10.178 167.047 10.29C166.963 10.374 166.879 10.486 166.795 10.626L166.501 11.046C166.389 11.242 166.249 11.438 166.081 11.634C165.941 11.83 165.815 11.956 165.703 12.012C165.591 12.068 165.479 12.166 165.367 12.306C165.283 12.418 165.171 12.53 165.031 12.642C164.891 12.754 164.737 12.838 164.569 12.894C164.429 12.922 164.331 12.95 164.275 12.978C164.191 13.006 164.065 13.02 163.897 13.02C163.757 12.992 163.715 12.936 163.771 12.852C163.827 12.824 163.841 12.796 163.813 12.768C163.785 12.712 163.771 12.67 163.771 12.642C163.771 12.586 163.799 12.544 163.855 12.516C163.939 12.488 163.995 12.446 164.023 12.39C164.051 12.362 164.121 12.264 164.233 12.096C164.373 11.928 164.429 11.83 164.401 11.802C164.401 11.718 164.429 11.648 164.485 11.592C164.485 11.536 164.485 11.494 164.485 11.466C164.485 11.41 164.513 11.368 164.569 11.34C164.681 11.312 164.737 11.27 164.737 11.214V10.71C164.737 10.598 164.723 10.486 164.695 10.374C164.695 10.262 164.667 10.164 164.611 10.08C164.387 9.79995 164.023 9.65995 163.519 9.65995C163.155 9.65995 162.805 9.74395 162.469 9.91195C162.105 10.08 161.797 10.36 161.545 10.752C161.349 11.032 161.251 11.326 161.251 11.634C161.251 11.858 161.293 12.082 161.377 12.306C161.489 12.53 161.587 12.74 161.671 12.936C161.755 13.132 161.867 13.37 162.007 13.65C162.175 13.93 162.301 14.154 162.385 14.322C162.525 14.546 162.679 14.812 162.847 15.12C163.015 15.4 163.141 15.666 163.225 15.918C163.253 15.946 163.225 15.974 163.141 16.002C163.085 16.002 163.071 16.03 163.099 16.086C163.127 16.142 163.169 16.17 163.225 16.17C163.281 16.17 163.323 16.198 163.351 16.254C163.407 16.338 163.407 16.408 163.351 16.464C163.323 16.52 163.323 16.604 163.351 16.716C163.351 16.744 163.379 16.772 163.435 16.8C163.491 16.828 163.519 16.856 163.519 16.884C163.659 17.248 163.729 17.542 163.729 17.766C163.981 17.626 164.261 17.458 164.569 17.262C164.877 17.066 165.045 16.884 165.073 16.716C165.101 16.66 165.143 16.646 165.199 16.674C165.283 16.674 165.325 16.702 165.325 16.758C165.297 16.954 165.059 17.22 164.611 17.556C164.191 17.892 163.869 18.13 163.645 18.27C163.673 18.298 163.659 18.368 163.603 18.48C163.547 18.592 163.533 18.676 163.561 18.732C163.561 18.76 163.547 18.802 163.519 18.858C163.491 18.886 163.463 18.928 163.435 18.984C163.435 19.096 163.407 19.18 163.351 19.236V19.32L163.225 19.404C163.197 19.432 163.155 19.502 163.099 19.614C163.071 19.698 163.029 19.768 162.973 19.824H162.847C162.791 19.88 162.763 19.95 162.763 20.034C162.707 20.118 162.581 20.216 162.385 20.328C162.189 20.412 162.063 20.496 162.007 20.58C162.007 20.58 161.993 20.58 161.965 20.58C161.937 20.58 161.895 20.608 161.839 20.664H161.713C161.685 20.664 161.657 20.692 161.629 20.748C161.601 20.776 161.573 20.804 161.545 20.832C161.461 20.832 161.419 20.86 161.419 20.916C161.307 20.916 161.223 20.93 161.167 20.958L160.747 21.042C160.635 21.154 160.537 21.21 160.453 21.21L160.411 21.168C160.355 21.224 160.313 21.252 160.285 21.252H160.117C160.089 21.252 160.061 21.266 160.033 21.294C160.005 21.322 159.977 21.336 159.949 21.336H159.865C159.837 21.336 159.809 21.336 159.781 21.336C159.781 21.364 159.753 21.378 159.697 21.378C159.613 21.378 159.487 21.378 159.319 21.378C159.179 21.378 159.067 21.392 158.983 21.42ZM158.563 21.042C158.563 21.042 158.591 21.042 158.647 21.042C158.731 21.014 158.787 21 158.815 21C158.955 21 159.081 21.014 159.193 21.042C159.305 21.042 159.417 21.042 159.529 21.042C159.585 21.042 159.613 21.014 159.613 20.958H159.697C159.781 20.874 159.823 20.86 159.823 20.916C159.851 20.972 159.893 20.972 159.949 20.916C160.005 20.916 160.033 20.902 160.033 20.874L160.201 20.79C160.229 20.79 160.243 20.79 160.243 20.79C160.243 20.762 160.257 20.748 160.285 20.748H160.369C160.425 20.748 160.481 20.72 160.537 20.664C160.593 20.608 160.621 20.58 160.621 20.58C160.621 20.58 160.663 20.538 160.747 20.454C160.747 20.454 160.761 20.454 160.789 20.454C160.817 20.426 160.845 20.412 160.873 20.412C160.929 20.356 160.985 20.328 161.041 20.328C161.041 20.3 161.069 20.272 161.125 20.244C161.181 20.188 161.209 20.16 161.209 20.16C161.237 20.132 161.265 20.118 161.293 20.118C161.349 20.09 161.377 20.062 161.377 20.034C161.433 20.034 161.545 19.936 161.713 19.74C161.881 19.544 161.993 19.306 162.049 19.026C162.049 18.97 161.965 19.012 161.797 19.152C161.629 19.264 161.545 19.32 161.545 19.32C161.461 19.348 161.377 19.404 161.293 19.488C161.209 19.544 161.139 19.572 161.083 19.572C161.055 19.572 161.013 19.6 160.957 19.656C160.929 19.684 160.901 19.698 160.873 19.698C160.845 19.698 160.831 19.712 160.831 19.74C160.831 19.74 160.803 19.726 160.747 19.698C160.719 19.754 160.635 19.81 160.495 19.866C160.355 19.922 160.257 19.95 160.201 19.95H160.075L160.033 19.992C160.033 19.992 160.019 20.006 159.991 20.034C159.963 20.034 159.935 20.034 159.907 20.034L159.613 20.076H159.571C159.543 20.076 159.515 20.09 159.487 20.118C159.375 20.118 159.249 20.132 159.109 20.16C158.969 20.188 158.885 20.202 158.857 20.202H158.815C158.815 20.174 158.801 20.16 158.773 20.16V20.202H158.563C158.479 20.202 158.381 20.188 158.269 20.16C158.185 20.104 158.115 20.076 158.059 20.076C158.031 20.076 158.017 20.09 158.017 20.118C158.017 20.118 158.003 20.118 157.975 20.118H157.891C157.863 20.118 157.849 20.104 157.849 20.076H157.639C157.639 19.992 157.611 19.978 157.555 20.034H157.513C157.401 20.034 157.303 19.992 157.219 19.908C157.163 19.824 157.065 19.782 156.925 19.782L156.799 19.656C156.799 19.684 156.785 19.712 156.757 19.74C156.757 19.74 156.757 19.754 156.757 19.782C156.757 19.782 156.771 19.81 156.799 19.866C156.855 19.894 156.883 19.922 156.883 19.95L156.967 20.118L157.135 20.328L157.219 20.412C157.247 20.44 157.261 20.454 157.261 20.454C157.289 20.454 157.317 20.482 157.345 20.538C157.401 20.538 157.429 20.58 157.429 20.664C157.905 20.916 158.283 21.042 158.563 21.042Z" fill="#103255"/>
</svg>
