<svg width="178" height="27" viewBox="0 0 178 27" fill="none" xmlns="http://www.w3.org/2000/svg">
<path d="M8.10596 26.3339C6.87396 26.3339 5.68396 25.8019 4.53596 24.7379C4.36796 24.6819 4.22796 24.5559 4.11596 24.3599C4.00396 24.1919 3.89196 24.0519 3.77996 23.9399C3.58396 23.8839 3.45796 23.7999 3.40196 23.6879C3.34596 23.5759 3.28996 23.4359 3.23396 23.2679C3.23396 23.2399 3.20596 23.1979 3.14996 23.1419C3.12196 23.1139 3.09396 23.0859 3.06596 23.0579C3.03796 23.0299 3.00996 23.0019 2.98196 22.9739C2.95396 22.9739 2.93996 22.9739 2.93996 22.9739C2.96796 22.9459 2.98196 22.9319 2.98196 22.9319C2.86996 22.7079 2.79996 22.5539 2.77196 22.4699C2.74396 22.3579 2.63196 22.2179 2.43596 22.0499C2.37996 21.9939 2.32396 21.9099 2.26796 21.7979C2.23996 21.6579 2.21196 21.5459 2.18396 21.4619C1.87596 20.7339 1.59596 19.9919 1.34396 19.2359C1.11996 18.4519 1.00796 17.6539 1.00796 16.8419C1.00796 16.5619 1.09196 16.3519 1.25996 16.2119C1.42796 16.0719 1.60996 16.0019 1.80596 16.0019C2.16996 16.0019 2.40796 16.1839 2.51996 16.5479C2.57596 16.6599 2.63196 16.7859 2.68796 16.9259C2.77196 17.0379 2.81396 17.1499 2.81396 17.2619V17.6819C2.81396 17.8499 2.85596 17.8919 2.93996 17.8079C3.05196 17.6959 3.12196 17.7099 3.14996 17.8499C3.20596 18.0459 3.24796 18.1719 3.27596 18.2279C3.30396 18.2559 3.41596 18.3259 3.61196 18.4379C3.66796 18.5499 3.73796 18.6619 3.82196 18.7739C3.90596 18.8859 3.98996 18.9979 4.07396 19.1099V19.1939C4.07396 19.3619 4.12996 19.4879 4.24196 19.5719C4.35396 19.6279 4.47996 19.6979 4.61996 19.7819L5.16596 20.3699C5.13796 20.4259 5.12396 20.4819 5.12396 20.5379C5.12396 20.7059 5.20796 20.8179 5.37596 20.8739C5.57196 20.9299 5.73996 20.9859 5.87996 21.0419C5.90796 21.0699 6.06196 21.2099 6.34196 21.4619C6.64996 21.6859 6.85996 21.8259 6.97196 21.8819C7.11196 21.9659 7.26596 22.0639 7.43396 22.1759C7.60196 22.2599 7.76996 22.3299 7.93796 22.3859C7.99396 22.3859 8.04996 22.4139 8.10596 22.4699C8.60996 22.6659 9.07196 22.7639 9.49196 22.7639C9.88396 22.7639 10.332 22.6799 10.836 22.5119C10.92 22.4839 10.99 22.4699 11.046 22.4699C11.13 22.4419 11.186 22.4279 11.214 22.4279C11.298 22.4279 11.34 22.4559 11.34 22.5119C11.34 22.6519 11.214 22.7919 10.962 22.9319C10.962 22.9879 10.92 23.0159 10.836 23.0159C10.724 23.0439 10.612 23.0859 10.5 23.1419C10.388 23.1979 10.276 23.2119 10.164 23.1839C10.024 23.1839 9.91196 23.1699 9.82796 23.1419C9.74396 23.1139 9.63196 23.1559 9.49196 23.2679C9.12796 23.2399 8.72196 23.1559 8.27396 23.0159C7.82596 22.8759 7.44796 22.7219 7.13996 22.5539C7.11196 22.3579 6.98596 22.2599 6.76196 22.2599C6.53796 22.2319 6.35596 22.1619 6.21596 22.0499C6.10396 21.9099 6.00596 21.7559 5.92196 21.5879C5.86596 21.4199 5.72596 21.4059 5.50196 21.5459C5.38996 21.4339 5.29196 21.3499 5.20796 21.2939C5.12396 21.2099 4.99796 21.1679 4.82996 21.1679C4.77396 21.1119 4.68996 21.0559 4.57796 20.9999C4.49396 20.9439 4.46596 20.8599 4.49396 20.7479C4.38196 20.6639 4.15796 20.5239 3.82196 20.3279C3.51396 20.1039 3.33196 19.9639 3.27596 19.9079C3.13596 19.7399 3.00996 19.5999 2.89796 19.4879C2.78596 19.3759 2.63196 19.2779 2.43596 19.1939L2.30996 19.1099C2.67396 20.2019 3.10796 21.2659 3.61196 22.3019C4.14396 23.3379 4.91396 24.1779 5.92196 24.8219C6.39796 25.1019 6.83196 25.3259 7.22396 25.4939C7.64396 25.6899 8.04996 25.7879 8.44196 25.7879C9.16996 25.7879 9.93996 25.4239 10.752 24.6959C11.452 24.0519 12.082 23.2819 12.642 22.3859C13.202 21.4619 13.706 20.4959 14.154 19.4879C14.602 18.4799 14.994 17.5419 15.33 16.6739C15.386 16.6179 15.428 16.5759 15.456 16.5479C15.484 16.5199 15.512 16.4919 15.54 16.4639C15.596 16.2959 15.638 16.0999 15.666 15.8759C15.722 15.6519 15.778 15.4419 15.834 15.2459L14.448 15.4979C14.084 15.5539 13.902 15.5679 13.902 15.5399C13.902 15.4839 13.944 15.4279 14.028 15.3719C14.112 15.2879 14.07 15.2599 13.902 15.2879H13.734C13.51 15.2879 13.3 15.3299 13.104 15.4139C12.908 15.4979 12.81 15.5679 12.81 15.6239C12.81 15.6799 12.684 15.7499 12.432 15.8339C12.208 15.9179 11.97 15.9879 11.718 16.0439C11.466 16.0999 11.326 16.1279 11.298 16.1279C10.85 16.2119 10.43 16.2959 10.038 16.3799C9.64596 16.4359 9.29596 16.4919 8.98796 16.5479H8.94596C8.83396 16.5479 8.73596 16.4639 8.65196 16.2959C8.56796 16.1279 8.52596 15.9459 8.52596 15.7499C8.58196 15.4139 8.67996 15.1759 8.81996 15.0359C8.87596 14.9799 8.93196 14.9519 8.98796 14.9519L10.332 14.7419C10.64 14.6859 11.018 14.6439 11.466 14.6159C11.942 14.5879 12.348 14.5179 12.684 14.4059L14.784 14.2379L16.422 14.0699C16.45 14.0139 16.464 13.9159 16.464 13.7759L16.548 13.5659C16.604 13.5379 16.59 13.4959 16.506 13.4399C16.422 13.3839 16.478 13.3419 16.674 13.3139C16.87 13.0059 16.982 12.6979 17.01 12.3899C17.066 12.0539 17.15 11.8159 17.262 11.6759C17.346 11.5359 17.43 11.4099 17.514 11.2979C17.598 11.1859 17.612 11.0459 17.556 10.8779C17.584 10.7659 17.668 10.4999 17.808 10.0799C17.976 9.63194 18.158 9.14194 18.354 8.60994C18.55 8.07794 18.718 7.61594 18.858 7.22394C18.998 6.80394 19.068 6.56594 19.068 6.50994L19.488 5.29194C18.704 5.31994 17.906 5.36194 17.094 5.41794C16.282 5.47394 15.484 5.59994 14.7 5.79594C14.728 5.76794 14.714 5.73994 14.658 5.71194C14.602 5.65594 14.56 5.62794 14.532 5.62794L14.49 5.58594C14.378 5.55794 14.35 5.58594 14.406 5.66994C14.49 5.72594 14.476 5.78194 14.364 5.83794C14.112 5.86594 13.818 5.93594 13.482 6.04794C13.174 6.13194 12.894 6.17394 12.642 6.17394C12.53 6.20194 12.404 6.21594 12.264 6.21594C12.124 6.18794 11.984 6.17394 11.844 6.17394C11.424 6.20194 11.004 6.31394 10.584 6.50994C10.192 6.70594 9.78596 6.87394 9.36596 7.01394L8.60996 7.22394C8.30196 7.36394 7.96596 7.46194 7.60196 7.51794C7.23796 7.57394 6.90196 7.67194 6.59396 7.81194L6.63596 7.85394C6.52396 7.93794 6.38396 7.99394 6.21596 8.02194C6.04796 8.04994 5.89396 8.09194 5.75396 8.14794C5.41796 8.25994 5.06796 8.39994 4.70396 8.56794C4.36796 8.70794 4.01796 8.83394 3.65396 8.94594C3.45796 9.00194 3.26196 9.05794 3.06596 9.11394C2.89796 9.14194 2.70196 9.19794 2.47796 9.28194C2.36596 9.30994 2.26796 9.33794 2.18396 9.36594C2.09996 9.36594 2.00196 9.36594 1.88996 9.36594C1.63796 9.36594 1.41396 9.30994 1.21796 9.19794C1.10596 9.14194 0.937957 8.98794 0.713957 8.73594C0.517957 8.45594 0.349957 8.17594 0.209957 7.89594C0.0699572 7.58794 0.0139572 7.36394 0.0419571 7.22394C0.0699572 7.13994 0.251957 7.04194 0.587957 6.92994C0.923957 6.78994 1.31596 6.66394 1.76396 6.55194C2.21196 6.41194 2.61796 6.29994 2.98196 6.21594C3.37396 6.10394 3.62596 6.03394 3.73796 6.00594C3.79396 5.97794 3.94796 5.94994 4.19996 5.92194C4.45196 5.86594 4.59196 5.89394 4.61996 6.00594C4.64796 6.06194 4.61996 6.14594 4.53596 6.25794C4.45196 6.34194 4.38196 6.41194 4.32596 6.46794C4.32596 6.49594 4.28396 6.55194 4.19996 6.63594C4.14396 6.71994 4.14396 6.74794 4.19996 6.71994L5.66996 6.34194C5.89396 6.28594 6.15996 6.27194 6.46796 6.29994C6.80396 6.29994 7.05596 6.24394 7.22396 6.13194C7.27996 6.07594 7.30796 6.01994 7.30796 5.96394C7.33596 5.90794 7.39196 5.87994 7.47596 5.87994C7.67196 5.82394 7.99396 5.76794 8.44196 5.71194C8.91796 5.65594 9.21196 5.57194 9.32396 5.45994C9.54796 5.40394 9.78596 5.37594 10.038 5.37594C10.29 5.34794 10.514 5.27794 10.71 5.16594C10.794 5.13794 11.06 5.08194 11.508 4.99794C11.984 4.91394 12.516 4.82994 13.104 4.74594C13.72 4.63394 14.266 4.54994 14.742 4.49394C15.218 4.40994 15.498 4.36794 15.582 4.36794H15.624C15.736 4.36794 15.848 4.35394 15.96 4.32594C16.072 4.29794 16.184 4.28394 16.296 4.28394C16.52 4.28394 16.632 4.38194 16.632 4.57794C16.66 4.60594 16.73 4.61994 16.842 4.61994C17.094 4.61994 17.29 4.54994 17.43 4.40994C17.542 4.38194 17.626 4.33994 17.682 4.28394C17.766 4.22794 17.864 4.18594 17.976 4.15794C18.284 4.10194 18.606 4.08794 18.942 4.11594C19.306 4.11594 19.628 4.11594 19.908 4.11594C20.104 3.69594 20.314 3.41594 20.538 3.27594C20.762 3.10794 21.098 3.02394 21.546 3.02394C21.854 3.02394 22.05 3.17794 22.134 3.48594C22.218 3.76594 22.26 4.01794 22.26 4.24194C22.4 4.24194 22.582 4.24194 22.806 4.24194C23.03 4.21394 23.268 4.19994 23.52 4.19994C23.772 4.19994 24.01 4.21394 24.234 4.24194C24.486 4.26994 24.682 4.31194 24.822 4.36794C24.85 4.28394 24.92 4.25594 25.032 4.28394C25.172 4.28394 25.27 4.29794 25.326 4.32594C25.55 4.43794 25.788 4.49394 26.04 4.49394C26.32 4.46594 26.586 4.50794 26.838 4.61994C27.09 4.70394 27.328 4.80194 27.552 4.91394C27.776 5.02594 28.014 5.12394 28.266 5.20794C28.49 5.26394 28.672 5.37594 28.812 5.54394C28.98 5.68394 29.162 5.82394 29.358 5.96394C29.442 6.01994 29.526 6.08994 29.61 6.17394C29.694 6.22994 29.736 6.31394 29.736 6.42594C29.736 6.42594 29.778 6.48194 29.862 6.59394C29.946 6.70594 29.89 6.73394 29.694 6.67794C29.666 6.67794 29.624 6.67794 29.568 6.67794C29.54 6.64994 29.512 6.64994 29.484 6.67794C29.484 6.73394 29.512 6.78994 29.568 6.84594C29.624 6.87394 29.68 6.87394 29.736 6.84594C29.82 6.81794 29.876 6.78994 29.904 6.76194C30.016 6.76194 30.072 6.81794 30.072 6.92994C30.1 7.04194 30.128 7.15394 30.156 7.26594C30.24 7.60194 30.282 7.93794 30.282 8.27394C30.282 8.63794 30.184 9.04394 29.988 9.49194C29.82 9.93994 29.582 10.3319 29.274 10.6679C28.966 10.9759 28.602 11.1299 28.182 11.1299C28.042 11.1299 27.93 11.1159 27.846 11.0879C27.538 11.0039 27.384 10.9199 27.384 10.8359C27.384 10.7519 27.524 10.6119 27.804 10.4159C28 10.2759 28.168 10.1219 28.308 9.95394C28.448 9.75794 28.574 9.56194 28.686 9.36594C28.882 9.22594 29.036 8.94594 29.148 8.52594C29.26 8.10594 29.316 7.71394 29.316 7.34994C29.316 7.06994 29.274 6.84594 29.19 6.67794C29.162 6.67794 29.036 6.52394 28.812 6.21594C28.616 5.90794 28.378 5.73994 28.098 5.71194C27.958 5.65594 27.804 5.59994 27.636 5.54394C27.496 5.48794 27.356 5.44594 27.216 5.41794C27.104 5.30594 26.88 5.22194 26.544 5.16594C26.236 5.10994 25.914 5.06794 25.578 5.03994C25.242 5.01194 24.99 4.99794 24.822 4.99794C24.682 4.99794 24.43 5.01194 24.066 5.03994C23.702 5.03994 23.338 5.05394 22.974 5.08194C22.61 5.08194 22.358 5.08194 22.218 5.08194C21.966 5.80994 21.532 6.24394 20.916 6.38394C20.888 6.46794 20.776 6.76194 20.58 7.26594C20.384 7.76994 20.174 8.32994 19.95 8.94594C19.726 9.53394 19.516 10.0659 19.32 10.5419C19.152 10.9899 19.054 11.2419 19.026 11.2979C18.942 11.4099 18.858 11.5219 18.774 11.6339C18.69 11.7459 18.634 11.8719 18.606 12.0119C18.522 12.5159 18.27 13.2019 17.85 14.0699C17.878 14.0699 17.892 14.0839 17.892 14.1119C17.892 14.1119 17.948 14.1119 18.06 14.1119C18.284 14.1119 18.424 14.0979 18.48 14.0699C18.564 14.0139 18.718 13.9719 18.942 13.9439C19.25 13.9159 19.628 13.9019 20.076 13.9019C20.552 13.9019 20.93 13.9159 21.21 13.9439C21.35 13.9439 21.546 13.9439 21.798 13.9439C22.078 13.9439 22.274 13.9719 22.386 14.0279C22.442 14.0559 22.456 14.0839 22.428 14.1119C22.4 14.1399 22.428 14.1539 22.512 14.1539H22.596C22.652 14.1539 22.708 14.1539 22.764 14.1539C22.82 14.1259 22.89 14.0979 22.974 14.0699L23.352 14.1119C23.632 14.1679 23.856 14.2239 24.024 14.2799C24.276 14.3079 24.402 14.4339 24.402 14.6579C24.402 14.8259 24.276 14.8679 24.024 14.7839C23.968 14.7839 23.898 14.7699 23.814 14.7419C23.758 14.7139 23.688 14.6859 23.604 14.6579H23.436C23.128 14.6579 22.666 14.6439 22.05 14.6159C21.434 14.5879 20.888 14.5879 20.412 14.6159C20.328 14.6159 20.286 14.5879 20.286 14.5319C20.314 14.4479 20.3 14.4059 20.244 14.4059C20.216 14.3779 20.146 14.4059 20.034 14.4899C19.95 14.5459 19.894 14.5879 19.866 14.6159C19.782 14.6159 19.712 14.6299 19.656 14.6579C19.628 14.6859 19.572 14.6999 19.488 14.6999L17.43 14.9519L17.01 15.8759C16.842 15.9879 16.702 16.0859 16.59 16.1699C16.478 16.2259 16.506 16.3519 16.674 16.5479C16.59 16.7439 16.506 16.8419 16.422 16.8419C16.338 16.8139 16.226 16.7859 16.086 16.7579C16.114 16.8979 16.156 16.9959 16.212 17.0519C16.268 17.0799 16.31 17.1639 16.338 17.3039C16.114 17.8079 15.834 18.4239 15.498 19.1519C15.162 19.8519 14.826 20.4119 14.49 20.8319C14.294 20.9159 14.14 20.9999 14.028 21.0839C13.916 21.1679 13.916 21.3359 14.028 21.5879C13.972 21.6439 13.93 21.7139 13.902 21.7979C13.874 21.8819 13.846 21.9659 13.818 22.0499L13.482 22.5539C13.37 22.6379 13.258 22.7359 13.146 22.8479C13.034 22.9319 12.978 23.0719 12.978 23.2679C12.866 23.4359 12.768 23.5619 12.684 23.6459C12.516 23.7019 12.376 23.7719 12.264 23.8559C12.152 23.9399 12.096 24.0939 12.096 24.3179C11.536 24.9339 10.906 25.4239 10.206 25.7879C9.53396 26.1519 8.83396 26.3339 8.10596 26.3339ZM34.2263 10.1639C34.1423 10.1639 34.0583 10.1359 33.9743 10.0799C33.9183 10.0239 33.8343 9.95394 33.7223 9.86994C33.6663 9.84194 33.5963 9.81394 33.5123 9.78594C33.4563 9.72994 33.4283 9.64594 33.4283 9.53394C33.4003 9.50594 33.3443 9.49194 33.2603 9.49194C33.1203 9.49194 33.0503 9.39394 33.0503 9.19794C33.0503 8.97394 33.1623 8.81994 33.3863 8.73594L33.5963 8.56794V8.60994L33.7643 8.39994H33.8483C34.0163 8.39994 34.1283 8.31594 34.1843 8.14794C34.2683 7.97994 34.4363 7.86794 34.6883 7.81194C34.8563 7.75594 34.9963 7.76994 35.1083 7.85394C35.2203 7.93794 35.3603 7.97994 35.5283 7.97994C35.6963 7.97994 35.8783 7.92394 36.0743 7.81194L36.7043 7.68594C36.7883 7.68594 36.8303 7.71394 36.8303 7.76994C36.8303 7.82594 36.7463 7.89594 36.5783 7.97994C36.4383 8.06394 36.3403 8.13394 36.2843 8.18994L36.2423 8.23194L36.2003 8.31594L36.0323 8.52594C35.8643 8.72194 35.6683 8.95994 35.4443 9.23994C35.2483 9.49194 35.0383 9.70194 34.8143 9.86994C34.5623 10.0659 34.3663 10.1639 34.2263 10.1639ZM27.8423 23.3939C27.6743 23.3939 27.5903 23.2959 27.5903 23.0999C27.5903 22.9599 27.6323 22.7919 27.7163 22.5959C27.9403 22.1199 28.1923 21.4479 28.4723 20.5799C28.7803 19.7119 29.1583 18.9699 29.6063 18.3539C29.9143 17.7379 30.1943 17.1359 30.4463 16.5479C30.7263 15.9319 30.9923 15.3159 31.2443 14.6999C31.2443 14.6999 31.2163 14.6859 31.1603 14.6579C31.1323 14.6019 31.1183 14.5459 31.1183 14.4899C30.9503 14.3779 30.7683 14.2239 30.5723 14.0279C30.4043 13.8039 30.3903 13.5799 30.5303 13.3559C30.5863 13.2999 30.6283 13.2719 30.6563 13.2719C30.6843 13.2719 30.6983 13.2719 30.6983 13.2719C30.6983 13.2439 30.6843 13.2299 30.6563 13.2299C30.6563 13.2019 30.6563 13.1879 30.6563 13.1879C30.6563 13.0759 30.7123 13.0059 30.8243 12.9779C30.9363 12.9499 30.9923 12.9079 30.9923 12.8519C31.0483 12.4599 31.3843 12.1659 32.0003 11.9699C32.6163 11.7739 33.1623 11.6759 33.6383 11.6759C34.1143 11.6759 34.3523 11.7459 34.3523 11.8859C34.3523 11.9419 34.2683 12.0399 34.1003 12.1799C34.0163 12.2359 33.8763 12.3619 33.6803 12.5579C33.4843 12.7539 33.3023 12.9919 33.1343 13.2719L32.7983 13.7759C32.7703 13.8319 32.7283 13.9019 32.6723 13.9859C32.6443 14.0419 32.6023 14.0979 32.5463 14.1539C32.0983 14.9659 31.7343 15.6519 31.4543 16.2119C31.1743 16.7719 30.8383 17.4859 30.4463 18.3539C30.3903 18.5219 30.3623 18.6339 30.3623 18.6899C30.3623 18.8859 30.4743 18.9839 30.6983 18.9839C30.8663 18.9839 31.0343 18.9419 31.2023 18.8579L31.6223 18.6899C32.2943 18.0739 32.9943 17.5559 33.7223 17.1359C33.7503 17.1359 33.7643 17.1359 33.7643 17.1359C33.7923 17.1079 33.8203 17.0939 33.8483 17.0939C33.9323 17.0939 33.9883 17.1499 34.0163 17.2619C34.0443 17.3459 34.0163 17.4159 33.9323 17.4719C33.1203 17.9199 32.3643 18.4939 31.6643 19.1939C31.6363 19.2499 31.6083 19.3059 31.5803 19.3619C31.5523 19.4179 31.5103 19.4739 31.4543 19.5299C31.3983 19.5859 31.3143 19.6839 31.2023 19.8239C31.1183 19.9639 31.0763 20.0479 31.0763 20.0759C31.0483 20.1599 31.0063 20.1879 30.9503 20.1599C30.9223 20.1319 30.8383 20.1739 30.6983 20.2859C30.6703 20.3139 30.6423 20.3699 30.6143 20.4539C30.6143 20.5379 30.6003 20.6079 30.5723 20.6639C30.5443 20.7479 30.4883 20.8179 30.4043 20.8739C30.3483 20.9019 30.3203 20.9299 30.3203 20.9579C30.2923 21.0699 30.2363 21.1399 30.1523 21.1679C30.0963 21.1679 30.0403 21.1959 29.9843 21.2519C29.9563 21.2799 29.9563 21.3219 29.9843 21.3779C30.0123 21.4339 29.9983 21.4899 29.9423 21.5459C29.9143 21.6299 29.8863 21.6719 29.8583 21.6719C29.8303 21.6439 29.7883 21.6579 29.7323 21.7139C29.6203 21.8259 29.5363 21.8819 29.4803 21.8819C29.3123 21.9379 29.2423 21.9799 29.2703 22.0079C29.3263 22.0359 29.3683 22.0639 29.3963 22.0919C29.4523 22.0919 29.4103 22.1339 29.2703 22.2179C29.2143 22.2459 29.1583 22.3299 29.1023 22.4699C29.0463 22.5819 28.9903 22.6659 28.9343 22.7219C28.8503 22.7779 28.7663 22.8199 28.6823 22.8479C28.6263 22.8759 28.5563 22.9319 28.4723 23.0159C28.2203 23.2679 28.0103 23.3939 27.8423 23.3939ZM34.856 23.3939C34.688 23.3939 34.604 23.2959 34.604 23.0999C34.604 22.9599 34.646 22.7919 34.73 22.5959C34.954 22.1199 35.206 21.4479 35.486 20.5799C35.794 19.7119 36.172 18.9699 36.62 18.3539C36.76 18.0459 36.97 17.6679 37.25 17.2199C37.558 16.7439 37.852 16.1839 38.132 15.5399V15.3299C38.132 15.2459 38.132 15.1759 38.132 15.1199C38.16 15.0359 38.188 14.9519 38.216 14.8679C38.328 14.6439 38.426 14.4899 38.51 14.4059C38.622 14.3219 38.734 14.1679 38.846 13.9439C38.846 13.8879 38.846 13.8319 38.846 13.7759C38.874 13.7199 38.902 13.6639 38.93 13.6079C38.874 13.6639 38.86 13.6219 38.888 13.4819C38.832 13.4819 38.888 13.3419 39.056 13.0619C39.168 12.8099 39.252 12.6699 39.308 12.6419H39.35C39.462 12.4739 39.56 12.3339 39.644 12.2219C39.728 12.0819 39.756 11.9979 39.728 11.9699V11.8859C39.728 11.6899 39.784 11.5079 39.896 11.3399C40.036 11.1719 40.162 10.9899 40.274 10.7939C40.358 10.6819 40.428 10.6259 40.484 10.6259C40.54 10.6259 40.568 10.6399 40.568 10.6679C40.596 10.6679 40.624 10.6679 40.652 10.6679C40.736 10.6679 40.778 10.5979 40.778 10.4579C40.778 10.4019 40.764 10.3319 40.736 10.2479C40.736 10.1639 40.722 10.0659 40.694 9.95394C40.722 9.81394 40.834 9.70194 41.03 9.61794L41.156 9.57594C41.296 8.98794 41.464 8.59594 41.66 8.39994C41.716 8.34394 41.772 8.28794 41.828 8.23194C41.884 8.17594 41.94 8.11994 41.996 8.06394C42.332 7.69994 42.584 7.30794 42.752 6.88794C42.808 6.77594 42.878 6.69194 42.962 6.63594C43.074 6.55194 43.172 6.45394 43.256 6.34194C43.312 6.25794 43.326 6.17394 43.298 6.08994C43.298 5.97794 43.312 5.87994 43.34 5.79594C43.48 5.57194 43.578 5.44594 43.634 5.41794C43.69 5.38994 43.746 5.36194 43.802 5.33394C43.886 5.27794 44.026 5.15194 44.222 4.95594C44.306 4.81594 44.39 4.67594 44.474 4.53594C44.586 4.39594 44.698 4.25594 44.81 4.11594C44.978 3.91994 45.16 3.77994 45.356 3.69594C45.552 3.61194 45.748 3.48594 45.944 3.31794C46 3.26194 46.028 3.17794 46.028 3.06594C46.028 2.92594 46.056 2.82794 46.112 2.77194C47.092 1.98794 48.142 1.32994 49.262 0.797943C50.41 0.265943 51.292 -5.65052e-05 51.908 -5.65052e-05C52.132 -5.65052e-05 52.342 0.0139433 52.538 0.041943C52.762 0.0699426 52.972 0.111943 53.168 0.167944H53.252C53.392 0.167944 53.532 0.195943 53.672 0.251943C53.812 0.307944 53.938 0.363944 54.05 0.419943C54.162 0.419943 54.302 0.447943 54.47 0.503942C54.61 0.559943 54.694 0.643944 54.722 0.755944C54.75 0.867944 54.722 0.951944 54.638 1.00794C54.61 1.03594 54.568 1.03594 54.512 1.00794C54.456 0.979943 54.4 0.965944 54.344 0.965944C54.288 0.965944 54.232 0.937943 54.176 0.881942C54.12 0.825943 54.064 0.783943 54.008 0.755944C53.896 0.755944 53.77 0.769944 53.63 0.797943C53.518 0.825943 53.392 0.839943 53.252 0.839943H53.126C52.93 0.839943 52.79 0.811943 52.706 0.755944C52.65 0.671943 52.51 0.657943 52.286 0.713944C52.258 0.713944 52.174 0.727944 52.034 0.755944C51.894 0.783943 51.796 0.797943 51.74 0.797943C50.732 1.04994 49.85 1.46994 49.094 2.05794C48.338 2.61794 47.666 3.24794 47.078 3.94794C46.518 4.64794 45.972 5.31994 45.44 5.96394C45.188 6.46794 44.936 6.87394 44.684 7.18194C44.656 7.20994 44.628 7.19594 44.6 7.13994C44.572 7.08394 44.544 7.08394 44.516 7.13994C44.432 7.22394 44.362 7.36394 44.306 7.55994C44.278 7.72794 44.222 7.86794 44.138 7.97994C44.11 8.00794 44.082 7.99394 44.054 7.93794C44.026 7.88194 43.984 7.88194 43.928 7.93794C43.9 7.96594 43.858 8.07794 43.802 8.27394C43.774 8.44194 43.732 8.55394 43.676 8.60994C43.34 9.05794 42.976 9.49194 42.584 9.91194C42.192 10.3319 41.8 10.8219 41.408 11.3819C40.848 12.2499 40.316 13.1039 39.812 13.9439C39.308 14.7839 38.776 15.7079 38.216 16.7159C38.02 17.0519 37.866 17.3599 37.754 17.6399C37.67 17.8919 37.572 18.1299 37.46 18.3539C37.404 18.4379 37.376 18.5499 37.376 18.6899C37.376 18.8859 37.488 18.9839 37.712 18.9839C37.88 18.9839 38.048 18.9419 38.216 18.8579L38.636 18.6899C39.308 18.0739 40.008 17.5559 40.736 17.1359C40.764 17.1359 40.778 17.1359 40.778 17.1359C40.806 17.1079 40.834 17.0939 40.862 17.0939C40.946 17.0939 41.002 17.1499 41.03 17.2619C41.058 17.3459 41.03 17.4159 40.946 17.4719C40.134 17.9199 39.378 18.4939 38.678 19.1939C38.65 19.2499 38.622 19.3059 38.594 19.3619C38.566 19.4179 38.524 19.4739 38.468 19.5299C38.412 19.5859 38.328 19.6839 38.216 19.8239C38.132 19.9639 38.09 20.0479 38.09 20.0759C38.062 20.1599 38.02 20.1879 37.964 20.1599C37.936 20.1319 37.852 20.1739 37.712 20.2859C37.684 20.3139 37.656 20.3699 37.628 20.4539C37.628 20.5379 37.614 20.6079 37.586 20.6639C37.558 20.7479 37.502 20.8179 37.418 20.8739C37.362 20.9019 37.334 20.9299 37.334 20.9579C37.306 21.0699 37.25 21.1399 37.166 21.1679C37.11 21.1679 37.054 21.1959 36.998 21.2519C36.97 21.2799 36.97 21.3219 36.998 21.3779C37.026 21.4339 37.012 21.4899 36.956 21.5459C36.928 21.6299 36.9 21.6719 36.872 21.6719C36.844 21.6439 36.802 21.6579 36.746 21.7139C36.634 21.8259 36.55 21.8819 36.494 21.8819C36.326 21.9379 36.256 21.9799 36.284 22.0079C36.34 22.0359 36.382 22.0639 36.41 22.0919C36.466 22.0919 36.424 22.1339 36.284 22.2179C36.228 22.2459 36.172 22.3299 36.116 22.4699C36.06 22.5819 36.004 22.6659 35.948 22.7219C35.864 22.7779 35.78 22.8199 35.696 22.8479C35.64 22.8759 35.57 22.9319 35.486 23.0159C35.234 23.2679 35.024 23.3939 34.856 23.3939ZM42.0318 23.3939C41.8638 23.3939 41.7798 23.2959 41.7798 23.0999C41.7798 22.9599 41.8218 22.7919 41.9058 22.5959C42.1298 22.1199 42.3958 21.4479 42.7038 20.5799C43.0118 19.7119 43.3898 18.9699 43.8378 18.3539L45.4758 14.6999C45.4758 14.6999 45.4478 14.6859 45.3918 14.6579C45.3358 14.6019 45.3078 14.5459 45.3078 14.4899C45.1398 14.3779 44.9578 14.2239 44.7618 14.0279C44.5938 13.8039 44.5798 13.5799 44.7198 13.3559C44.7758 13.2999 44.8178 13.2719 44.8458 13.2719C44.8738 13.2719 44.8878 13.2719 44.8878 13.2719V13.1879C44.8878 13.0759 44.9298 13.0059 45.0138 12.9779C45.1258 12.9499 45.1958 12.9079 45.2238 12.8519C45.2798 12.4599 45.6018 12.1659 46.1898 11.9699C46.8058 11.7739 47.3518 11.6759 47.8278 11.6759C48.3038 11.6759 48.5418 11.7459 48.5418 11.8859C48.5418 11.9699 48.4578 12.0679 48.2898 12.1799C48.2338 12.2359 48.0938 12.3619 47.8698 12.5579C47.6738 12.7539 47.4918 12.9919 47.3238 13.2719L47.0298 13.7759L46.7358 14.1539C46.2878 14.9659 45.9238 15.6519 45.6438 16.2119C45.3638 16.7719 45.0278 17.4859 44.6358 18.3539C44.5518 18.5219 44.5098 18.6619 44.5098 18.7739C44.5098 18.9139 44.5658 18.9839 44.6778 18.9839C44.7338 18.9839 44.7898 18.9699 44.8458 18.9419C44.9298 18.8859 45.0138 18.8439 45.0978 18.8159C45.3218 18.6759 45.5038 18.5499 45.6438 18.4379C45.8118 18.2979 45.9938 18.1579 46.1898 18.0179C46.2738 17.9339 46.3438 17.9339 46.3998 18.0179C46.4558 18.0739 46.4558 18.1579 46.3998 18.2699C46.2878 18.4939 46.2038 18.6339 46.1478 18.6899C46.1198 18.7179 46.0778 18.7459 46.0218 18.7739C45.9658 18.8019 45.8398 18.9279 45.6438 19.1519L45.4758 19.4879C45.4198 19.5439 45.3498 19.6559 45.2658 19.8239C45.2098 19.9639 45.1818 20.0479 45.1818 20.0759C45.1818 20.1319 45.1538 20.1599 45.0978 20.1599C45.0418 20.1319 44.9578 20.1739 44.8458 20.2859C44.8178 20.3139 44.8038 20.3699 44.8038 20.4539C44.8318 20.5379 44.8178 20.6079 44.7618 20.6639C44.7338 20.7479 44.6918 20.8179 44.6358 20.8739C44.5798 20.9019 44.5518 20.9299 44.5518 20.9579C44.5238 21.0699 44.4678 21.1399 44.3838 21.1679C44.3278 21.1679 44.2718 21.1959 44.2158 21.2519C44.1878 21.2519 44.1738 21.2799 44.1738 21.3359C44.1738 21.5599 44.1458 21.6579 44.0898 21.6299C44.0338 21.6019 43.9778 21.6299 43.9218 21.7139C43.8658 21.8259 43.7958 21.8819 43.7118 21.8819C43.5438 21.9379 43.4738 21.9799 43.5018 22.0079C43.5298 22.0359 43.5718 22.0639 43.6278 22.0919C43.6838 22.0919 43.6418 22.1339 43.5018 22.2179C43.4178 22.2459 43.3478 22.3299 43.2918 22.4699C43.2358 22.5819 43.1798 22.6659 43.1238 22.7219C43.0678 22.7779 42.9978 22.8199 42.9138 22.8479C42.8298 22.8759 42.7598 22.9319 42.7038 23.0159C42.4518 23.2679 42.2278 23.3939 42.0318 23.3939ZM49.5078 22.4699C49.3398 22.4699 49.1998 22.4139 49.0878 22.3019H49.0458C48.7938 22.3019 48.7518 22.1899 48.9198 21.9659C48.9478 21.7979 49.0038 21.6719 49.0878 21.5879C49.1718 21.4759 49.2698 21.3639 49.3818 21.2519C49.4098 21.2519 49.4238 21.2519 49.4238 21.2519C49.4238 21.2239 49.4238 21.2099 49.4238 21.2099C49.5078 21.0139 49.6198 20.8599 49.7598 20.7479L49.9278 20.4959C50.0398 20.3839 50.1518 20.2159 50.2638 19.9919C50.3758 19.8519 50.4458 19.7539 50.4738 19.6979C50.5018 19.6139 50.5578 19.4739 50.6418 19.2779C50.6418 19.2219 50.6838 19.1379 50.7678 19.0259C50.8518 18.9139 50.9078 18.8439 50.9358 18.8159L51.1878 18.1859C51.2158 18.0459 51.2578 17.9339 51.3138 17.8499C51.3698 17.7659 51.4118 17.6539 51.4398 17.5139L51.6918 16.8839C51.7478 16.6879 51.8178 16.5479 51.9018 16.4639H51.9438C51.9158 16.3799 51.9438 16.2679 52.0278 16.1279C52.0838 15.9319 52.1258 15.7639 52.1538 15.6239C52.2098 15.4559 52.2378 15.3719 52.2378 15.3719L52.3638 14.6159C52.3358 14.1119 52.1258 13.8599 51.7338 13.8599C51.5938 13.8599 51.4118 13.9019 51.1878 13.9859C50.7118 14.1259 50.2078 14.4199 49.6758 14.8679C49.6478 14.8959 49.6058 14.9379 49.5498 14.9939C49.5218 15.0499 49.4798 15.1059 49.4238 15.1619C49.3958 15.1899 49.3678 15.2039 49.3398 15.2039C49.3398 15.1759 49.3118 15.1899 49.2558 15.2459C49.2278 15.2739 49.2138 15.3159 49.2138 15.3719C49.2138 15.3999 49.1998 15.4279 49.1718 15.4559C49.1438 15.4839 49.1018 15.5119 49.0458 15.5399C49.0178 15.5399 48.9758 15.5679 48.9198 15.6239C48.8918 15.6239 48.8638 15.6519 48.8358 15.7079C48.8358 15.7359 48.8218 15.7639 48.7938 15.7919C48.6818 15.9039 48.5418 16.0439 48.3738 16.2119C48.2058 16.3519 48.0238 16.4919 47.8278 16.6319L47.6598 16.7579C47.6318 16.7859 47.5898 16.8419 47.5338 16.9259C47.5058 16.9819 47.4638 17.0379 47.4078 17.0939C47.2958 17.2059 47.1978 17.3319 47.1138 17.4719C47.0298 17.6119 46.9178 17.6959 46.7778 17.7239H46.6938C46.5538 17.7239 46.5538 17.5979 46.6938 17.3459C46.7218 17.2899 46.7918 17.1919 46.9038 17.0519C47.0438 16.9119 47.1278 16.8279 47.1558 16.7999L47.3238 16.6319C47.3798 16.5759 47.4078 16.5339 47.4078 16.5059C47.4078 16.4779 47.4218 16.4499 47.4498 16.4219L47.8698 16.0439L48.0378 15.8339L48.3318 15.6239L49.1718 14.8259C49.2278 14.7699 49.3118 14.6719 49.4238 14.5319C49.5638 14.3919 49.6618 14.3079 49.7178 14.2799C49.8578 14.1399 50.0118 14.0279 50.1798 13.9439C50.3478 13.8319 50.5158 13.7059 50.6838 13.5659C50.8238 13.4539 50.9778 13.3559 51.1458 13.2719C51.2578 13.1599 51.3418 13.0899 51.3978 13.0619C51.6498 12.9219 51.7898 12.8379 51.8178 12.8099C51.8458 12.7819 51.9438 12.7399 52.1118 12.6839C52.3638 12.5999 52.6578 12.5579 52.9938 12.5579C53.2178 12.5579 53.3578 12.5719 53.4138 12.5999C53.5538 12.6559 53.6938 12.7119 53.8338 12.7679C53.9738 12.8239 54.0438 12.9639 54.0438 13.1879C54.0438 13.3279 54.0578 13.4119 54.0858 13.4399C54.1138 13.4399 54.1138 13.5239 54.0858 13.6919C54.0858 13.8039 54.0718 13.9859 54.0438 14.2379C54.0438 14.4899 54.0158 14.6859 53.9598 14.8259C53.9318 14.9659 53.8618 15.1619 53.7498 15.4139C53.6658 15.6379 53.5958 15.8339 53.5398 16.0019L53.4138 16.3379L53.0358 17.0099C53.0078 17.0379 52.9098 17.1079 52.7418 17.2199C52.5738 17.3039 52.4618 17.3739 52.4058 17.4299C52.3778 17.4579 52.4198 17.5139 52.5318 17.5979C52.6438 17.6819 52.6298 17.8219 52.4898 18.0179C52.4338 18.1299 52.3638 18.1999 52.2798 18.2279C52.1958 18.2279 52.1118 18.2979 52.0278 18.4379C51.6918 18.9139 51.4258 19.2499 51.2298 19.4459L50.7678 20.0759L50.6418 20.2019C50.7538 20.2019 50.8518 20.2719 50.9358 20.4119C50.9638 20.4959 51.0198 20.5659 51.1038 20.6219C51.1878 20.6779 51.2298 20.7899 51.2298 20.9579C51.2298 21.1539 51.1178 21.4339 50.8938 21.7979C50.6698 22.1619 50.4038 22.3439 50.0958 22.3439C49.9838 22.3439 49.8858 22.3719 49.8018 22.4279C49.7178 22.4559 49.6198 22.4699 49.5078 22.4699ZM60.8058 23.4779C60.5818 23.4779 60.4278 23.4639 60.3438 23.4359C60.0638 23.3799 59.8118 23.2959 59.5878 23.1839C59.3918 23.0719 59.2238 22.8619 59.0838 22.5539C59.0278 22.4139 58.9578 22.2319 58.8738 22.0079C58.7898 21.7839 58.7198 21.5739 58.6638 21.3779C58.6358 21.2379 58.6218 21.0699 58.6218 20.8739C58.6218 20.7619 58.6078 20.6779 58.5798 20.6219C58.5798 20.5379 58.5798 20.4399 58.5798 20.3279C58.5798 20.2159 58.5658 20.0899 58.5378 19.9499C58.5098 19.8099 58.5098 19.6839 58.5378 19.5719V18.7739C58.5378 18.6339 58.5378 18.5079 58.5378 18.3959C58.5378 18.2559 58.5518 18.1579 58.5798 18.1019C58.6358 17.8499 58.6638 17.7239 58.6638 17.7239C58.6638 17.6959 58.6778 17.5559 58.7058 17.3039C58.7338 16.9679 58.7338 16.6179 58.7058 16.2539C58.7058 15.8899 58.7198 15.5959 58.7478 15.3719C58.8318 14.5319 58.6778 14.1119 58.2858 14.1119C58.1178 14.1119 57.8938 14.1819 57.6138 14.3219C57.5858 14.3779 57.5298 14.4199 57.4458 14.4479C57.3618 14.4479 57.2638 14.4899 57.1518 14.5739L56.9838 14.6999C56.9838 14.7279 56.9418 14.7419 56.8578 14.7419C56.8018 14.7139 56.7878 14.7279 56.8158 14.7839C56.8158 15.0079 56.7458 15.0639 56.6058 14.9519L56.1858 15.2879L56.0598 15.4559L56.0178 15.4979C55.9058 15.6099 55.8078 15.6659 55.7238 15.6659L55.5558 15.7919C55.5558 15.8199 55.5278 15.8759 55.4718 15.9599C55.4438 16.0159 55.3878 16.0299 55.3038 16.0019L55.0938 16.2119C54.9818 16.3799 54.8838 16.4779 54.7998 16.5059C54.7438 16.5339 54.6738 16.5619 54.5898 16.5899L54.2118 17.0099L54.0438 17.0519C54.0438 17.1639 53.9178 17.3319 53.6658 17.5559C53.4418 17.7799 53.3018 17.9339 53.2458 18.0179C53.1618 18.1019 53.0778 18.1439 52.9938 18.1439C52.9378 18.1439 52.9098 18.1159 52.9098 18.0599C52.9098 17.9479 52.9658 17.8359 53.0778 17.7239C53.1898 17.6119 53.3578 17.4019 53.5818 17.0939C53.8338 16.7859 53.9738 16.6319 54.0018 16.6319C54.1418 16.4919 54.2398 16.3519 54.2958 16.2119C54.3518 16.0719 54.4498 15.9459 54.5898 15.8339C54.5898 15.8899 54.6178 15.9179 54.6738 15.9179C54.7298 15.9179 54.7858 15.8479 54.8418 15.7079C54.9258 15.5399 54.9818 15.4699 55.0098 15.4979L55.7658 14.8679C55.7378 14.8399 55.8078 14.7839 55.9758 14.6999C56.0878 14.6439 56.1578 14.6159 56.1858 14.6159C56.2138 14.6159 56.2838 14.5319 56.3958 14.3639L56.6898 14.1539C56.7178 14.0979 56.7458 14.0979 56.7738 14.1539C56.8018 14.2099 56.8438 14.2379 56.8998 14.2379L56.9838 13.9439C57.0398 13.8319 57.1378 13.7479 57.2778 13.6919C57.4178 13.6359 57.5578 13.5659 57.6978 13.4819C57.8378 13.3419 57.9778 13.2159 58.1178 13.1039C58.2578 12.9919 58.3698 12.9499 58.4538 12.9779H58.6218C58.9858 12.8379 59.3078 12.7679 59.5878 12.7679C60.0358 12.7679 60.3858 12.9359 60.6378 13.2719C60.7498 13.4119 60.8198 13.5659 60.8478 13.7339C60.8758 13.7619 60.8758 13.8039 60.8478 13.8599C60.8478 13.8879 60.8618 13.9299 60.8898 13.9859C60.9178 14.0419 60.9738 14.1119 61.0578 14.1959C61.1418 14.2519 61.1838 14.3219 61.1838 14.4059V14.4899C61.1838 14.5739 61.1278 14.6719 61.0158 14.7839C61.1558 14.8959 61.2118 14.9659 61.1838 14.9939C61.1558 14.9939 61.1278 15.0359 61.0998 15.1199L61.0578 15.7079C61.0298 15.9039 60.9738 16.0579 60.8898 16.1699C60.8338 16.2539 60.7778 16.4079 60.7218 16.6319C60.8338 16.7999 60.8338 16.8979 60.7218 16.9259C60.7218 16.9539 60.6938 16.9679 60.6378 16.9679L60.5958 17.1359C60.6518 17.2479 60.6798 17.3039 60.6798 17.3039L60.5538 17.5559C60.5538 17.5559 60.5958 17.5559 60.6798 17.5559C60.6238 17.6119 60.5678 17.7239 60.5118 17.8919C60.4838 18.0319 60.4558 18.1439 60.4278 18.2279C60.3998 18.3679 60.3438 18.4379 60.2598 18.4379C60.1758 18.4379 60.1478 18.5079 60.1758 18.6479C60.2038 18.6759 60.2178 18.7739 60.2178 18.9419C60.2178 19.0819 60.1898 19.1519 60.1338 19.1519L60.0498 19.6559C60.0498 19.6839 60.0498 19.7119 60.0498 19.7399C60.0778 19.7679 60.0918 19.7959 60.0918 19.8239C60.0918 19.9639 60.0638 20.1039 60.0078 20.2439C59.9798 20.3559 59.9378 20.4819 59.8818 20.6219C59.8538 20.7619 59.8258 20.9159 59.7978 21.0839C59.7978 21.2239 59.7978 21.3639 59.7978 21.5039C59.7978 21.6159 59.7978 21.7419 59.7978 21.8819C59.8258 21.9939 59.8538 22.1059 59.8818 22.2179C59.9098 22.2459 59.9518 22.3299 60.0078 22.4699C60.0918 22.6099 60.1338 22.6939 60.1338 22.7219C60.1898 22.7779 60.2318 22.8059 60.2598 22.8059C60.3158 22.8339 60.3998 22.8479 60.5118 22.8479C60.6518 22.8199 60.7498 22.8339 60.8058 22.8899C61.0578 22.9179 61.3798 22.7919 61.7718 22.5119C62.1918 22.2039 62.5698 21.8679 62.9058 21.5039C62.9898 21.4199 63.0738 21.3779 63.1578 21.3779C63.2418 21.3779 63.2978 21.4199 63.3258 21.5039C63.3538 21.5879 63.3258 21.6999 63.2418 21.8399C62.7658 22.4839 62.3178 22.9179 61.8978 23.1419C61.5058 23.3659 61.1418 23.4779 60.8058 23.4779ZM75.5612 26.4599C75.0292 26.4599 74.7632 26.0399 74.7632 25.1999V24.6539C74.7632 24.4859 74.7912 24.3179 74.8472 24.1499C74.9032 24.0099 75.0292 23.8559 75.2252 23.6879C75.5612 23.3799 75.8972 23.0719 76.2332 22.7639C76.5692 22.4559 76.8912 22.1339 77.1992 21.7979C77.2552 21.7419 77.3112 21.7139 77.3672 21.7139C77.4232 21.6859 77.4652 21.6579 77.4932 21.6299C77.5492 21.5739 77.6332 21.4479 77.7452 21.2519C77.8572 21.0559 77.9832 20.9019 78.1232 20.7899C78.2632 20.6779 78.3892 20.5939 78.5012 20.5379C78.6132 20.4539 78.6832 20.3139 78.7112 20.1179C79.0192 19.7539 79.3272 19.3899 79.6352 19.0259C79.9432 18.6339 80.2372 18.2419 80.5172 17.8499C80.7412 17.7379 80.9652 17.4439 81.1892 16.9679C81.4132 16.4919 81.6232 16.1419 81.8192 15.9179C81.9592 15.9179 82.0432 15.8339 82.0712 15.6659C82.0992 15.4979 82.1412 15.3579 82.1972 15.2459C82.5892 14.5739 82.9532 13.9159 83.2892 13.2719C83.6252 12.6279 83.8912 11.9419 84.0872 11.2139C84.1432 11.0739 84.1992 10.9619 84.2552 10.8779C84.3392 10.7659 84.3952 10.6539 84.4232 10.5419V10.3739C84.4232 10.2619 84.3952 10.1499 84.3392 10.0379C84.3112 9.89794 84.3112 9.75794 84.3392 9.61794C84.3672 9.47794 84.3952 9.26794 84.4232 8.98794C84.4512 8.67994 84.4932 8.48394 84.5492 8.39994C84.6332 8.25994 84.7032 8.21794 84.7592 8.27394C84.8432 8.32994 84.8992 8.31594 84.9272 8.23194C84.9552 8.17594 84.9692 8.09194 84.9692 7.97994C84.9972 7.83994 85.0112 7.74194 85.0112 7.68594C85.0112 7.65794 84.9972 7.64394 84.9692 7.64394C84.9412 7.64394 84.8572 7.69994 84.7172 7.81194C84.6052 7.89594 84.5492 7.90994 84.5492 7.85394L84.5072 7.43394C84.3952 7.26594 84.3112 7.15394 84.2552 7.09794C84.2272 7.01394 84.2272 6.87394 84.2552 6.67794V6.55194C84.2552 6.32794 84.1012 6.24394 83.7932 6.29994C83.3732 6.04794 83.0092 5.92194 82.7012 5.92194C82.4212 5.92194 82.1552 5.97794 81.9032 6.08994C81.6512 6.17394 81.3992 6.21594 81.1472 6.21594C80.9232 6.21594 80.8112 6.11794 80.8112 5.92194C80.8112 5.75394 80.9232 5.61394 81.1472 5.50194C81.3992 5.36194 81.6652 5.26394 81.9452 5.20794C82.2252 5.15194 82.4352 5.12394 82.5752 5.12394C82.9392 5.12394 83.3172 5.17994 83.7092 5.29194C84.1012 5.40394 84.4372 5.57194 84.7172 5.79594C85.1932 6.15994 85.5152 6.62194 85.6832 7.18194C85.8792 7.71394 85.9772 8.25994 85.9772 8.81994C85.9772 9.32394 85.9352 9.82794 85.8512 10.3319C85.7672 10.8079 85.6552 11.2699 85.5152 11.7179C85.4592 11.9419 85.3752 12.1659 85.2632 12.3899C85.1512 12.6139 85.0532 12.8379 84.9692 13.0619C84.9412 13.1459 84.9132 13.2579 84.8852 13.3979C84.8572 13.5379 84.8432 13.6779 84.8432 13.8179C84.8432 14.0419 84.8992 14.1539 85.0112 14.1539C85.0952 14.1539 85.2352 14.0559 85.4312 13.8599C86.3832 12.9079 87.3212 11.9559 88.2452 11.0039C89.1972 10.0519 90.1772 9.14194 91.1852 8.27394C91.4092 8.07794 91.6332 7.89594 91.8572 7.72794C92.0812 7.55994 92.2912 7.37794 92.4872 7.18194C92.5432 7.09794 92.6272 7.01394 92.7392 6.92994C92.8512 6.84594 92.9352 6.78994 92.9912 6.76194C93.3272 6.53794 93.6352 6.31394 93.9152 6.08994C94.1952 5.83794 94.4892 5.61394 94.7972 5.41794C95.2172 5.16594 95.6372 4.92794 96.0572 4.70394C96.5052 4.45194 96.9532 4.24194 97.4012 4.07394H97.4432C97.5272 4.04594 97.5832 4.04594 97.6112 4.07394C97.6672 4.10194 97.7232 4.11594 97.7792 4.11594C97.8632 4.05994 97.9192 4.00394 97.9472 3.94794C98.0032 3.89194 98.0872 3.84994 98.1992 3.82194C98.5912 3.73794 98.9832 3.69594 99.3752 3.69594C99.9352 3.69594 100.467 3.77994 100.971 3.94794C101.475 4.11594 101.895 4.39594 102.231 4.78794C102.287 4.92794 102.329 5.05394 102.357 5.16594C102.385 5.24994 102.483 5.31994 102.651 5.37594C102.847 5.73994 102.973 6.11794 103.029 6.50994C103.113 6.87394 103.155 7.25194 103.155 7.64394C103.155 8.17594 103.113 8.69394 103.029 9.19794C103.001 9.42194 102.931 9.65994 102.819 9.91194C102.735 10.1359 102.707 10.3739 102.735 10.6259L102.693 10.7099C102.525 10.9339 102.469 11.1579 102.525 11.3819L102.441 11.6759C102.273 11.7599 102.189 11.8859 102.189 12.0539C102.189 12.1939 102.189 12.3479 102.189 12.5159H102.147C101.783 13.6359 101.349 14.7279 100.845 15.7919C100.341 16.8279 99.8092 17.8499 99.2492 18.8579C99.2492 18.8859 99.1932 19.0119 99.0812 19.2359C98.9692 19.4599 98.8712 19.6839 98.7872 19.9079C98.7312 20.1319 98.7592 20.2439 98.8712 20.2439C99.0392 20.2439 99.2072 20.1599 99.3752 19.9919C99.5432 19.7959 99.6832 19.6419 99.7952 19.5299C100.019 19.3059 100.201 19.0679 100.341 18.8159C100.509 18.5359 100.691 18.2979 100.887 18.1019C100.943 18.0179 101.013 17.9479 101.097 17.8919C101.181 17.8079 101.265 17.7379 101.349 17.6819C101.489 17.5699 101.601 17.4299 101.685 17.2619C101.769 17.0939 101.867 16.9539 101.979 16.8419L102.903 15.7919C103.127 15.7919 103.267 15.7079 103.323 15.5399C103.379 15.3719 103.463 15.2179 103.575 15.0779C103.687 14.9099 103.939 14.6159 104.331 14.1959C104.723 13.7759 105.017 13.4959 105.213 13.3559C105.521 13.0759 105.871 12.9359 106.263 12.9359C106.851 12.9359 107.341 13.2859 107.733 13.9859C107.789 14.0979 107.887 14.3639 108.027 14.7839C108.195 15.2039 108.279 15.4559 108.279 15.5399C108.279 15.6239 108.251 15.7219 108.195 15.8339C108.167 15.9179 108.167 15.9879 108.195 16.0439C108.251 16.0999 108.293 16.1139 108.321 16.0859C108.377 16.0579 108.419 16.1139 108.447 16.2539C108.531 16.4219 108.587 16.6319 108.615 16.8839C108.671 17.1359 108.713 17.3599 108.741 17.5559C108.769 17.6959 108.769 17.8499 108.741 18.0179C108.741 18.1579 108.755 18.2979 108.783 18.4379C108.839 18.5219 108.881 18.5919 108.909 18.6479C108.937 18.7039 108.965 18.7879 108.993 18.8999C109.105 19.3479 109.231 19.7959 109.371 20.2439C109.511 20.6639 109.665 21.0839 109.833 21.5039L109.875 21.5459C109.875 21.8819 110.001 22.0779 110.253 22.1339C110.757 22.8059 111.401 23.1419 112.185 23.1419C112.297 23.1419 112.395 23.1279 112.479 23.0999C112.591 23.0719 112.703 23.0439 112.815 23.0159C112.983 23.0159 113.123 23.0579 113.235 23.1419C113.375 23.2259 113.333 23.3379 113.109 23.4779C112.689 23.7579 112.255 23.8979 111.807 23.8979C110.995 23.8979 110.309 23.6879 109.749 23.2679C109.217 22.8199 108.769 22.2739 108.405 21.6299C108.069 20.9859 107.775 20.3279 107.523 19.6559L107.649 19.5299C107.873 19.4459 107.985 19.3759 107.985 19.3199C107.985 19.2639 107.915 19.2219 107.775 19.1939C107.663 19.1379 107.537 19.1239 107.397 19.1519C107.117 18.6759 106.907 18.1719 106.767 17.6399C106.655 17.0799 106.473 16.5479 106.221 16.0439C105.885 15.3439 105.507 14.9939 105.087 14.9939C104.807 14.9939 104.541 15.1339 104.289 15.4139C104.037 15.6659 103.757 15.9459 103.449 16.2539L102.273 17.5559C101.993 17.6399 101.839 17.8359 101.811 18.1439C101.307 18.7039 100.775 19.2919 100.215 19.9079C99.6832 20.4959 99.0952 21.0139 98.4512 21.4619C98.0312 21.7419 97.5552 21.8819 97.0232 21.8819C96.7712 21.8819 96.5472 21.8259 96.3512 21.7139C96.1552 21.6019 96.0572 21.4059 96.0572 21.1259C96.0572 21.0419 96.0852 20.8879 96.1412 20.6639C96.2532 20.2999 96.4072 19.9779 96.6032 19.6979C96.8272 19.4179 97.0372 19.1379 97.2332 18.8579C97.4572 18.5219 97.6812 18.1019 97.9052 17.5979C98.1572 17.0659 98.3812 16.6739 98.5772 16.4219C98.6612 16.2819 98.7452 16.1559 98.8292 16.0439C98.9412 15.9319 98.9972 15.7919 98.9972 15.6239L99.3332 14.8259C99.5572 14.7419 99.6692 14.6299 99.6692 14.4899C99.6692 14.3499 99.6832 14.1959 99.7112 14.0279C99.7392 13.8599 99.7952 13.7059 99.8792 13.5659C99.9912 13.3979 100.061 13.2299 100.089 13.0619C100.201 12.6419 100.355 12.2499 100.551 11.8859C100.747 11.4939 100.859 11.0739 100.887 10.6259V10.5839C101.055 9.93994 101.195 9.29594 101.307 8.65194C101.419 7.97994 101.475 7.32194 101.475 6.67794C101.475 6.08994 101.363 5.61394 101.139 5.24994C100.943 4.88594 100.509 4.70394 99.8372 4.70394C99.6412 4.70394 99.4172 4.67594 99.1652 4.61994C98.9132 4.56394 98.6752 4.56394 98.4512 4.61994C98.3952 4.59194 98.3252 4.57794 98.2412 4.57794C98.1292 4.57794 97.9892 4.66194 97.8212 4.82994L97.6532 4.87194L97.4852 4.82994C97.3732 4.82994 97.2612 4.88594 97.1492 4.99794C97.0652 5.10994 96.9672 5.20794 96.8552 5.29194H96.8132C95.8612 5.73994 94.9652 6.28594 94.1252 6.92994C93.2852 7.54594 92.4592 8.17594 91.6472 8.81994C91.6192 8.84794 91.5632 8.88994 91.4792 8.94594C91.3952 8.97394 91.3392 9.01594 91.3112 9.07194C90.2472 9.93994 89.2112 10.8639 88.2032 11.8439C87.2232 12.8239 86.2572 13.8039 85.3052 14.7839C85.0812 14.7839 84.9412 14.9099 84.8852 15.1619C84.7452 15.2179 84.6612 15.3019 84.6332 15.4139C84.6332 15.5259 84.6052 15.6519 84.5492 15.7919C84.3812 15.9879 84.1852 16.1839 83.9612 16.3799C83.7372 16.5759 83.5552 16.7859 83.4152 17.0099C83.3032 17.2059 83.0932 17.4719 82.7852 17.8079C82.5052 18.1439 82.2812 18.3959 82.1132 18.5639C82.0012 18.6759 81.8612 18.7739 81.6932 18.8579C81.5532 18.9419 81.4832 19.0959 81.4832 19.3199C81.3712 19.4879 81.2452 19.6699 81.1052 19.8659C80.9652 20.0339 80.8252 20.1879 80.6852 20.3279C80.4052 20.6359 80.1672 20.9859 79.9712 21.3779C79.8032 21.7419 79.5652 22.0639 79.2572 22.3439C79.2012 22.4279 79.0892 22.5259 78.9212 22.6379C78.7812 22.7499 78.6832 22.8339 78.6272 22.8899C78.5992 22.9459 78.5852 23.0019 78.5852 23.0579C78.6132 23.0859 78.5992 23.1559 78.5432 23.2679C78.3472 23.6319 78.1232 23.9959 77.8712 24.3599C77.6472 24.7519 77.4092 25.1159 77.1572 25.4519C76.9612 25.7319 76.7092 25.9699 76.4012 26.1659C76.0932 26.3619 75.8132 26.4599 75.5612 26.4599ZM121.778 23.3939C121.61 23.3939 121.526 23.2959 121.526 23.0999C121.526 22.9599 121.568 22.7919 121.652 22.5959C121.876 22.1199 122.128 21.4479 122.408 20.5799C122.716 19.7119 123.094 18.9699 123.542 18.3539C123.85 17.7379 124.13 17.1359 124.382 16.5479C124.662 15.9319 124.928 15.3159 125.18 14.6999C125.18 14.6999 125.152 14.6859 125.096 14.6579C125.04 14.6019 125.012 14.5459 125.012 14.4899C124.872 14.3779 124.704 14.2239 124.508 14.0279C124.312 13.8039 124.298 13.5799 124.466 13.3559C124.522 13.2999 124.55 13.2719 124.55 13.2719C124.578 13.2719 124.592 13.2719 124.592 13.2719C124.592 13.2439 124.578 13.2299 124.55 13.2299C124.55 13.2299 124.55 13.2159 124.55 13.1879L124.508 13.1459C124.48 13.1459 124.452 13.1459 124.424 13.1459C124.424 13.1179 124.41 13.1039 124.382 13.1039C124.27 13.1039 124.144 13.1319 124.004 13.1879C123.864 13.2159 123.724 13.2299 123.584 13.2299C123.416 13.2299 123.192 13.2999 122.912 13.4399C122.632 13.5519 122.38 13.6499 122.156 13.7339C122.044 13.7619 121.974 13.7759 121.946 13.7759C121.946 13.7479 121.89 13.7619 121.778 13.8179C121.75 13.8459 121.75 13.8039 121.778 13.6919C121.834 13.5519 121.862 13.4539 121.862 13.3979C121.862 13.3699 121.848 13.3559 121.82 13.3559C121.764 13.3559 121.652 13.4399 121.484 13.6079C121.316 13.7479 121.204 13.8319 121.148 13.8599C121.12 13.8879 121.106 13.9299 121.106 13.9859C121.134 14.0419 121.148 14.0979 121.148 14.1539C121.148 14.2379 121.078 14.3359 120.938 14.4479C120.798 14.5319 120.7 14.6019 120.644 14.6579C120.532 14.7419 120.392 14.7979 120.224 14.8259C120.084 14.8259 119.944 14.8819 119.804 14.9939C119.636 15.1059 119.552 15.1899 119.552 15.2459C119.58 15.3019 119.496 15.3999 119.3 15.5399C119.048 15.7359 118.698 16.0299 118.25 16.4219C117.83 16.8139 117.508 17.1639 117.284 17.4719C116.752 18.1159 116.262 18.8579 115.814 19.6979C115.394 20.5379 115.184 21.1959 115.184 21.6719C115.184 22.0359 115.338 22.2179 115.646 22.2179C115.702 22.2179 115.758 22.2179 115.814 22.2179C115.87 22.1899 115.94 22.1619 116.024 22.1339L117.116 21.5039L117.368 21.4619V21.4199L117.536 21.5459C117.564 21.5179 117.55 21.4759 117.494 21.4199C117.466 21.3359 117.466 21.2939 117.494 21.2939C117.522 21.2939 117.536 21.3079 117.536 21.3359C117.564 21.3359 117.592 21.3359 117.62 21.3359L117.704 21.2099C117.704 21.2099 117.746 21.2239 117.83 21.2519C117.942 21.2519 118.026 21.2239 118.082 21.1679C118.166 21.1399 118.18 21.0979 118.124 21.0419C118.096 20.9859 118.054 20.9439 117.998 20.9159L118.292 20.6639C118.32 20.6079 118.432 20.5519 118.628 20.4959C119.104 20.1879 119.496 19.8239 119.804 19.4039C120.14 18.9559 120.518 18.5499 120.938 18.1859H120.98L121.484 17.6819L121.442 17.5559L121.988 16.9259H122.072C122.1 16.8699 122.156 16.7999 122.24 16.7159C122.352 16.6319 122.422 16.5619 122.45 16.5059C122.506 16.4779 122.632 16.3379 122.828 16.0859C123.052 15.8059 123.262 15.5819 123.458 15.4139C123.682 15.2459 123.808 15.1619 123.836 15.1619C123.864 15.1619 123.878 15.1759 123.878 15.2039C123.878 15.2879 123.836 15.4139 123.752 15.5819C123.696 15.7499 123.64 15.8619 123.584 15.9179C123.388 16.2259 123.136 16.5759 122.828 16.9679C122.52 17.3319 122.338 17.5559 122.282 17.6399C121.946 18.0039 121.54 18.4939 121.064 19.1099C120.588 19.6979 120.07 20.2859 119.51 20.8739C118.95 21.4619 118.39 21.9659 117.83 22.3859C117.298 22.7779 116.794 22.9739 116.318 22.9739C115.87 22.9739 115.394 22.8339 114.89 22.5539C114.386 22.2739 114.134 21.7419 114.134 20.9579C114.134 20.7059 114.162 20.4259 114.218 20.1179C114.302 19.7819 114.428 19.4319 114.596 19.0679C114.596 19.0679 114.624 19.0399 114.68 18.9839C114.736 18.8999 114.778 18.8719 114.806 18.8999C114.862 18.8159 114.876 18.7319 114.848 18.6479C114.848 18.5359 114.848 18.4659 114.848 18.4379L114.932 18.3539C114.988 18.0459 115.198 17.7659 115.562 17.5139C115.926 17.2619 116.122 17.0659 116.15 16.9259C116.178 16.8979 116.192 16.8559 116.192 16.7999L116.36 16.2539V16.0859H116.528L116.654 15.9179L116.696 15.8339C116.64 15.8059 116.654 15.7639 116.738 15.7079C116.85 15.6239 116.906 15.5819 116.906 15.5819C116.934 15.5259 116.962 15.4839 116.99 15.4559C117.046 15.4279 117.088 15.3999 117.116 15.3719H117.41C117.466 15.2879 117.438 15.2459 117.326 15.2459C117.214 15.2459 117.158 15.2459 117.158 15.2459C117.158 15.2179 117.158 15.2039 117.158 15.2039C117.186 15.1759 117.2 15.1479 117.2 15.1199L117.662 14.7419C117.802 14.6299 117.942 14.5319 118.082 14.4479C118.222 14.3639 118.348 14.2659 118.46 14.1539C118.544 14.1539 118.558 14.1959 118.502 14.2799C118.53 14.3359 118.558 14.3359 118.586 14.2799C118.642 14.2239 118.67 14.1959 118.67 14.1959L118.88 14.1539V14.1119C118.88 14.0559 118.894 13.9719 118.922 13.8599C118.95 13.7479 118.964 13.6779 118.964 13.6499C119.552 13.2019 120.168 12.8099 120.812 12.4739C121.456 12.1099 122.086 11.9279 122.702 11.9279C123.43 11.9279 124.088 12.2079 124.676 12.7679L124.886 12.8939C124.914 12.8939 124.928 12.8799 124.928 12.8519C124.984 12.4599 125.306 12.1659 125.894 11.9699C126.51 11.7739 127.056 11.6759 127.532 11.6759C128.036 11.6759 128.288 11.7459 128.288 11.8859C128.288 11.9419 128.204 12.0399 128.036 12.1799C127.952 12.2359 127.812 12.3619 127.616 12.5579C127.42 12.7539 127.224 12.9919 127.028 13.2719C127 13.3559 126.958 13.4399 126.902 13.5239C126.846 13.6079 126.79 13.6919 126.734 13.7759C126.706 13.8319 126.664 13.9019 126.608 13.9859C126.58 14.0419 126.538 14.0979 126.482 14.1539C126.006 14.9659 125.628 15.6519 125.348 16.2119C125.068 16.7719 124.732 17.4859 124.34 18.3539C124.284 18.5219 124.256 18.6199 124.256 18.6479C124.256 18.8719 124.382 18.9839 124.634 18.9839C124.802 18.9839 124.97 18.9419 125.138 18.8579L125.558 18.6899C126.23 18.0739 126.93 17.5559 127.658 17.1359C127.686 17.1359 127.7 17.1359 127.7 17.1359C127.728 17.1079 127.756 17.0939 127.784 17.0939C127.868 17.0939 127.924 17.1499 127.952 17.2619C127.98 17.3459 127.952 17.4159 127.868 17.4719C127.056 17.9199 126.3 18.4939 125.6 19.1939C125.572 19.2499 125.544 19.3059 125.516 19.3619C125.488 19.4179 125.446 19.4739 125.39 19.5299C125.306 19.5859 125.222 19.6839 125.138 19.8239C125.054 19.9639 125.012 20.0479 125.012 20.0759C124.984 20.1599 124.942 20.1879 124.886 20.1599C124.858 20.1319 124.774 20.1739 124.634 20.2859C124.606 20.3139 124.578 20.3699 124.55 20.4539C124.55 20.5379 124.536 20.6079 124.508 20.6639C124.452 20.7479 124.396 20.8179 124.34 20.8739C124.284 20.9019 124.256 20.9299 124.256 20.9579C124.228 21.0699 124.172 21.1399 124.088 21.1679C124.032 21.1679 123.976 21.1959 123.92 21.2519C123.892 21.2519 123.878 21.2659 123.878 21.2939C123.878 21.5459 123.85 21.6579 123.794 21.6299C123.738 21.6019 123.682 21.6299 123.626 21.7139C123.57 21.8259 123.5 21.8819 123.416 21.8819C123.248 21.9379 123.178 21.9799 123.206 22.0079C123.262 22.0359 123.304 22.0639 123.332 22.0919C123.388 22.0919 123.346 22.1339 123.206 22.2179C123.15 22.2459 123.094 22.3299 123.038 22.4699C122.982 22.5819 122.926 22.6659 122.87 22.7219C122.786 22.7779 122.702 22.8199 122.618 22.8479C122.534 22.8759 122.464 22.9319 122.408 23.0159C122.156 23.2679 121.946 23.3939 121.778 23.3939ZM127.047 24.7799C126.991 24.6119 126.963 24.4439 126.963 24.2759C126.963 24.1919 126.977 24.1079 127.005 24.0239C127.005 23.9679 127.019 23.8979 127.047 23.8139C127.075 23.7299 127.145 23.5059 127.257 23.1419C127.397 22.7779 127.523 22.3999 127.635 22.0079C127.775 21.6159 127.873 21.3919 127.929 21.3359C127.929 21.3359 128.013 21.1259 128.181 20.7059C128.377 20.2579 128.587 19.7959 128.811 19.3199C129.035 18.8159 129.203 18.4939 129.315 18.3539C129.455 18.0459 129.665 17.6679 129.945 17.2199C130.253 16.7439 130.547 16.1839 130.827 15.5399V15.3299C130.827 15.2459 130.827 15.1759 130.827 15.1199C130.855 15.0359 130.883 14.9519 130.911 14.8679C131.023 14.6439 131.121 14.4899 131.205 14.4059C131.317 14.3219 131.429 14.1679 131.541 13.9439C131.541 13.8879 131.541 13.8319 131.541 13.7759C131.569 13.7199 131.597 13.6639 131.625 13.6079C131.569 13.6639 131.555 13.6219 131.583 13.4819C131.527 13.4819 131.583 13.3419 131.751 13.0619C131.863 12.8099 131.947 12.6699 132.003 12.6419H132.045C132.157 12.4739 132.255 12.3339 132.339 12.2219C132.423 12.0819 132.451 11.9979 132.423 11.9699V11.8859C132.423 11.6899 132.479 11.5079 132.591 11.3399C132.731 11.1719 132.857 10.9899 132.969 10.7939C133.053 10.6819 133.123 10.6259 133.179 10.6259C133.235 10.6259 133.263 10.6399 133.263 10.6679C133.291 10.6679 133.319 10.6679 133.347 10.6679C133.431 10.6679 133.473 10.5979 133.473 10.4579C133.473 10.4019 133.459 10.3319 133.431 10.2479C133.431 10.1639 133.417 10.0659 133.389 9.95394C133.417 9.81394 133.529 9.70194 133.725 9.61794L133.851 9.57594C133.991 8.98794 134.159 8.59594 134.355 8.39994C134.411 8.34394 134.467 8.28794 134.523 8.23194C134.579 8.17594 134.635 8.11994 134.691 8.06394C135.027 7.69994 135.279 7.30794 135.447 6.88794C135.503 6.77594 135.573 6.69194 135.657 6.63594C135.769 6.55194 135.867 6.45394 135.951 6.34194C136.007 6.25794 136.021 6.17394 135.993 6.08994C135.993 5.97794 136.007 5.87994 136.035 5.79594C136.175 5.57194 136.273 5.44594 136.329 5.41794C136.385 5.38994 136.441 5.36194 136.497 5.33394C136.581 5.27794 136.721 5.15194 136.917 4.95594C137.001 4.81594 137.085 4.67594 137.169 4.53594C137.281 4.39594 137.393 4.25594 137.505 4.11594C137.673 3.91994 137.855 3.77994 138.051 3.69594C138.247 3.61194 138.443 3.48594 138.639 3.31794C138.695 3.26194 138.723 3.17794 138.723 3.06594C138.723 2.92594 138.751 2.82794 138.807 2.77194C139.787 1.98794 140.837 1.32994 141.957 0.797943C143.105 0.265943 143.987 -5.65052e-05 144.603 -5.65052e-05C144.827 -5.65052e-05 145.037 0.0139433 145.233 0.041943C145.457 0.0699426 145.667 0.111943 145.863 0.167944H145.947C146.087 0.167944 146.227 0.195943 146.367 0.251943C146.507 0.307944 146.633 0.363944 146.745 0.419943C146.857 0.419943 146.997 0.447943 147.165 0.503942C147.305 0.559943 147.389 0.643944 147.417 0.755944C147.445 0.867944 147.417 0.951944 147.333 1.00794C147.305 1.03594 147.263 1.03594 147.207 1.00794C147.151 0.979943 147.095 0.965944 147.039 0.965944C146.983 0.965944 146.927 0.937943 146.871 0.881942C146.815 0.825943 146.759 0.783943 146.703 0.755944C146.591 0.755944 146.465 0.769944 146.325 0.797943C146.213 0.825943 146.087 0.839943 145.947 0.839943H145.821C145.625 0.839943 145.485 0.811943 145.401 0.755944C145.345 0.671943 145.205 0.657943 144.981 0.713944C144.953 0.713944 144.869 0.727944 144.729 0.755944C144.589 0.783943 144.491 0.797943 144.435 0.797943C143.427 1.04994 142.545 1.46994 141.789 2.05794C141.033 2.61794 140.361 3.24794 139.773 3.94794C139.213 4.64794 138.667 5.31994 138.135 5.96394C137.883 6.46794 137.631 6.87394 137.379 7.18194C137.351 7.20994 137.323 7.19594 137.295 7.13994C137.267 7.08394 137.239 7.08394 137.211 7.13994C137.127 7.22394 137.057 7.36394 137.001 7.55994C136.973 7.72794 136.917 7.86794 136.833 7.97994C136.805 8.00794 136.777 7.99394 136.749 7.93794C136.721 7.88194 136.679 7.88194 136.623 7.93794C136.595 7.96594 136.553 8.07794 136.497 8.27394C136.469 8.44194 136.427 8.55394 136.371 8.60994C136.035 9.05794 135.671 9.49194 135.279 9.91194C134.887 10.3319 134.495 10.8219 134.103 11.3819C133.543 12.2499 133.011 13.1039 132.507 13.9439C132.003 14.7839 131.471 15.7079 130.911 16.7159C130.715 17.0519 130.561 17.3599 130.449 17.6399C130.365 17.8919 130.267 18.1299 130.155 18.3539C130.015 18.6899 129.945 18.9279 129.945 19.0679C129.945 19.2639 130.071 19.3059 130.323 19.1939C130.435 19.1379 130.589 18.9979 130.785 18.7739C131.009 18.5219 131.163 18.3819 131.247 18.3539C131.275 18.3259 131.317 18.3119 131.373 18.3119C131.485 18.3119 131.541 18.3539 131.541 18.4379C131.541 18.5499 131.471 18.6479 131.331 18.7319C131.219 18.7879 131.149 18.8579 131.121 18.9419C131.093 19.0259 131.023 19.1379 130.911 19.2779C130.827 19.3339 130.771 19.4179 130.743 19.5299C130.715 19.6419 130.687 19.7119 130.659 19.7399C130.631 19.7959 130.617 19.8799 130.617 19.9919C130.617 20.0759 130.547 20.1739 130.407 20.2859C130.379 20.3139 130.351 20.3699 130.323 20.4539C130.323 20.5379 130.309 20.6079 130.281 20.6639C130.253 20.7479 130.197 20.8179 130.113 20.8739C130.057 20.9019 130.029 20.9299 130.029 20.9579C130.001 21.0699 129.945 21.1399 129.861 21.1679C129.805 21.1679 129.749 21.1959 129.693 21.2519C129.665 21.2799 129.665 21.3219 129.693 21.3779C129.721 21.4339 129.707 21.4899 129.651 21.5459L129.231 22.4279C129.203 22.4839 129.161 22.5399 129.105 22.5959C129.077 22.6519 129.035 22.6939 128.979 22.7219C128.951 22.7219 128.895 22.7079 128.811 22.6799C128.755 22.6519 128.727 22.6659 128.727 22.7219C128.699 22.7499 128.699 22.8339 128.727 22.9739C128.783 23.0859 128.769 23.1699 128.685 23.2259C128.601 23.2819 128.517 23.3939 128.433 23.5619C128.377 23.7579 128.321 23.8839 128.265 23.9399C128.153 24.0519 128.055 24.1219 127.971 24.1499C127.887 24.2059 127.803 24.2899 127.719 24.4019C127.691 24.4299 127.593 24.5419 127.425 24.7379C127.257 24.9619 127.131 24.9759 127.047 24.7799ZM139.353 23.9399C139.073 23.9399 138.863 23.8839 138.723 23.7719C138.667 23.7439 138.597 23.7019 138.513 23.6459C138.457 23.5899 138.401 23.5619 138.345 23.5619H138.261C138.233 23.5619 138.191 23.5199 138.135 23.4359C138.079 23.3799 138.023 23.3379 137.967 23.3099C137.939 23.3099 137.841 23.2539 137.673 23.1419C137.505 23.0019 137.393 22.9179 137.337 22.8899C137.309 22.8619 137.281 22.8339 137.253 22.8059C137.253 22.7499 137.239 22.7219 137.211 22.7219H137.127C137.127 22.7219 137.127 22.6939 137.127 22.6379C137.043 22.5259 136.959 22.4279 136.875 22.3439C136.791 22.2599 136.735 22.1619 136.707 22.0499L136.623 22.0919C136.595 22.0359 136.553 21.9799 136.497 21.9239C136.469 21.8399 136.427 21.7839 136.371 21.7559C136.371 21.6999 136.287 21.5739 136.119 21.3779C135.979 21.1819 135.881 21.0699 135.825 21.0419C135.825 20.9579 135.797 20.8879 135.741 20.8319C135.685 20.7479 135.629 20.6779 135.573 20.6219C135.573 20.5379 135.573 20.4959 135.573 20.4959C135.517 20.3559 135.433 20.2439 135.321 20.1599C135.237 20.0479 135.167 19.9359 135.111 19.8239C135.055 19.7119 135.013 19.6139 134.985 19.5299C134.985 19.4459 134.985 19.3899 134.985 19.3619C134.929 19.2779 134.803 19.1379 134.607 18.9419L134.565 18.8999C134.565 18.8439 134.551 18.7739 134.523 18.6899C134.495 18.6059 134.467 18.5359 134.439 18.4799C134.355 18.4239 134.285 18.3259 134.229 18.1859C134.201 18.0459 134.159 17.9339 134.103 17.8499V17.6819L133.767 17.1359C133.739 17.0799 133.725 17.0239 133.725 16.9679C133.725 16.9119 133.697 16.8559 133.641 16.7999C133.501 16.7719 133.487 16.6599 133.599 16.4639C133.515 16.2679 133.431 16.1699 133.347 16.1699C133.291 16.1699 133.235 16.2119 133.179 16.2959C133.123 16.3519 133.081 16.3939 133.053 16.4219C133.025 16.4219 132.983 16.4919 132.927 16.6319C132.871 16.7439 132.829 16.8139 132.801 16.8419C132.773 17.0099 132.689 17.1359 132.549 17.2199C132.437 17.3039 132.353 17.4159 132.297 17.5559C132.101 17.9759 131.905 18.1579 131.709 18.1019C131.681 18.1019 131.667 18.0739 131.667 18.0179C131.667 17.9899 131.667 17.9479 131.667 17.8919C131.667 17.8079 131.695 17.7099 131.751 17.5979L131.919 17.2619C131.975 17.2059 132.031 17.1499 132.087 17.0939C132.171 17.0099 132.241 16.9399 132.297 16.8839C132.549 16.5759 132.745 16.3099 132.885 16.0859C133.025 15.8339 133.319 15.5679 133.767 15.2879C133.907 15.2039 134.005 15.1199 134.061 15.0359C134.229 15.0079 134.355 14.8819 134.439 14.6579L134.523 14.6999C134.551 14.6439 134.579 14.6159 134.607 14.6159C134.663 14.6159 134.705 14.6019 134.733 14.5739C135.125 14.2659 135.475 14.0139 135.783 13.8179C136.119 13.5939 136.483 13.3419 136.875 13.0619C136.875 13.0619 136.959 12.9779 137.127 12.8099C137.295 12.6419 137.407 12.5439 137.463 12.5159C137.491 12.4879 137.561 12.4739 137.673 12.4739C137.729 12.4459 137.813 12.3899 137.925 12.3059C138.037 12.2219 138.107 12.1659 138.135 12.1379C138.191 12.1379 138.247 12.1239 138.303 12.0959C138.359 12.0679 138.401 12.0539 138.429 12.0539C138.625 11.8019 138.877 11.6479 139.185 11.5919C139.185 11.5639 139.185 11.5499 139.185 11.5499C139.213 11.5219 139.227 11.4939 139.227 11.4659H139.311C139.339 11.4659 139.367 11.4519 139.395 11.4239C139.423 11.3959 139.451 11.3819 139.479 11.3819C139.535 11.3539 139.605 11.3259 139.689 11.2979C139.801 11.2419 139.857 11.1859 139.857 11.1299C139.857 11.1019 139.885 11.1159 139.941 11.1719C139.969 11.1719 140.053 11.1579 140.193 11.1299C140.361 11.1019 140.459 11.0739 140.487 11.0459L140.529 11.0879L140.781 10.9199L141.201 10.8359C141.285 10.8079 141.397 10.7799 141.537 10.7519C141.705 10.7239 141.831 10.7239 141.915 10.7519C141.915 10.7519 141.929 10.7659 141.957 10.7939C142.125 10.7939 142.167 10.9199 142.083 11.1719C141.999 11.4239 141.873 11.6619 141.705 11.8859C141.537 12.1099 141.411 12.2079 141.327 12.1799C141.327 12.1799 141.313 12.1659 141.285 12.1379C141.257 12.1379 141.173 12.1659 141.033 12.2219C140.893 12.2499 140.795 12.2639 140.739 12.2639C140.711 12.2359 140.683 12.2219 140.655 12.2219C140.627 12.2499 140.585 12.3059 140.529 12.3899C140.501 12.4459 140.445 12.5019 140.361 12.5579C140.333 12.5859 140.123 12.6279 139.731 12.6839C139.339 12.7399 139.115 12.7539 139.059 12.7259H139.017C138.933 12.7259 138.681 12.8239 138.261 13.0199C137.869 13.1879 137.617 13.2999 137.505 13.3559C137.449 13.3839 137.393 13.3979 137.337 13.3979C137.281 13.3699 137.225 13.3839 137.169 13.4399C137.085 13.4679 137.001 13.5099 136.917 13.5659C136.861 13.6219 136.791 13.6779 136.707 13.7339C136.511 13.9019 136.161 14.1119 135.657 14.3639C135.181 14.6159 134.859 14.8959 134.691 15.2039C134.607 15.3159 134.593 15.4139 134.649 15.4979C134.733 15.5819 134.761 15.6379 134.733 15.6659L136.497 18.8159C136.553 18.8719 136.609 18.9559 136.665 19.0679C136.749 19.1799 136.805 19.2639 136.833 19.3199C136.889 19.3479 136.931 19.3899 136.959 19.4459C136.987 19.5019 137.029 19.5579 137.085 19.6139C137.141 19.7819 137.253 19.9359 137.421 20.0759C137.589 20.2159 137.659 20.3559 137.631 20.4959L137.841 20.6639C137.869 20.6639 137.883 20.6919 137.883 20.7479C137.911 20.7759 137.953 20.7899 138.009 20.7899C138.009 20.8179 138.051 20.9019 138.135 21.0419C138.247 21.1819 138.317 21.2799 138.345 21.3359L138.387 21.2939C138.471 21.4339 138.569 21.5739 138.681 21.7139C138.821 21.8259 138.947 21.9379 139.059 22.0499L139.227 22.1339C139.283 22.1619 139.339 22.2179 139.395 22.3019C139.451 22.3579 139.493 22.3859 139.521 22.3859H139.563C139.675 22.3859 139.745 22.4139 139.773 22.4699C139.829 22.4979 139.899 22.5119 139.983 22.5119C140.011 22.5399 140.025 22.5679 140.025 22.5959C140.053 22.5959 140.081 22.6099 140.109 22.6379C140.137 22.6379 140.151 22.6379 140.151 22.6379C140.179 22.6099 140.207 22.5959 140.235 22.5959C140.291 22.5959 140.305 22.6099 140.277 22.6379C140.277 22.6379 140.291 22.6379 140.319 22.6379H140.403C140.571 22.6379 140.781 22.6099 141.033 22.5539C141.313 22.4699 141.467 22.3719 141.495 22.2599C141.551 22.2599 141.593 22.2179 141.621 22.1339C141.733 22.0779 141.789 22.0359 141.789 22.0079C141.789 21.9519 141.803 21.8959 141.831 21.8399L141.957 21.7559C142.013 21.6159 142.041 21.4059 142.041 21.1259C142.069 20.8459 142.097 20.6499 142.125 20.5379C142.181 20.3139 142.195 20.1459 142.167 20.0339C142.139 19.9219 142.139 19.7679 142.167 19.5719C142.167 19.5159 142.153 19.4739 142.125 19.4459C142.097 19.3899 142.083 19.3479 142.083 19.3199V19.2359C142.083 19.1239 142.055 19.0259 141.999 18.9419C141.971 18.8299 141.929 18.7179 141.873 18.6059L141.747 18.1859C141.747 18.1579 141.733 18.1439 141.705 18.1439C141.705 18.1159 141.705 18.1019 141.705 18.1019C141.705 17.9619 141.761 17.8919 141.873 17.8919C141.957 17.8919 142.069 18.0039 142.209 18.2279L142.503 18.7739C142.615 18.8019 142.657 18.8299 142.629 18.8579C142.601 18.8859 142.601 18.9559 142.629 19.0679L142.713 19.2359V19.2779C142.713 19.3619 142.755 19.4739 142.839 19.6139C142.923 19.7259 142.979 19.8099 143.007 19.8659C143.035 19.9779 143.063 20.0899 143.091 20.2019C143.147 20.3139 143.147 20.4399 143.091 20.5799L143.049 20.9579C143.021 20.9859 142.993 21.0279 142.965 21.0839C142.937 21.1399 142.881 21.1819 142.797 21.2099C142.741 21.2379 142.671 21.2239 142.587 21.1679C142.503 21.1119 142.461 21.1119 142.461 21.1679C142.405 21.2239 142.405 21.2799 142.461 21.3359C142.405 21.3919 142.363 21.4619 142.335 21.5459C142.335 21.6299 142.321 21.7139 142.293 21.7979C142.293 21.8259 142.279 21.8539 142.251 21.8819C142.223 21.8819 142.209 21.8959 142.209 21.9239C142.181 21.9519 142.167 21.9939 142.167 22.0499C142.167 22.0779 142.153 22.1059 142.125 22.1339C142.097 22.1899 142.027 22.3299 141.915 22.5539C141.803 22.7779 141.691 23.0019 141.579 23.2259C141.467 23.4219 141.397 23.5339 141.369 23.5619L140.949 23.7299C140.921 23.7299 140.907 23.7019 140.907 23.6459C140.851 23.6739 140.795 23.7019 140.739 23.7299C140.683 23.7859 140.627 23.8279 140.571 23.8559H140.319C140.291 23.8559 140.249 23.8699 140.193 23.8979C140.165 23.9259 140.123 23.9259 140.067 23.8979H140.025L139.941 23.9399C139.885 23.8839 139.857 23.8559 139.857 23.8559C139.829 23.8279 139.759 23.8279 139.647 23.8559C139.563 23.9119 139.465 23.9399 139.353 23.9399ZM145.692 23.3519C144.992 23.3519 144.376 23.1559 143.844 22.7639C143.312 22.3719 143.046 21.6999 143.046 20.7479C143.046 20.3839 143.088 20.0199 143.172 19.6559C143.256 19.2639 143.354 18.8859 143.466 18.5219C143.522 18.1579 143.606 17.8359 143.718 17.5559C143.746 17.4439 143.76 17.3879 143.76 17.3879C143.788 17.3599 143.858 17.3179 143.97 17.2619L144.306 16.7579V16.5899C144.278 16.5899 144.264 16.5899 144.264 16.5899C144.264 16.5619 144.264 16.5479 144.264 16.5479C144.264 16.4639 144.334 16.3659 144.474 16.2539C144.614 16.1419 144.684 16.0859 144.684 16.0859C144.712 15.9459 144.754 15.8759 144.81 15.8759C144.866 15.8759 144.936 15.8339 145.02 15.7499H145.482V15.6659C145.482 15.5259 145.412 15.4699 145.272 15.4979C145.16 15.4979 145.104 15.4839 145.104 15.4559C145.104 15.4279 145.146 15.3719 145.23 15.2879C145.342 15.1759 145.412 15.1059 145.44 15.0779C145.524 14.9659 145.594 14.8679 145.65 14.7839C145.706 14.6719 145.79 14.5879 145.902 14.5319C146.406 13.9159 146.714 13.5239 146.826 13.3559C146.966 13.1879 147.106 13.0619 147.246 12.9779C147.302 12.9779 147.344 13.0059 147.372 13.0619C147.428 13.0899 147.428 13.1319 147.372 13.1879C147.428 13.2719 147.47 13.2859 147.498 13.2299C147.554 13.1739 147.582 13.1459 147.582 13.1459L147.75 13.0619C147.694 13.0059 147.666 12.9359 147.666 12.8519C147.666 12.7119 147.694 12.5999 147.75 12.5159C147.806 12.4039 147.904 12.2919 148.044 12.1799C148.212 12.0679 148.296 11.9979 148.296 11.9699C148.464 11.9139 148.59 11.8579 148.674 11.8019C148.786 11.7459 148.898 11.7179 149.01 11.7179C149.206 11.7179 149.402 11.7879 149.598 11.9279C150.13 12.2079 150.578 12.4879 150.942 12.7679C151.306 13.0479 151.488 13.4399 151.488 13.9439C151.488 14.4759 151.264 14.9379 150.816 15.3299C150.396 15.6939 149.878 16.0019 149.262 16.2539C148.646 16.5059 148.03 16.7159 147.414 16.8839C146.826 17.0239 146.364 17.1359 146.028 17.2199C145.832 17.2479 145.734 17.3319 145.734 17.4719C145.762 17.5839 145.748 17.7099 145.692 17.8499L145.398 18.3119L145.146 18.8999L144.936 19.2779C144.74 19.4459 144.67 19.5719 144.726 19.6559C144.782 19.7399 144.88 19.7259 145.02 19.6139C145.048 19.6419 145.062 19.6839 145.062 19.7399C145.062 19.8519 145.034 19.9919 144.978 20.1599C144.922 20.2999 144.88 20.4119 144.852 20.4959C144.824 20.6079 144.824 20.6639 144.852 20.6639C144.908 20.6359 144.936 20.6919 144.936 20.8319L144.978 21.4199C145.146 21.9519 145.524 22.2599 146.112 22.3439C146.168 22.3439 146.224 22.3579 146.28 22.3859C146.364 22.3859 146.434 22.3859 146.49 22.3859C146.994 22.3859 147.26 22.3439 147.288 22.2599C147.344 22.1759 147.414 22.1199 147.498 22.0919C147.75 22.0359 147.96 21.9799 148.128 21.9239C148.324 21.8679 148.52 21.7839 148.716 21.6719C149.052 21.5319 149.374 21.3499 149.682 21.1259C149.99 20.9019 150.312 20.6779 150.648 20.4539L151.068 20.1599C151.096 20.1039 151.096 20.0619 151.068 20.0339C151.04 20.0059 151.04 19.9779 151.068 19.9499C151.124 19.9219 151.166 19.9219 151.194 19.9499C151.25 19.9499 151.292 19.9359 151.32 19.9079C151.376 19.8799 151.432 19.8379 151.488 19.7819C151.544 19.6979 151.6 19.6279 151.656 19.5719C151.712 19.5159 151.74 19.4599 151.74 19.4039C151.768 19.3479 151.81 19.2919 151.866 19.2359C152.09 19.0119 152.314 18.7739 152.538 18.5219C152.79 18.2699 153 18.0459 153.168 17.8499C153.364 17.5699 153.518 17.4299 153.63 17.4299C153.686 17.4299 153.714 17.4579 153.714 17.5139C153.714 17.6539 153.616 17.8639 153.42 18.1439C152.944 18.8439 152.398 19.5299 151.782 20.2019C151.166 20.8459 150.494 21.4339 149.766 21.9659C149.234 22.3299 148.604 22.6519 147.876 22.9319C147.148 23.2119 146.42 23.3519 145.692 23.3519ZM146.322 16.5899C146.742 16.5619 147.288 16.4499 147.96 16.2539C148.632 16.0299 149.192 15.7359 149.64 15.3719C150.116 14.9799 150.354 14.5459 150.354 14.0699C150.354 13.6219 150.116 13.1879 149.64 12.7679C149.248 13.0479 148.814 13.4539 148.338 13.9859C147.89 14.4899 147.484 14.9939 147.12 15.4979C146.756 15.9739 146.49 16.3379 146.322 16.5899ZM154.205 23.1839C153.925 23.1839 153.631 23.1279 153.323 23.0159C153.015 22.8759 152.903 22.7219 152.987 22.5539C153.099 22.3299 153.225 22.1059 153.365 21.8819C153.533 21.6299 153.687 21.3639 153.827 21.0839L154.289 20.2019C154.345 20.0619 154.401 19.9639 154.457 19.9079C154.541 19.8239 154.611 19.7259 154.667 19.6139C154.695 19.5859 154.709 19.5159 154.709 19.4039C154.709 19.2639 154.765 19.1099 154.877 18.9419C155.017 18.7459 155.115 18.5639 155.171 18.3959C155.199 18.3679 155.227 18.4519 155.255 18.6479C155.283 18.8439 155.353 18.8299 155.465 18.6059C155.493 18.5779 155.479 18.5359 155.423 18.4799C155.395 18.4239 155.381 18.3679 155.381 18.3119C155.381 18.2559 155.395 18.2279 155.423 18.2279C155.479 18.1999 155.507 18.1719 155.507 18.1439C155.535 18.0599 155.507 18.0319 155.423 18.0599C155.367 18.0599 155.339 18.0459 155.339 18.0179C155.395 17.9339 155.451 17.8779 155.507 17.8499C155.591 17.8219 155.647 17.7799 155.675 17.7239C155.675 17.6679 155.647 17.6399 155.591 17.6399C155.563 17.6119 155.563 17.5839 155.591 17.5559C155.731 17.1639 155.885 16.7019 156.053 16.1699C156.221 15.6379 156.347 15.1479 156.431 14.6999C156.431 14.6999 156.403 14.6859 156.347 14.6579C156.291 14.6019 156.263 14.5459 156.263 14.4899L155.969 14.2799C155.633 14.5879 155.269 14.8539 154.877 15.0779C154.849 15.1059 154.793 15.1199 154.709 15.1199C154.597 15.1199 154.527 15.0639 154.499 14.9519C154.471 14.8399 154.513 14.7419 154.625 14.6579C154.765 14.5739 154.877 14.5179 154.961 14.4899C155.045 14.4339 155.143 14.3499 155.255 14.2379C155.311 14.1819 155.339 14.1259 155.339 14.0699C155.367 14.0139 155.395 13.9579 155.423 13.9019L155.591 13.6919C155.591 13.5519 155.619 13.4399 155.675 13.3559C155.731 13.2999 155.773 13.2719 155.801 13.2719C155.829 13.2719 155.843 13.2719 155.843 13.2719V13.1879C155.843 13.0759 155.885 13.0059 155.969 12.9779C156.081 12.9499 156.137 12.9079 156.137 12.8519C156.193 12.4599 156.529 12.1659 157.145 11.9699C157.761 11.7739 158.307 11.6759 158.783 11.6759C159.259 11.6759 159.497 11.7459 159.497 11.8859C159.497 11.9699 159.413 12.0679 159.245 12.1799C159.161 12.2359 159.021 12.3619 158.825 12.5579C158.629 12.7539 158.447 12.9919 158.279 13.2719L157.985 13.7759L157.691 14.1539C157.495 14.6019 157.215 15.2879 156.851 16.2119C156.487 17.1359 156.109 18.2979 155.717 19.6979C155.801 19.5859 155.997 19.3479 156.305 18.9839C156.613 18.6199 156.977 18.1999 157.397 17.7239C157.817 17.2479 158.223 16.7999 158.615 16.3799C159.007 15.9319 159.329 15.5819 159.581 15.3299L159.791 15.2039C159.847 15.1479 159.903 15.0779 159.959 14.9939C160.043 14.8819 160.113 14.7979 160.169 14.7419C160.197 14.7139 160.211 14.7699 160.211 14.9099C160.239 15.0219 160.267 15.0639 160.295 15.0359C160.407 14.9519 160.463 14.8259 160.463 14.6579C160.491 14.4899 160.561 14.3779 160.673 14.3219C160.981 14.0699 161.401 13.7199 161.933 13.2719C162.493 12.7959 163.067 12.5159 163.655 12.4319C163.711 12.3759 163.795 12.3619 163.907 12.3899C164.047 12.3899 164.145 12.3759 164.201 12.3479C164.257 12.3479 164.299 12.3339 164.327 12.3059C164.355 12.2779 164.425 12.2639 164.537 12.2639C164.593 12.2639 164.705 12.3059 164.873 12.3899C165.069 12.4739 165.181 12.5859 165.209 12.7259C165.377 12.8379 165.461 13.0059 165.461 13.2299C165.461 13.6219 165.251 13.9159 164.831 14.1119C164.691 14.2519 164.537 14.3919 164.369 14.5319C164.201 14.6439 164.033 14.7699 163.865 14.9099C163.809 14.9659 163.767 14.9939 163.739 14.9939C163.543 15.1619 163.375 15.3439 163.235 15.5399C163.095 15.7359 163.025 15.9879 163.025 16.2959C163.025 16.3239 163.053 16.3659 163.109 16.4219C163.165 16.4499 163.179 16.4779 163.151 16.5059C163.235 16.5899 163.361 16.6459 163.529 16.6739C163.697 16.6739 163.865 16.6739 164.033 16.6739C164.313 16.6739 164.733 16.5619 165.293 16.3379H165.377C165.405 16.3379 165.419 16.3519 165.419 16.3799C165.419 16.4359 165.363 16.5339 165.251 16.6739C165.139 16.7859 165.013 16.8699 164.873 16.9259C164.565 17.0379 164.243 17.1079 163.907 17.1359C163.571 17.1359 163.333 17.1359 163.193 17.1359C162.689 17.1359 162.367 17.0379 162.227 16.8419C162.115 16.6459 162.003 16.4079 161.891 16.1279V15.9179L162.101 15.7079C162.073 15.6239 162.031 15.5399 161.975 15.4559C161.919 15.3719 161.891 15.2739 161.891 15.1619C161.891 14.8819 162.003 14.5599 162.227 14.1959C161.919 14.2799 161.527 14.5179 161.051 14.9099C160.603 15.2739 160.141 15.7079 159.665 16.2119C159.189 16.6879 158.755 17.1639 158.363 17.6399C157.971 18.0879 157.663 18.4519 157.439 18.7319C157.355 18.8439 157.257 18.9139 157.145 18.9419C157.061 18.9419 156.991 18.9839 156.935 19.0679C156.907 19.0959 156.935 19.1099 157.019 19.1099C157.131 19.1099 157.173 19.1239 157.145 19.1519C156.781 19.7119 156.389 20.3279 155.969 20.9999C155.577 21.6719 155.185 22.3299 154.793 22.9739C154.709 23.1139 154.513 23.1839 154.205 23.1839ZM168.733 23.4359C168.705 23.4359 168.663 23.4079 168.607 23.3519C168.551 23.3239 168.509 23.3099 168.481 23.3099C168.369 23.3379 168.271 23.3519 168.187 23.3519C168.103 23.3519 168.019 23.3519 167.935 23.3519C167.907 23.3519 167.879 23.3379 167.851 23.3099C167.851 23.2819 167.837 23.2679 167.809 23.2679C167.781 23.2679 167.767 23.2679 167.767 23.2679C167.795 23.2959 167.795 23.3099 167.767 23.3099C167.767 23.3099 167.739 23.2959 167.683 23.2679C167.627 23.2399 167.585 23.2259 167.557 23.2259L167.515 23.1839C167.459 23.1839 167.417 23.1699 167.389 23.1419C167.389 23.1139 167.375 23.0999 167.347 23.0999L167.305 23.1419L167.263 23.0999C167.207 23.0719 167.123 23.0439 167.011 23.0159C166.927 22.9599 166.857 22.9179 166.801 22.8899C166.745 22.8899 166.675 22.8479 166.591 22.7639H166.507C166.451 22.6799 166.353 22.6239 166.213 22.5959C166.213 22.5679 166.199 22.5399 166.171 22.5119H166.129C166.073 22.4279 166.031 22.3999 166.003 22.4279C165.975 22.3719 165.933 22.3299 165.877 22.3019C165.849 22.2459 165.807 22.2039 165.751 22.1759C165.751 22.0639 165.723 22.0079 165.667 22.0079C165.667 21.9519 165.611 21.8679 165.499 21.7559C165.415 21.6439 165.359 21.5459 165.331 21.4619L165.289 21.4199C165.177 21.3079 165.093 21.1259 165.037 20.8739C165.009 20.7619 164.981 20.7199 164.953 20.7479C164.953 20.7759 164.939 20.7059 164.911 20.5379C164.911 20.5099 164.911 20.4679 164.911 20.4119C164.939 20.3279 164.939 20.2719 164.911 20.2439C164.911 20.2159 164.897 20.2019 164.869 20.2019C164.869 20.1739 164.869 20.1459 164.869 20.1179C164.841 20.0899 164.827 20.0759 164.827 20.0759C164.855 20.0479 164.869 20.0339 164.869 20.0339C164.869 19.9779 164.855 19.9499 164.827 19.9499C164.827 19.9219 164.827 19.8939 164.827 19.8659V19.7819C164.827 19.6419 164.855 19.5439 164.911 19.4879C164.911 19.4319 164.925 19.3899 164.953 19.3619C164.981 19.3339 164.995 19.3059 164.995 19.2779C164.995 19.2219 165.023 19.1939 165.079 19.1939C165.135 19.1939 165.163 19.1799 165.163 19.1519C165.163 19.0959 165.177 19.0679 165.205 19.0679C165.261 19.0399 165.303 19.0119 165.331 18.9839C165.331 18.9559 165.345 18.9279 165.373 18.8999C165.429 18.8719 165.457 18.8439 165.457 18.8159C165.597 18.7319 165.751 18.6899 165.919 18.6899C166.255 18.6899 166.423 18.7739 166.423 18.9419C166.423 18.9979 166.339 19.0959 166.171 19.2359C166.143 19.3199 166.129 19.3759 166.129 19.4039C166.157 19.4039 166.143 19.4319 166.087 19.4879C166.115 19.5719 166.129 19.6839 166.129 19.8239C166.101 19.8239 166.087 19.8659 166.087 19.9499C166.115 20.0059 166.129 20.0339 166.129 20.0339C166.129 20.0619 166.143 20.1459 166.171 20.2859C166.227 20.4259 166.269 20.5099 166.297 20.5379C166.297 20.5379 166.325 20.6079 166.381 20.7479C166.437 20.8599 166.465 20.9299 166.465 20.9579V21.0419C166.521 21.1259 166.549 21.1819 166.549 21.2099C166.577 21.2099 166.689 21.2659 166.885 21.3779C166.913 21.4059 166.969 21.4199 167.053 21.4199C167.193 21.5039 167.291 21.5739 167.347 21.6299C167.431 21.6859 167.627 21.7419 167.935 21.7979C168.047 21.8259 168.089 21.8539 168.061 21.8819C168.061 21.8819 168.117 21.8819 168.229 21.8819C168.229 21.8819 168.229 21.8959 168.229 21.9239C168.229 21.9239 168.243 21.9239 168.271 21.9239C168.327 21.8959 168.383 21.8959 168.439 21.9239C168.495 21.9239 168.551 21.9099 168.607 21.8819H168.775C168.971 21.8819 169.181 21.8539 169.405 21.7979L170.035 21.6299C170.231 21.6019 170.413 21.5459 170.581 21.4619C170.749 21.3779 170.903 21.2939 171.043 21.2099C171.071 21.2099 171.155 21.1679 171.295 21.0839C171.435 20.9719 171.603 20.8599 171.799 20.7479C171.771 20.6639 171.757 20.5519 171.757 20.4119C171.757 20.3279 171.799 20.2859 171.883 20.2859C171.967 20.2579 172.023 20.2159 172.051 20.1599C171.967 20.1039 171.855 20.0759 171.715 20.0759C171.603 20.0759 171.561 20.0339 171.589 19.9499C171.477 19.3339 171.309 18.7739 171.085 18.2699C170.889 17.7659 170.651 17.2059 170.371 16.5899C170.343 16.5059 170.287 16.3659 170.203 16.1699C170.119 15.9739 170.063 15.8199 170.035 15.7079C170.035 15.6799 170.063 15.6799 170.119 15.7079C170.175 15.7079 170.189 15.6939 170.161 15.6659C170.133 15.5259 170.105 15.3859 170.077 15.2459C170.077 15.1059 170.063 14.9799 170.035 14.8679C170.007 14.8119 170.035 14.7699 170.119 14.7419C170.203 14.7139 170.231 14.6719 170.203 14.6159C170.175 14.5599 170.119 14.5459 170.035 14.5739C169.951 14.6019 169.895 14.5879 169.867 14.5319L169.741 14.0279C169.741 13.8879 169.713 13.8039 169.657 13.7759C169.629 13.7479 169.657 13.6919 169.741 13.6079C169.797 13.5799 169.825 13.5379 169.825 13.4819C169.825 13.3979 169.839 13.3419 169.867 13.3139C170.007 13.2299 170.063 13.1319 170.035 13.0199C170.007 12.8799 170.035 12.7539 170.119 12.6419C170.203 12.5299 170.273 12.4319 170.329 12.3479C170.385 12.2359 170.469 12.1659 170.581 12.1379C170.665 12.0819 170.693 12.0959 170.665 12.1799C170.637 12.2639 170.637 12.3059 170.665 12.3059C170.805 12.3059 170.861 12.2359 170.833 12.0959C170.805 11.9559 170.847 11.8299 170.959 11.7179C171.155 11.5499 171.449 11.4099 171.841 11.2979C172.233 11.1859 172.527 11.1159 172.723 11.0879C172.779 11.0879 172.821 11.0879 172.849 11.0879C172.905 11.0599 172.947 11.0459 172.975 11.0459C173.115 11.0459 173.255 11.0599 173.395 11.0879C173.563 11.1159 173.717 11.1439 173.857 11.1719C173.969 11.1999 174.137 11.3119 174.361 11.5079C174.585 11.6759 174.753 11.7179 174.865 11.6339C175.117 11.4099 175.383 11.2139 175.663 11.0459C175.971 10.8779 176.167 10.8079 176.251 10.8359C176.475 10.8639 176.671 10.9339 176.839 11.0459C177.007 11.1299 177.063 11.4099 177.007 11.8859C176.979 12.0539 176.909 12.1939 176.797 12.3059C176.713 12.3899 176.629 12.5019 176.545 12.6419L176.251 13.0619C176.139 13.2579 175.999 13.4539 175.831 13.6499C175.691 13.8459 175.565 13.9719 175.453 14.0279C175.341 14.0839 175.229 14.1819 175.117 14.3219C175.033 14.4339 174.921 14.5459 174.781 14.6579C174.641 14.7699 174.487 14.8539 174.319 14.9099C174.179 14.9379 174.081 14.9659 174.025 14.9939C173.941 15.0219 173.815 15.0359 173.647 15.0359C173.507 15.0079 173.465 14.9519 173.521 14.8679C173.577 14.8399 173.591 14.8119 173.563 14.7839C173.535 14.7279 173.521 14.6859 173.521 14.6579C173.521 14.6019 173.549 14.5599 173.605 14.5319C173.689 14.5039 173.745 14.4619 173.773 14.4059C173.801 14.3779 173.871 14.2799 173.983 14.1119C174.123 13.9439 174.179 13.8459 174.151 13.8179C174.151 13.7339 174.179 13.6639 174.235 13.6079C174.235 13.5519 174.235 13.5099 174.235 13.4819C174.235 13.4259 174.263 13.3839 174.319 13.3559C174.431 13.3279 174.487 13.2859 174.487 13.2299V12.7259C174.487 12.6139 174.473 12.5019 174.445 12.3899C174.445 12.2779 174.417 12.1799 174.361 12.0959C174.137 11.8159 173.773 11.6759 173.269 11.6759C172.905 11.6759 172.555 11.7599 172.219 11.9279C171.855 12.0959 171.547 12.3759 171.295 12.7679C171.099 13.0479 171.001 13.3419 171.001 13.6499C171.001 13.8739 171.043 14.0979 171.127 14.3219C171.239 14.5459 171.337 14.7559 171.421 14.9519C171.505 15.1479 171.617 15.3859 171.757 15.6659C171.925 15.9459 172.051 16.1699 172.135 16.3379C172.275 16.5619 172.429 16.8279 172.597 17.1359C172.765 17.4159 172.891 17.6819 172.975 17.9339C173.003 17.9619 172.975 17.9899 172.891 18.0179C172.835 18.0179 172.821 18.0459 172.849 18.1019C172.877 18.1579 172.919 18.1859 172.975 18.1859C173.031 18.1859 173.073 18.2139 173.101 18.2699C173.157 18.3539 173.157 18.4239 173.101 18.4799C173.073 18.5359 173.073 18.6199 173.101 18.7319C173.101 18.7599 173.129 18.7879 173.185 18.8159C173.241 18.8439 173.269 18.8719 173.269 18.8999C173.409 19.2639 173.479 19.5579 173.479 19.7819C173.731 19.6419 174.011 19.4739 174.319 19.2779C174.627 19.0819 174.795 18.8999 174.823 18.7319C174.851 18.6759 174.893 18.6619 174.949 18.6899C175.033 18.6899 175.075 18.7179 175.075 18.7739C175.047 18.9699 174.809 19.2359 174.361 19.5719C173.941 19.9079 173.619 20.1459 173.395 20.2859C173.423 20.3139 173.409 20.3839 173.353 20.4959C173.297 20.6079 173.283 20.6919 173.311 20.7479C173.311 20.7759 173.297 20.8179 173.269 20.8739C173.241 20.9019 173.213 20.9439 173.185 20.9999C173.185 21.1119 173.157 21.1959 173.101 21.2519V21.3359L172.975 21.4199C172.947 21.4479 172.905 21.5179 172.849 21.6299C172.821 21.7139 172.779 21.7839 172.723 21.8399H172.597C172.541 21.8959 172.513 21.9659 172.513 22.0499C172.457 22.1339 172.331 22.2319 172.135 22.3439C171.939 22.4279 171.813 22.5119 171.757 22.5959C171.757 22.5959 171.743 22.5959 171.715 22.5959C171.687 22.5959 171.645 22.6239 171.589 22.6799H171.463C171.435 22.6799 171.407 22.7079 171.379 22.7639C171.351 22.7919 171.323 22.8199 171.295 22.8479C171.211 22.8479 171.169 22.8759 171.169 22.9319C171.057 22.9319 170.973 22.9459 170.917 22.9739L170.497 23.0579C170.385 23.1699 170.287 23.2259 170.203 23.2259L170.161 23.1839C170.105 23.2399 170.063 23.2679 170.035 23.2679H169.867C169.839 23.2679 169.811 23.2819 169.783 23.3099C169.755 23.3379 169.727 23.3519 169.699 23.3519H169.615C169.587 23.3519 169.559 23.3519 169.531 23.3519C169.531 23.3799 169.503 23.3939 169.447 23.3939C169.363 23.3939 169.237 23.3939 169.069 23.3939C168.929 23.3939 168.817 23.4079 168.733 23.4359ZM168.313 23.0579C168.313 23.0579 168.341 23.0579 168.397 23.0579C168.481 23.0299 168.537 23.0159 168.565 23.0159C168.705 23.0159 168.831 23.0299 168.943 23.0579C169.055 23.0579 169.167 23.0579 169.279 23.0579C169.335 23.0579 169.363 23.0299 169.363 22.9739H169.447C169.531 22.8899 169.573 22.8759 169.573 22.9319C169.601 22.9879 169.643 22.9879 169.699 22.9319C169.755 22.9319 169.783 22.9179 169.783 22.8899L169.951 22.8059C169.979 22.8059 169.993 22.8059 169.993 22.8059C169.993 22.7779 170.007 22.7639 170.035 22.7639H170.119C170.175 22.7639 170.231 22.7359 170.287 22.6799C170.343 22.6239 170.371 22.5959 170.371 22.5959C170.371 22.5959 170.413 22.5539 170.497 22.4699C170.497 22.4699 170.511 22.4699 170.539 22.4699C170.567 22.4419 170.595 22.4279 170.623 22.4279C170.679 22.3719 170.735 22.3439 170.791 22.3439C170.791 22.3159 170.819 22.2879 170.875 22.2599C170.931 22.2039 170.959 22.1759 170.959 22.1759C170.987 22.1479 171.015 22.1339 171.043 22.1339C171.099 22.1059 171.127 22.0779 171.127 22.0499C171.183 22.0499 171.295 21.9519 171.463 21.7559C171.631 21.5599 171.743 21.3219 171.799 21.0419C171.799 20.9859 171.715 21.0279 171.547 21.1679C171.379 21.2799 171.295 21.3359 171.295 21.3359C171.211 21.3639 171.127 21.4199 171.043 21.5039C170.959 21.5599 170.889 21.5879 170.833 21.5879C170.805 21.5879 170.763 21.6159 170.707 21.6719C170.679 21.6999 170.651 21.7139 170.623 21.7139C170.595 21.7139 170.581 21.7279 170.581 21.7559C170.581 21.7559 170.553 21.7419 170.497 21.7139C170.469 21.7699 170.385 21.8259 170.245 21.8819C170.105 21.9379 170.007 21.9659 169.951 21.9659H169.825L169.783 22.0079C169.783 22.0079 169.769 22.0219 169.741 22.0499C169.713 22.0499 169.685 22.0499 169.657 22.0499L169.363 22.0919H169.321C169.293 22.0919 169.265 22.1059 169.237 22.1339C169.125 22.1339 168.999 22.1479 168.859 22.1759C168.719 22.2039 168.635 22.2179 168.607 22.2179H168.565C168.565 22.1899 168.551 22.1759 168.523 22.1759V22.2179H168.313C168.229 22.2179 168.131 22.2039 168.019 22.1759C167.935 22.1199 167.865 22.0919 167.809 22.0919C167.781 22.0919 167.767 22.1059 167.767 22.1339C167.767 22.1339 167.753 22.1339 167.725 22.1339H167.641C167.613 22.1339 167.599 22.1199 167.599 22.0919H167.389C167.389 22.0079 167.361 21.9939 167.305 22.0499H167.263C167.151 22.0499 167.053 22.0079 166.969 21.9239C166.913 21.8399 166.815 21.7979 166.675 21.7979L166.549 21.6719C166.549 21.6999 166.535 21.7279 166.507 21.7559C166.507 21.7559 166.507 21.7699 166.507 21.7979C166.507 21.7979 166.521 21.8259 166.549 21.8819C166.605 21.9099 166.633 21.9379 166.633 21.9659L166.717 22.1339L166.885 22.3439L166.969 22.4279C166.997 22.4559 167.011 22.4699 167.011 22.4699C167.039 22.4699 167.067 22.4979 167.095 22.5539C167.151 22.5539 167.179 22.5959 167.179 22.6799C167.655 22.9319 168.033 23.0579 168.313 23.0579Z" fill="#103255"/>
</svg>
