<svg width="788" height="38" viewBox="0 0 788 38" fill="none" xmlns="http://www.w3.org/2000/svg">
<path d="M18.9998 4.16006C19.0798 4.90672 19.1198 5.72006 19.1198 6.60006C19.1198 7.45339 19.0798 8.36006 18.9998 9.32006C18.8131 9.40006 18.4798 9.44006 17.9998 9.44006C17.8665 7.97339 17.5465 6.96006 17.0398 6.40006C16.5331 5.81339 15.6531 5.52006 14.3998 5.52006H10.9998V26.7601C12.1198 27.1601 13.3598 27.3867 14.7198 27.4401C14.7731 27.8401 14.7465 28.2267 14.6398 28.6001H4.35979C4.30645 28.1734 4.34645 27.7867 4.47979 27.4401C5.91979 27.3067 6.87979 27.1201 7.35979 26.8801C7.86645 26.6134 8.11979 26.1601 8.11979 25.5201V5.52006H4.71979C3.46645 5.52006 2.58645 5.81339 2.07979 6.40006C1.57312 6.96006 1.25312 7.97339 1.11979 9.44006C0.639785 9.44006 0.306452 9.40006 0.119785 9.32006C0.0397852 8.49339 -0.0002148 7.65339 -0.0002148 6.80006C-0.0002148 5.92006 0.0397852 5.04006 0.119785 4.16006H18.9998ZM38.2267 15.8801V26.8001C39.08 27.1201 40.0133 27.3201 41.0267 27.4001C41.0267 27.7734 41 28.1734 40.9467 28.6001H32.7867C32.76 28.2801 32.7733 27.8801 32.8267 27.4001C33.7867 27.2934 34.44 27.1067 34.7867 26.8401C35.16 26.5734 35.3467 26.1067 35.3467 25.4401V16.1201C35.3467 14.8134 35.04 13.8134 34.4267 13.1201C33.8133 12.4267 32.96 12.0801 31.8667 12.0801C29.5467 12.0801 27.8133 13.4667 26.6667 16.2401V26.8001C27.4133 27.1201 28.32 27.3201 29.3867 27.4001C29.3867 27.8801 29.3467 28.2801 29.2667 28.6001H21.0667C21.0133 28.2001 21.04 27.8001 21.1467 27.4001C22.1333 27.2934 22.8133 27.1067 23.1867 26.8401C23.5867 26.5734 23.7867 26.1067 23.7867 25.4401V2.72006C23.0133 2.69339 22.4133 2.68006 21.9867 2.68006C21.56 2.68006 21.2267 2.68006 20.9867 2.68006C20.9867 2.38672 21.04 2.02672 21.1467 1.60006C23.0667 0.880057 24.9067 0.400057 26.6667 0.160057V14.0401C28.0533 11.2934 30.12 9.92006 32.8667 9.92006C34.44 9.92006 35.72 10.4267 36.7067 11.4401C37.72 12.4534 38.2267 13.9334 38.2267 15.8801ZM56.2142 16.6001C56.1875 14.8667 55.7742 13.5867 54.9742 12.7601C54.1742 11.9334 53.2008 11.5201 52.0542 11.5201C50.9342 11.5201 49.8808 11.9734 48.8942 12.8801C47.9075 13.7867 47.2675 15.1467 46.9742 16.9601L51.6142 16.6401L56.2142 16.6001ZM46.7742 19.2001C46.7742 21.6801 47.2808 23.6001 48.2942 24.9601C49.3342 26.2934 50.8408 26.9601 52.8142 26.9601C54.7875 26.9601 56.7342 26.3201 58.6542 25.0401L59.0142 25.7601C57.0675 27.9734 54.6808 29.0801 51.8542 29.0801C49.8542 29.0801 48.0408 28.3467 46.4142 26.8801C45.5875 26.1334 44.9208 25.1601 44.4142 23.9601C43.9342 22.7334 43.6942 21.3601 43.6942 19.8401C43.6942 16.7201 44.6008 14.2934 46.4142 12.5601C48.2275 10.8001 50.1742 9.92006 52.2542 9.92006C54.3342 9.92006 56.0142 10.5867 57.2942 11.9201C58.6008 13.2267 59.2542 15.1067 59.2542 17.5601C59.0942 17.8534 58.9475 18.0934 58.8142 18.2801H46.8142C46.7875 18.4667 46.7742 18.7734 46.7742 19.2001ZM78.6423 27.5601C79.9756 27.5601 81.029 27.2801 81.8023 26.7201C82.5756 26.1334 82.9623 25.4267 82.9623 24.6001C82.9623 23.7734 82.6423 23.0801 82.0023 22.5201C81.3623 21.9601 80.5756 21.4667 79.6423 21.0401C78.709 20.6134 77.7756 20.1734 76.8423 19.7201C75.9356 19.2401 75.1623 18.6134 74.5223 17.8401C73.8823 17.0401 73.5623 16.1067 73.5623 15.0401C73.5623 13.3601 74.1623 12.0934 75.3623 11.2401C76.5623 10.3601 78.0023 9.92006 79.6823 9.92006C81.389 9.92006 83.0156 10.1867 84.5623 10.7201C84.589 11.1734 84.6023 11.7867 84.6023 12.5601C84.6023 13.3334 84.5223 14.2267 84.3623 15.2401C84.149 15.2401 83.8423 15.2001 83.4423 15.1201C83.469 14.8534 83.4823 14.6001 83.4823 14.3601C83.4823 12.3601 82.269 11.3601 79.8423 11.3601C78.7756 11.3601 77.8956 11.6534 77.2023 12.2401C76.5356 12.8001 76.2023 13.5067 76.2023 14.3601C76.2023 15.1867 76.5223 15.8934 77.1623 16.4801C77.829 17.0667 78.629 17.5601 79.5623 17.9601C80.5223 18.3601 81.469 18.7867 82.4023 19.2401C83.3623 19.6934 84.1623 20.3067 84.8023 21.0801C85.469 21.8267 85.8023 22.7067 85.8023 23.7201C85.8023 25.4001 85.109 26.7201 83.7223 27.6801C82.3623 28.6134 80.6823 29.0801 78.6823 29.0801C76.6823 29.0801 74.8156 28.8001 73.0823 28.2401C73.029 27.6267 73.0023 26.9201 73.0023 26.1201C73.0023 25.2934 73.0823 24.3867 73.2423 23.4001C73.4823 23.4001 73.789 23.4267 74.1623 23.4801C74.1623 23.6401 74.1623 23.8001 74.1623 23.9601C74.1623 25.2134 74.5756 26.1334 75.4023 26.7201C76.2556 27.2801 77.3356 27.5601 78.6423 27.5601ZM95.642 29.0801C94.362 29.0801 93.2953 28.6934 92.442 27.9201C91.6153 27.1201 91.202 25.9334 91.202 24.3601V12.2801C90.4553 12.1734 89.5886 12.1201 88.602 12.1201C88.602 12.0401 88.602 11.9334 88.602 11.8001C88.602 11.6401 88.6153 11.4667 88.642 11.2801C89.5753 10.9601 90.4286 10.7467 91.202 10.6401L93.482 5.68006L94.122 5.88006V10.6401C96.1486 10.5867 98.0153 10.4934 99.722 10.3601C99.722 11.0801 99.6153 11.7067 99.402 12.2401H94.122V23.9601C94.122 25.8534 94.8953 26.8001 96.442 26.8001C97.7486 26.8001 99.002 26.3067 100.202 25.3201L100.682 25.8401C99.2686 28.0001 97.5886 29.0801 95.642 29.0801ZM107.863 25.2801C108.849 26.6934 110.236 27.4001 112.023 27.4001C113.809 27.4001 115.116 26.7334 115.943 25.4001C116.796 24.0401 117.223 22.2267 117.223 19.9601C117.223 17.2401 116.743 15.1467 115.783 13.6801C114.823 12.1867 113.449 11.4401 111.663 11.4401C109.903 11.4401 108.583 12.1467 107.703 13.5601C106.849 14.9467 106.423 16.8001 106.423 19.1201C106.423 21.7867 106.903 23.8401 107.863 25.2801ZM111.903 9.92006C114.463 9.92006 116.503 10.8001 118.023 12.5601C119.569 14.2934 120.343 16.6001 120.343 19.4801C120.343 22.3601 119.556 24.6801 117.983 26.4401C116.409 28.2001 114.316 29.0801 111.703 29.0801C109.116 29.0801 107.076 28.2134 105.583 26.4801C104.089 24.7201 103.343 22.4001 103.343 19.5201C103.343 16.6401 104.129 14.3201 105.703 12.5601C107.276 10.8001 109.343 9.92006 111.903 9.92006ZM128.854 15.1601V15.4401C129.494 13.7867 130.454 12.4534 131.734 11.4401C133.014 10.4267 134.387 9.92006 135.854 9.92006C135.987 10.2401 136.054 10.6401 136.054 11.1201C136.054 11.5734 135.961 12.1201 135.774 12.7601C133.561 12.7601 131.747 13.4934 130.334 14.9601C129.534 15.8401 129.041 16.9334 128.854 18.2401V26.5601C130.054 27.0401 131.454 27.3201 133.054 27.4001C133.054 27.9067 133.001 28.3067 132.894 28.6001H123.254C123.227 28.2801 123.241 27.8801 123.294 27.4001C124.307 27.2667 125.001 27.0667 125.374 26.8001C125.774 26.5334 125.974 26.0667 125.974 25.4001V12.7201C125.201 12.6934 124.601 12.6801 124.174 12.6801C123.747 12.6801 123.414 12.6801 123.174 12.6801C123.174 12.3601 123.227 12.0134 123.334 11.6401C125.094 10.9467 126.827 10.4534 128.534 10.1601C128.747 11.5201 128.854 13.1867 128.854 15.1601ZM140.556 37.6001H140.036C139.769 36.9334 139.636 36.3601 139.636 35.8801C139.636 35.4267 139.662 35.0667 139.716 34.8001H140.476C141.329 34.8001 141.996 34.6267 142.476 34.2801C142.982 33.9334 143.476 33.2667 143.956 32.2801L145.396 29.2001L139.156 13.8001C138.862 13.0267 138.529 12.4934 138.156 12.2001C137.782 11.9067 137.142 11.7067 136.236 11.6001C136.182 11.2801 136.156 11.0267 136.156 10.8401C136.156 10.6534 136.156 10.5067 136.156 10.4001H144.396C144.502 10.7201 144.556 11.1201 144.556 11.6001C143.329 11.7067 142.396 11.8934 141.756 12.1601L146.836 26.0801C146.916 25.6534 147.062 25.1734 147.276 24.6401L151.436 14.0801C151.596 13.6801 151.676 13.3334 151.676 13.0401C151.676 12.7467 151.596 12.5067 151.436 12.3201C151.089 11.9467 150.276 11.7067 148.996 11.6001C148.889 11.0667 148.862 10.6667 148.916 10.4001H156.236C156.262 10.7734 156.196 11.1734 156.036 11.6001C155.502 11.6801 154.902 11.8134 154.236 12.0001L145.556 32.7201C144.836 34.4534 144.102 35.6934 143.356 36.4401C142.609 37.2134 141.676 37.6001 140.556 37.6001ZM162.231 26.3201C163.378 26.9601 164.738 27.2801 166.311 27.2801C167.911 27.2801 169.231 26.5867 170.271 25.2001C171.338 23.8134 171.871 21.8267 171.871 19.2401C171.871 16.6534 171.404 14.7734 170.471 13.6001C169.564 12.4267 168.471 11.8401 167.191 11.8401C165.938 11.8401 164.844 12.2934 163.911 13.2001C163.004 14.1067 162.444 15.4667 162.231 17.2801V26.3201ZM167.671 9.92006C169.671 9.92006 171.404 10.7201 172.871 12.3201C174.364 13.9201 175.111 16.2267 175.111 19.2401C175.111 22.2267 174.218 24.6134 172.431 26.4001C170.644 28.1867 168.471 29.0801 165.911 29.0801C164.178 29.0801 162.538 28.5734 160.991 27.5601C160.484 28.1734 159.804 28.6667 158.951 29.0401L158.471 28.6001C159.058 27.2667 159.351 25.7867 159.351 24.1601V2.60006C159.084 2.57339 158.711 2.56006 158.231 2.56006C157.751 2.56006 157.191 2.57339 156.551 2.60006C156.551 2.12006 156.618 1.74672 156.751 1.48006C158.538 0.760058 160.364 0.266724 162.231 5.62668e-05V14.2401C162.711 12.8534 163.431 11.7867 164.391 11.0401C165.351 10.2934 166.444 9.92006 167.671 9.92006ZM183.019 25.2801C184.006 26.6934 185.392 27.4001 187.179 27.4001C188.966 27.4001 190.272 26.7334 191.099 25.4001C191.952 24.0401 192.379 22.2267 192.379 19.9601C192.379 17.2401 191.899 15.1467 190.939 13.6801C189.979 12.1867 188.606 11.4401 186.819 11.4401C185.059 11.4401 183.739 12.1467 182.859 13.5601C182.006 14.9467 181.579 16.8001 181.579 19.1201C181.579 21.7867 182.059 23.8401 183.019 25.2801ZM187.059 9.92006C189.619 9.92006 191.659 10.8001 193.179 12.5601C194.726 14.2934 195.499 16.6001 195.499 19.4801C195.499 22.3601 194.712 24.6801 193.139 26.4401C191.566 28.2001 189.472 29.0801 186.859 29.0801C184.272 29.0801 182.232 28.2134 180.739 26.4801C179.246 24.7201 178.499 22.4001 178.499 19.5201C178.499 16.6401 179.286 14.3201 180.859 12.5601C182.432 10.8001 184.499 9.92006 187.059 9.92006ZM202.01 23.8401C202.01 24.8267 202.29 25.6001 202.85 26.1601C203.437 26.6934 204.21 26.9601 205.17 26.9601C206.637 26.9601 207.864 26.4267 208.85 25.3601V18.8401L206.01 19.5601C203.344 20.2801 202.01 21.7067 202.01 23.8401ZM211.73 29.0801C211.037 29.0801 210.437 28.8934 209.93 28.5201C209.424 28.1201 209.09 27.5734 208.93 26.8801C207.597 28.3467 206.09 29.0801 204.41 29.0801C202.757 29.0801 201.437 28.6134 200.45 27.6801C199.464 26.7201 198.97 25.4934 198.97 24.0001C198.97 21.0667 200.997 19.1601 205.05 18.2801L208.85 17.4401V15.6801C208.85 14.4801 208.597 13.6001 208.09 13.0401C207.61 12.4801 206.69 12.2001 205.33 12.2001C203.97 12.2001 202.37 12.5201 200.53 13.1601L200.01 12.3601C201.984 10.7334 204.197 9.92006 206.65 9.92006C208.277 9.92006 209.53 10.4001 210.41 11.3601C211.317 12.3201 211.77 13.6534 211.77 15.3601V24.8401C211.77 25.6401 211.864 26.2001 212.05 26.5201C212.237 26.8401 212.53 27.0001 212.93 27.0001C213.357 27.0001 213.877 26.9334 214.49 26.8001L214.73 27.2801C213.824 28.4801 212.824 29.0801 211.73 29.0801ZM222.604 15.1601V15.4401C223.244 13.7867 224.204 12.4534 225.484 11.4401C226.764 10.4267 228.137 9.92006 229.604 9.92006C229.737 10.2401 229.804 10.6401 229.804 11.1201C229.804 11.5734 229.711 12.1201 229.524 12.7601C227.311 12.7601 225.497 13.4934 224.084 14.9601C223.284 15.8401 222.791 16.9334 222.604 18.2401V26.5601C223.804 27.0401 225.204 27.3201 226.804 27.4001C226.804 27.9067 226.751 28.3067 226.644 28.6001H217.004C216.977 28.2801 216.991 27.8801 217.044 27.4001C218.057 27.2667 218.751 27.0667 219.124 26.8001C219.524 26.5334 219.724 26.0667 219.724 25.4001V12.7201C218.951 12.6934 218.351 12.6801 217.924 12.6801C217.497 12.6801 217.164 12.6801 216.924 12.6801C216.924 12.3601 216.977 12.0134 217.084 11.6401C218.844 10.9467 220.577 10.4534 222.284 10.1601C222.497 11.5201 222.604 13.1867 222.604 15.1601ZM241.306 11.8401C236.852 11.8401 234.626 14.3467 234.626 19.3601C234.626 21.9734 235.092 23.9067 236.026 25.1601C236.986 26.3867 238.292 27.0001 239.946 27.0001C241.599 27.0001 242.959 26.5201 244.026 25.5601V12.1201C243.252 11.9334 242.346 11.8401 241.306 11.8401ZM246.866 29.0801C246.226 29.0801 245.652 28.8934 245.146 28.5201C244.666 28.1467 244.332 27.6401 244.146 27.0001C242.759 28.3867 241.039 29.0801 238.986 29.0801C236.959 29.0801 235.226 28.2801 233.786 26.6801C232.346 25.0801 231.626 22.7734 231.626 19.7601C231.626 16.7201 232.639 14.3201 234.666 12.5601C236.719 10.8001 239.239 9.92006 242.226 9.92006C242.839 9.92006 243.439 9.96006 244.026 10.0401V2.60006C243.759 2.57339 243.386 2.56006 242.906 2.56006C242.426 2.56006 241.866 2.57339 241.226 2.60006C241.226 2.14672 241.279 1.77339 241.386 1.48006C243.226 0.760058 245.066 0.266724 246.906 5.62668e-05V24.8401C246.906 25.6401 246.999 26.2001 247.186 26.5201C247.372 26.8401 247.652 27.0001 248.026 27.0001C248.426 27.0001 248.959 26.9334 249.626 26.8001L249.906 27.2801C248.946 28.4801 247.932 29.0801 246.866 29.0801ZM268.073 15.1601V15.4401C268.713 13.7867 269.673 12.4534 270.953 11.4401C272.233 10.4267 273.606 9.92006 275.073 9.92006C275.206 10.2401 275.273 10.6401 275.273 11.1201C275.273 11.5734 275.18 12.1201 274.993 12.7601C272.78 12.7601 270.966 13.4934 269.553 14.9601C268.753 15.8401 268.26 16.9334 268.073 18.2401V26.5601C269.273 27.0401 270.673 27.3201 272.273 27.4001C272.273 27.9067 272.22 28.3067 272.113 28.6001H262.473C262.446 28.2801 262.46 27.8801 262.513 27.4001C263.526 27.2667 264.22 27.0667 264.593 26.8001C264.993 26.5334 265.193 26.0667 265.193 25.4001V12.7201C264.42 12.6934 263.82 12.6801 263.393 12.6801C262.966 12.6801 262.633 12.6801 262.393 12.6801C262.393 12.3601 262.446 12.0134 262.553 11.6401C264.313 10.9467 266.046 10.4534 267.753 10.1601C267.966 11.5201 268.073 13.1867 268.073 15.1601ZM289.534 16.6001C289.508 14.8667 289.094 13.5867 288.294 12.7601C287.494 11.9334 286.521 11.5201 285.374 11.5201C284.254 11.5201 283.201 11.9734 282.214 12.8801C281.228 13.7867 280.588 15.1467 280.294 16.9601L284.934 16.6401L289.534 16.6001ZM280.094 19.2001C280.094 21.6801 280.601 23.6001 281.614 24.9601C282.654 26.2934 284.161 26.9601 286.134 26.9601C288.108 26.9601 290.054 26.3201 291.974 25.0401L292.334 25.7601C290.388 27.9734 288.001 29.0801 285.174 29.0801C283.174 29.0801 281.361 28.3467 279.734 26.8801C278.908 26.1334 278.241 25.1601 277.734 23.9601C277.254 22.7334 277.014 21.3601 277.014 19.8401C277.014 16.7201 277.921 14.2934 279.734 12.5601C281.548 10.8001 283.494 9.92006 285.574 9.92006C287.654 9.92006 289.334 10.5867 290.614 11.9201C291.921 13.2267 292.574 15.1067 292.574 17.5601C292.414 17.8534 292.268 18.0934 292.134 18.2801H280.134C280.108 18.4667 280.094 18.7734 280.094 19.2001ZM294.003 11.6001C293.949 11.2801 293.923 11.0267 293.923 10.8401C293.923 10.6534 293.923 10.5067 293.923 10.4001H302.203C302.283 10.6401 302.323 11.0401 302.323 11.6001C301.069 11.7067 300.136 11.9201 299.523 12.2401L304.683 26.7201C304.789 26.1867 304.976 25.5334 305.243 24.7601L309.243 14.0801C309.456 13.6801 309.563 13.3467 309.563 13.0801C309.563 12.7867 309.496 12.5601 309.363 12.4001C309.043 11.9734 308.203 11.7067 306.843 11.6001C306.683 11.2534 306.629 10.8534 306.683 10.4001H314.563C314.589 10.6667 314.523 11.0667 314.363 11.6001C313.563 11.6801 312.736 11.8801 311.883 12.2001L305.323 28.8401H303.043L296.963 13.8001C296.643 13.0267 296.296 12.4934 295.923 12.2001C295.549 11.9067 294.909 11.7067 294.003 11.6001ZM328.324 16.6001C328.297 14.8667 327.884 13.5867 327.084 12.7601C326.284 11.9334 325.31 11.5201 324.164 11.5201C323.044 11.5201 321.99 11.9734 321.004 12.8801C320.017 13.7867 319.377 15.1467 319.084 16.9601L323.724 16.6401L328.324 16.6001ZM318.884 19.2001C318.884 21.6801 319.39 23.6001 320.404 24.9601C321.444 26.2934 322.95 26.9601 324.924 26.9601C326.897 26.9601 328.844 26.3201 330.764 25.0401L331.124 25.7601C329.177 27.9734 326.79 29.0801 323.964 29.0801C321.964 29.0801 320.15 28.3467 318.524 26.8801C317.697 26.1334 317.03 25.1601 316.524 23.9601C316.044 22.7334 315.804 21.3601 315.804 19.8401C315.804 16.7201 316.71 14.2934 318.524 12.5601C320.337 10.8001 322.284 9.92006 324.364 9.92006C326.444 9.92006 328.124 10.5867 329.404 11.9201C330.71 13.2267 331.364 15.1067 331.364 17.5601C331.204 17.8534 331.057 18.0934 330.924 18.2801H318.924C318.897 18.4667 318.884 18.7734 318.884 19.2001ZM337.792 23.8401C337.792 24.8267 338.072 25.6001 338.632 26.1601C339.218 26.6934 339.992 26.9601 340.952 26.9601C342.418 26.9601 343.645 26.4267 344.632 25.3601V18.8401L341.792 19.5601C339.125 20.2801 337.792 21.7067 337.792 23.8401ZM347.512 29.0801C346.818 29.0801 346.218 28.8934 345.712 28.5201C345.205 28.1201 344.872 27.5734 344.712 26.8801C343.378 28.3467 341.872 29.0801 340.192 29.0801C338.538 29.0801 337.218 28.6134 336.232 27.6801C335.245 26.7201 334.752 25.4934 334.752 24.0001C334.752 21.0667 336.778 19.1601 340.832 18.2801L344.632 17.4401V15.6801C344.632 14.4801 344.378 13.6001 343.872 13.0401C343.392 12.4801 342.472 12.2001 341.112 12.2001C339.752 12.2001 338.152 12.5201 336.312 13.1601L335.792 12.3601C337.765 10.7334 339.978 9.92006 342.432 9.92006C344.058 9.92006 345.312 10.4001 346.192 11.3601C347.098 12.3201 347.552 13.6534 347.552 15.3601V24.8401C347.552 25.6401 347.645 26.2001 347.832 26.5201C348.018 26.8401 348.312 27.0001 348.712 27.0001C349.138 27.0001 349.658 26.9334 350.272 26.8001L350.512 27.2801C349.605 28.4801 348.605 29.0801 347.512 29.0801ZM355.505 25.4401V2.60006C355.212 2.57339 354.839 2.56006 354.385 2.56006C353.932 2.56006 353.372 2.57339 352.705 2.60006C352.705 2.28006 352.759 1.90672 352.865 1.48006C354.625 0.760058 356.465 0.266724 358.385 5.62668e-05V26.8001C359.132 27.1201 360.039 27.3201 361.105 27.4001C361.105 27.8801 361.065 28.2801 360.985 28.6001H352.785C352.732 28.2001 352.759 27.8001 352.865 27.4001C353.852 27.2934 354.532 27.1067 354.905 26.8401C355.305 26.5734 355.505 26.1067 355.505 25.4401ZM370.4 27.5601C371.733 27.5601 372.787 27.2801 373.56 26.7201C374.333 26.1334 374.72 25.4267 374.72 24.6001C374.72 23.7734 374.4 23.0801 373.76 22.5201C373.12 21.9601 372.333 21.4667 371.4 21.0401C370.467 20.6134 369.533 20.1734 368.6 19.7201C367.693 19.2401 366.92 18.6134 366.28 17.8401C365.64 17.0401 365.32 16.1067 365.32 15.0401C365.32 13.3601 365.92 12.0934 367.12 11.2401C368.32 10.3601 369.76 9.92006 371.44 9.92006C373.147 9.92006 374.773 10.1867 376.32 10.7201C376.347 11.1734 376.36 11.7867 376.36 12.5601C376.36 13.3334 376.28 14.2267 376.12 15.2401C375.907 15.2401 375.6 15.2001 375.2 15.1201C375.227 14.8534 375.24 14.6001 375.24 14.3601C375.24 12.3601 374.027 11.3601 371.6 11.3601C370.533 11.3601 369.653 11.6534 368.96 12.2401C368.293 12.8001 367.96 13.5067 367.96 14.3601C367.96 15.1867 368.28 15.8934 368.92 16.4801C369.587 17.0667 370.387 17.5601 371.32 17.9601C372.28 18.3601 373.227 18.7867 374.16 19.2401C375.12 19.6934 375.92 20.3067 376.56 21.0801C377.227 21.8267 377.56 22.7067 377.56 23.7201C377.56 25.4001 376.867 26.7201 375.48 27.6801C374.12 28.6134 372.44 29.0801 370.44 29.0801C368.44 29.0801 366.573 28.8001 364.84 28.2401C364.787 27.6267 364.76 26.9201 364.76 26.1201C364.76 25.2934 364.84 24.3867 365 23.4001C365.24 23.4001 365.547 23.4267 365.92 23.4801C365.92 23.6401 365.92 23.8001 365.92 23.9601C365.92 25.2134 366.333 26.1334 367.16 26.7201C368.013 27.2801 369.093 27.5601 370.4 27.5601ZM397.4 29.0801C396.12 29.0801 395.053 28.6934 394.2 27.9201C393.373 27.1201 392.96 25.9334 392.96 24.3601V12.2801C392.213 12.1734 391.346 12.1201 390.36 12.1201C390.36 12.0401 390.36 11.9334 390.36 11.8001C390.36 11.6401 390.373 11.4667 390.4 11.2801C391.333 10.9601 392.186 10.7467 392.96 10.6401L395.24 5.68006L395.88 5.88006V10.6401C397.906 10.5867 399.773 10.4934 401.48 10.3601C401.48 11.0801 401.373 11.7067 401.16 12.2401H395.88V23.9601C395.88 25.8534 396.653 26.8001 398.2 26.8001C399.506 26.8001 400.76 26.3067 401.96 25.3201L402.44 25.8401C401.026 28.0001 399.346 29.0801 397.4 29.0801ZM421.82 15.8801V26.8001C422.674 27.1201 423.607 27.3201 424.62 27.4001C424.62 27.7734 424.594 28.1734 424.54 28.6001H416.38C416.354 28.2801 416.367 27.8801 416.42 27.4001C417.38 27.2934 418.034 27.1067 418.38 26.8401C418.754 26.5734 418.94 26.1067 418.94 25.4401V16.1201C418.94 14.8134 418.634 13.8134 418.02 13.1201C417.407 12.4267 416.554 12.0801 415.46 12.0801C413.14 12.0801 411.407 13.4667 410.26 16.2401V26.8001C411.007 27.1201 411.914 27.3201 412.98 27.4001C412.98 27.8801 412.94 28.2801 412.86 28.6001H404.66C404.607 28.2001 404.634 27.8001 404.74 27.4001C405.727 27.2934 406.407 27.1067 406.78 26.8401C407.18 26.5734 407.38 26.1067 407.38 25.4401V2.72006C406.607 2.69339 406.007 2.68006 405.58 2.68006C405.154 2.68006 404.82 2.68006 404.58 2.68006C404.58 2.38672 404.634 2.02672 404.74 1.60006C406.66 0.880057 408.5 0.400057 410.26 0.160057V14.0401C411.647 11.2934 413.714 9.92006 416.46 9.92006C418.034 9.92006 419.314 10.4267 420.3 11.4401C421.314 12.4534 421.82 13.9334 421.82 15.8801ZM439.808 16.6001C439.781 14.8667 439.368 13.5867 438.568 12.7601C437.768 11.9334 436.795 11.5201 435.648 11.5201C434.528 11.5201 433.475 11.9734 432.488 12.8801C431.501 13.7867 430.861 15.1467 430.568 16.9601L435.208 16.6401L439.808 16.6001ZM430.368 19.2001C430.368 21.6801 430.875 23.6001 431.888 24.9601C432.928 26.2934 434.435 26.9601 436.408 26.9601C438.381 26.9601 440.328 26.3201 442.248 25.0401L442.608 25.7601C440.661 27.9734 438.275 29.0801 435.448 29.0801C433.448 29.0801 431.635 28.3467 430.008 26.8801C429.181 26.1334 428.515 25.1601 428.008 23.9601C427.528 22.7334 427.288 21.3601 427.288 19.8401C427.288 16.7201 428.195 14.2934 430.008 12.5601C431.821 10.8001 433.768 9.92006 435.848 9.92006C437.928 9.92006 439.608 10.5867 440.888 11.9201C442.195 13.2267 442.848 15.1067 442.848 17.5601C442.688 17.8534 442.541 18.0934 442.408 18.2801H430.408C430.381 18.4667 430.368 18.7734 430.368 19.2001ZM460.356 26.3201C461.503 26.9601 462.863 27.2801 464.436 27.2801C466.036 27.2801 467.356 26.5867 468.396 25.2001C469.463 23.8134 469.996 21.8267 469.996 19.2401C469.996 16.6534 469.529 14.7734 468.596 13.6001C467.689 12.4267 466.596 11.8401 465.316 11.8401C464.063 11.8401 462.969 12.2934 462.036 13.2001C461.129 14.1067 460.569 15.4667 460.356 17.2801V26.3201ZM465.796 9.92006C467.796 9.92006 469.529 10.7201 470.996 12.3201C472.489 13.9201 473.236 16.2267 473.236 19.2401C473.236 22.2267 472.343 24.6134 470.556 26.4001C468.769 28.1867 466.596 29.0801 464.036 29.0801C462.303 29.0801 460.663 28.5734 459.116 27.5601C458.609 28.1734 457.929 28.6667 457.076 29.0401L456.596 28.6001C457.183 27.2667 457.476 25.7867 457.476 24.1601V2.60006C457.209 2.57339 456.836 2.56006 456.356 2.56006C455.876 2.56006 455.316 2.57339 454.676 2.60006C454.676 2.12006 454.743 1.74672 454.876 1.48006C456.663 0.760058 458.489 0.266724 460.356 5.62668e-05V14.2401C460.836 12.8534 461.556 11.7867 462.516 11.0401C463.476 10.2934 464.569 9.92006 465.796 9.92006ZM481.784 15.1601V15.4401C482.424 13.7867 483.384 12.4534 484.664 11.4401C485.944 10.4267 487.317 9.92006 488.784 9.92006C488.917 10.2401 488.984 10.6401 488.984 11.1201C488.984 11.5734 488.891 12.1201 488.704 12.7601C486.491 12.7601 484.677 13.4934 483.264 14.9601C482.464 15.8401 481.971 16.9334 481.784 18.2401V26.5601C482.984 27.0401 484.384 27.3201 485.984 27.4001C485.984 27.9067 485.931 28.3067 485.824 28.6001H476.184C476.157 28.2801 476.171 27.8801 476.224 27.4001C477.237 27.2667 477.931 27.0667 478.304 26.8001C478.704 26.5334 478.904 26.0667 478.904 25.4001V12.7201C478.131 12.6934 477.531 12.6801 477.104 12.6801C476.677 12.6801 476.344 12.6801 476.104 12.6801C476.104 12.3601 476.157 12.0134 476.264 11.6401C478.024 10.9467 479.757 10.4534 481.464 10.1601C481.677 11.5201 481.784 13.1867 481.784 15.1601ZM503.245 16.6001C503.219 14.8667 502.805 13.5867 502.005 12.7601C501.205 11.9334 500.232 11.5201 499.085 11.5201C497.965 11.5201 496.912 11.9734 495.925 12.8801C494.939 13.7867 494.299 15.1467 494.005 16.9601L498.645 16.6401L503.245 16.6001ZM493.805 19.2001C493.805 21.6801 494.312 23.6001 495.325 24.9601C496.365 26.2934 497.872 26.9601 499.845 26.9601C501.819 26.9601 503.765 26.3201 505.685 25.0401L506.045 25.7601C504.099 27.9734 501.712 29.0801 498.885 29.0801C496.885 29.0801 495.072 28.3467 493.445 26.8801C492.619 26.1334 491.952 25.1601 491.445 23.9601C490.965 22.7334 490.725 21.3601 490.725 19.8401C490.725 16.7201 491.632 14.2934 493.445 12.5601C495.259 10.8001 497.205 9.92006 499.285 9.92006C501.365 9.92006 503.045 10.5867 504.325 11.9201C505.632 13.2267 506.285 15.1067 506.285 17.5601C506.125 17.8534 505.979 18.0934 505.845 18.2801H493.845C493.819 18.4667 493.805 18.7734 493.805 19.2001ZM512.714 23.8401C512.714 24.8267 512.994 25.6001 513.554 26.1601C514.14 26.6934 514.914 26.9601 515.874 26.9601C517.34 26.9601 518.567 26.4267 519.554 25.3601V18.8401L516.714 19.5601C514.047 20.2801 512.714 21.7067 512.714 23.8401ZM522.434 29.0801C521.74 29.0801 521.14 28.8934 520.634 28.5201C520.127 28.1201 519.794 27.5734 519.634 26.8801C518.3 28.3467 516.794 29.0801 515.114 29.0801C513.46 29.0801 512.14 28.6134 511.154 27.6801C510.167 26.7201 509.674 25.4934 509.674 24.0001C509.674 21.0667 511.7 19.1601 515.754 18.2801L519.554 17.4401V15.6801C519.554 14.4801 519.3 13.6001 518.794 13.0401C518.314 12.4801 517.394 12.2001 516.034 12.2001C514.674 12.2001 513.074 12.5201 511.234 13.1601L510.714 12.3601C512.687 10.7334 514.9 9.92006 517.354 9.92006C518.98 9.92006 520.234 10.4001 521.114 11.3601C522.02 12.3201 522.474 13.6534 522.474 15.3601V24.8401C522.474 25.6401 522.567 26.2001 522.754 26.5201C522.94 26.8401 523.234 27.0001 523.634 27.0001C524.06 27.0001 524.58 26.9334 525.194 26.8001L525.434 27.2801C524.527 28.4801 523.527 29.0801 522.434 29.0801ZM537.907 11.8401C533.454 11.8401 531.227 14.3467 531.227 19.3601C531.227 21.9734 531.694 23.9067 532.627 25.1601C533.587 26.3867 534.894 27.0001 536.547 27.0001C538.201 27.0001 539.561 26.5201 540.627 25.5601V12.1201C539.854 11.9334 538.947 11.8401 537.907 11.8401ZM543.467 29.0801C542.827 29.0801 542.254 28.8934 541.747 28.5201C541.267 28.1467 540.934 27.6401 540.747 27.0001C539.361 28.3867 537.641 29.0801 535.587 29.0801C533.561 29.0801 531.827 28.2801 530.387 26.6801C528.947 25.0801 528.227 22.7734 528.227 19.7601C528.227 16.7201 529.241 14.3201 531.267 12.5601C533.321 10.8001 535.841 9.92006 538.827 9.92006C539.441 9.92006 540.041 9.96006 540.627 10.0401V2.60006C540.361 2.57339 539.987 2.56006 539.507 2.56006C539.027 2.56006 538.467 2.57339 537.827 2.60006C537.827 2.14672 537.881 1.77339 537.987 1.48006C539.827 0.760058 541.667 0.266724 543.507 5.62668e-05V24.8401C543.507 25.6401 543.601 26.2001 543.787 26.5201C543.974 26.8401 544.254 27.0001 544.627 27.0001C545.027 27.0001 545.561 26.9334 546.227 26.8001L546.507 27.2801C545.547 28.4801 544.534 29.0801 543.467 29.0801ZM555.954 29.0801C554.674 29.0801 553.608 28.6934 552.754 27.9201C551.928 27.1201 551.514 25.9334 551.514 24.3601V12.2801C550.768 12.1734 549.901 12.1201 548.914 12.1201C548.914 12.0401 548.914 11.9334 548.914 11.8001C548.914 11.6401 548.928 11.4667 548.954 11.2801C549.888 10.9601 550.741 10.7467 551.514 10.6401L553.794 5.68006L554.434 5.88006V10.6401C556.461 10.5867 558.328 10.4934 560.034 10.3601C560.034 11.0801 559.928 11.7067 559.714 12.2401H554.434V23.9601C554.434 25.8534 555.208 26.8001 556.754 26.8001C558.061 26.8001 559.314 26.3067 560.514 25.3201L560.994 25.8401C559.581 28.0001 557.901 29.0801 555.954 29.0801ZM580.375 15.8801V26.8001C581.228 27.1201 582.162 27.3201 583.175 27.4001C583.175 27.7734 583.148 28.1734 583.095 28.6001H574.935C574.908 28.2801 574.922 27.8801 574.975 27.4001C575.935 27.2934 576.588 27.1067 576.935 26.8401C577.308 26.5734 577.495 26.1067 577.495 25.4401V16.1201C577.495 14.8134 577.188 13.8134 576.575 13.1201C575.962 12.4267 575.108 12.0801 574.015 12.0801C571.695 12.0801 569.962 13.4667 568.815 16.2401V26.8001C569.562 27.1201 570.468 27.3201 571.535 27.4001C571.535 27.8801 571.495 28.2801 571.415 28.6001H563.215C563.162 28.2001 563.188 27.8001 563.295 27.4001C564.282 27.2934 564.962 27.1067 565.335 26.8401C565.735 26.5734 565.935 26.1067 565.935 25.4401V2.72006C565.162 2.69339 564.562 2.68006 564.135 2.68006C563.708 2.68006 563.375 2.68006 563.135 2.68006C563.135 2.38672 563.188 2.02672 563.295 1.60006C565.215 0.880057 567.055 0.400057 568.815 0.160057V14.0401C570.202 11.2934 572.268 9.92006 575.015 9.92006C576.588 9.92006 577.868 10.4267 578.855 11.4401C579.868 12.4534 580.375 13.9334 580.375 15.8801ZM600.363 25.2801C601.349 26.6934 602.736 27.4001 604.523 27.4001C606.309 27.4001 607.616 26.7334 608.443 25.4001C609.296 24.0401 609.723 22.2267 609.723 19.9601C609.723 17.2401 609.243 15.1467 608.283 13.6801C607.323 12.1867 605.949 11.4401 604.163 11.4401C602.403 11.4401 601.083 12.1467 600.203 13.5601C599.349 14.9467 598.923 16.8001 598.923 19.1201C598.923 21.7867 599.403 23.8401 600.363 25.2801ZM604.403 9.92006C606.963 9.92006 609.003 10.8001 610.523 12.5601C612.069 14.2934 612.843 16.6001 612.843 19.4801C612.843 22.3601 612.056 24.6801 610.483 26.4401C608.909 28.2001 606.816 29.0801 604.203 29.0801C601.616 29.0801 599.576 28.2134 598.083 26.4801C596.589 24.7201 595.843 22.4001 595.843 19.5201C595.843 16.6401 596.629 14.3201 598.203 12.5601C599.776 10.8001 601.843 9.92006 604.403 9.92006ZM618.354 7.96006C618.354 5.37339 618.967 3.44006 620.194 2.16006C621.421 0.85339 622.847 0.200056 624.474 0.200056C626.127 0.200056 627.554 0.800056 628.754 2.00006C628.727 3.14672 628.567 4.34672 628.274 5.60006C628.061 5.60006 627.674 5.56006 627.114 5.48006C627.114 5.34672 627.114 5.21339 627.114 5.08006C627.114 2.94672 626.261 1.88006 624.554 1.88006C622.341 1.88006 621.234 3.41339 621.234 6.48006V10.6401C622.807 10.6401 624.687 10.5467 626.874 10.3601C626.874 11.1334 626.781 11.7601 626.594 12.2401H621.234V26.5601C622.487 27.0401 623.874 27.3201 625.394 27.4001C625.447 27.8267 625.421 28.2267 625.314 28.6001H615.594C615.567 28.4667 615.554 28.2934 615.554 28.0801C615.554 27.8667 615.607 27.6401 615.714 27.4001C616.701 27.2667 617.381 27.0667 617.754 26.8001C618.154 26.5334 618.354 26.0667 618.354 25.4001V12.2801C617.607 12.1734 616.741 12.1201 615.754 12.1201C615.754 11.8267 615.781 11.5467 615.834 11.2801C616.767 10.9601 617.607 10.7467 618.354 10.6401V7.96006ZM642.784 25.2801C643.771 26.6934 645.158 27.4001 646.944 27.4001C648.731 27.4001 650.038 26.7334 650.864 25.4001C651.718 24.0401 652.144 22.2267 652.144 19.9601C652.144 17.2401 651.664 15.1467 650.704 13.6801C649.744 12.1867 648.371 11.4401 646.584 11.4401C644.824 11.4401 643.504 12.1467 642.624 13.5601C641.771 14.9467 641.344 16.8001 641.344 19.1201C641.344 21.7867 641.824 23.8401 642.784 25.2801ZM646.824 9.92006C649.384 9.92006 651.424 10.8001 652.944 12.5601C654.491 14.2934 655.264 16.6001 655.264 19.4801C655.264 22.3601 654.478 24.6801 652.904 26.4401C651.331 28.2001 649.238 29.0801 646.624 29.0801C644.038 29.0801 641.998 28.2134 640.504 26.4801C639.011 24.7201 638.264 22.4001 638.264 19.5201C638.264 16.6401 639.051 14.3201 640.624 12.5601C642.198 10.8001 644.264 9.92006 646.824 9.92006ZM674.456 13.6401V26.2401C675.576 26.2934 676.443 26.3201 677.056 26.3201C677.083 26.6134 677.096 26.8401 677.096 27.0001C677.096 27.1601 677.096 27.2801 677.096 27.3601C675.576 28.1067 673.856 28.5867 671.936 28.8001C671.749 27.8134 671.629 26.4534 671.576 24.7201C669.949 27.6267 667.896 29.0801 665.416 29.0801C663.896 29.0801 662.616 28.5467 661.576 27.4801C660.536 26.4134 660.016 24.8934 660.016 22.9201V12.6801C659.669 12.6534 659.296 12.6401 658.896 12.6401C658.523 12.6401 658.109 12.6534 657.656 12.6801C657.656 12.3867 657.709 12.0267 657.816 11.6001C659.763 10.7734 661.456 10.2801 662.896 10.1201V22.6801C662.896 23.9867 663.203 25.0134 663.816 25.7601C664.456 26.5067 665.283 26.8801 666.296 26.8801C667.309 26.8801 668.269 26.5334 669.176 25.8401C670.109 25.1201 670.909 24.1067 671.576 22.8001V13.9601C671.576 12.7067 671.203 11.8401 670.456 11.3601C670.509 11.0667 670.576 10.8667 670.656 10.7601C671.643 10.3334 672.816 10.1201 674.176 10.1201C674.309 10.1201 674.456 10.1201 674.616 10.1201C674.509 11.0801 674.456 12.2534 674.456 13.6401ZM685.456 15.1601V15.4401C686.096 13.7867 687.056 12.4534 688.336 11.4401C689.616 10.4267 690.989 9.92006 692.456 9.92006C692.589 10.2401 692.656 10.6401 692.656 11.1201C692.656 11.5734 692.562 12.1201 692.376 12.7601C690.162 12.7601 688.349 13.4934 686.936 14.9601C686.136 15.8401 685.642 16.9334 685.456 18.2401V26.5601C686.656 27.0401 688.056 27.3201 689.656 27.4001C689.656 27.9067 689.602 28.3067 689.496 28.6001H679.856C679.829 28.2801 679.842 27.8801 679.896 27.4001C680.909 27.2667 681.602 27.0667 681.976 26.8001C682.376 26.5334 682.576 26.0667 682.576 25.4001V12.7201C681.802 12.6934 681.202 12.6801 680.776 12.6801C680.349 12.6801 680.016 12.6801 679.776 12.6801C679.776 12.3601 679.829 12.0134 679.936 11.6401C681.696 10.9467 683.429 10.4534 685.136 10.1601C685.349 11.5201 685.456 13.1867 685.456 15.1601ZM719.397 26.1601C717.317 28.1067 715.077 29.0801 712.677 29.0801C710.304 29.0801 708.317 28.2401 706.717 26.5601C705.144 24.8534 704.357 22.5734 704.357 19.7201C704.357 16.8401 705.224 14.4934 706.957 12.6801C708.691 10.8401 710.917 9.92006 713.637 9.92006C715.771 9.92006 717.571 10.4401 719.037 11.4801C719.037 12.8667 718.917 14.3067 718.677 15.8001L717.837 15.6801C717.837 14.4001 717.424 13.4001 716.597 12.6801C715.771 11.9334 714.704 11.5601 713.397 11.5601C711.611 11.5601 710.171 12.2801 709.077 13.7201C708.011 15.1334 707.477 17.0401 707.477 19.4401C707.477 21.8401 707.997 23.7334 709.037 25.1201C710.104 26.5067 711.531 27.2001 713.317 27.2001C715.104 27.2001 716.957 26.6401 718.877 25.5201L719.397 26.1601ZM727.643 15.1601V15.4401C728.283 13.7867 729.243 12.4534 730.523 11.4401C731.803 10.4267 733.177 9.92006 734.643 9.92006C734.777 10.2401 734.843 10.6401 734.843 11.1201C734.843 11.5734 734.75 12.1201 734.563 12.7601C732.35 12.7601 730.537 13.4934 729.123 14.9601C728.323 15.8401 727.83 16.9334 727.643 18.2401V26.5601C728.843 27.0401 730.243 27.3201 731.843 27.4001C731.843 27.9067 731.79 28.3067 731.683 28.6001H722.043C722.017 28.2801 722.03 27.8801 722.083 27.4001C723.097 27.2667 723.79 27.0667 724.163 26.8001C724.563 26.5334 724.763 26.0667 724.763 25.4001V12.7201C723.99 12.6934 723.39 12.6801 722.963 12.6801C722.537 12.6801 722.203 12.6801 721.963 12.6801C721.963 12.3601 722.017 12.0134 722.123 11.6401C723.883 10.9467 725.617 10.4534 727.323 10.1601C727.537 11.5201 727.643 13.1867 727.643 15.1601ZM739.745 23.8401C739.745 24.8267 740.025 25.6001 740.585 26.1601C741.171 26.6934 741.945 26.9601 742.905 26.9601C744.371 26.9601 745.598 26.4267 746.585 25.3601V18.8401L743.745 19.5601C741.078 20.2801 739.745 21.7067 739.745 23.8401ZM749.465 29.0801C748.771 29.0801 748.171 28.8934 747.665 28.5201C747.158 28.1201 746.825 27.5734 746.665 26.8801C745.331 28.3467 743.825 29.0801 742.145 29.0801C740.491 29.0801 739.171 28.6134 738.185 27.6801C737.198 26.7201 736.705 25.4934 736.705 24.0001C736.705 21.0667 738.731 19.1601 742.785 18.2801L746.585 17.4401V15.6801C746.585 14.4801 746.331 13.6001 745.825 13.0401C745.345 12.4801 744.425 12.2001 743.065 12.2001C741.705 12.2001 740.105 12.5201 738.265 13.1601L737.745 12.3601C739.718 10.7334 741.931 9.92006 744.385 9.92006C746.011 9.92006 747.265 10.4001 748.145 11.3601C749.051 12.3201 749.505 13.6534 749.505 15.3601V24.8401C749.505 25.6401 749.598 26.2001 749.785 26.5201C749.971 26.8401 750.265 27.0001 750.665 27.0001C751.091 27.0001 751.611 26.9334 752.225 26.8001L752.465 27.2801C751.558 28.4801 750.558 29.0801 749.465 29.0801ZM757.339 7.96006C757.339 5.37339 757.952 3.44006 759.179 2.16006C760.405 0.85339 761.832 0.200056 763.459 0.200056C765.112 0.200056 766.539 0.800056 767.739 2.00006C767.712 3.14672 767.552 4.34672 767.259 5.60006C767.045 5.60006 766.659 5.56006 766.099 5.48006C766.099 5.34672 766.099 5.21339 766.099 5.08006C766.099 2.94672 765.245 1.88006 763.539 1.88006C761.325 1.88006 760.219 3.41339 760.219 6.48006V10.6401C761.792 10.6401 763.672 10.5467 765.859 10.3601C765.859 11.1334 765.765 11.7601 765.579 12.2401H760.219V26.5601C761.472 27.0401 762.859 27.3201 764.379 27.4001C764.432 27.8267 764.405 28.2267 764.299 28.6001H754.579C754.552 28.4667 754.539 28.2934 754.539 28.0801C754.539 27.8667 754.592 27.6401 754.699 27.4001C755.685 27.2667 756.365 27.0667 756.739 26.8001C757.139 26.5334 757.339 26.0667 757.339 25.4001V12.2801C756.592 12.1734 755.725 12.1201 754.739 12.1201C754.739 11.8267 754.765 11.5467 754.819 11.2801C755.752 10.9601 756.592 10.7467 757.339 10.6401V7.96006ZM773.689 29.0801C772.409 29.0801 771.342 28.6934 770.489 27.9201C769.662 27.1201 769.249 25.9334 769.249 24.3601V12.2801C768.502 12.1734 767.636 12.1201 766.649 12.1201C766.649 12.0401 766.649 11.9334 766.649 11.8001C766.649 11.6401 766.662 11.4667 766.689 11.2801C767.622 10.9601 768.476 10.7467 769.249 10.6401L771.529 5.68006L772.169 5.88006V10.6401C774.196 10.5867 776.062 10.4934 777.769 10.3601C777.769 11.0801 777.662 11.7067 777.449 12.2401H772.169V23.9601C772.169 25.8534 772.942 26.8001 774.489 26.8001C775.796 26.8001 777.049 26.3067 778.249 25.3201L778.729 25.8401C777.316 28.0001 775.636 29.0801 773.689 29.0801ZM786.989 28.2001C786.616 28.5734 786.163 28.7601 785.629 28.7601C785.096 28.7601 784.643 28.5734 784.269 28.2001C783.896 27.8001 783.709 27.3334 783.709 26.8001C783.709 26.2401 783.896 25.7734 784.269 25.4001C784.643 25.0267 785.096 24.8401 785.629 24.8401C786.163 24.8401 786.616 25.0267 786.989 25.4001C787.389 25.7734 787.589 26.2401 787.589 26.8001C787.589 27.3334 787.389 27.8001 786.989 28.2001Z" fill="#252729"/>
</svg>
