<svg width="658" height="39" viewBox="0 0 658 39" fill="none" xmlns="http://www.w3.org/2000/svg">
<path d="M7.08012 18.9201H14.9201L10.9201 6.64006L10.5201 8.36006L7.08012 18.9201ZM14.4401 28.6001C14.4401 28.1467 14.4935 27.7601 14.6001 27.4401C15.8001 27.2534 16.7335 26.9601 17.4001 26.5601L15.3601 20.3601H6.64012L4.52012 26.8001C5.34678 27.1734 6.34678 27.3867 7.52012 27.4401C7.52012 27.7334 7.46678 28.1201 7.36012 28.6001H0.000117186C0.000117186 28.2534 0.0534505 27.8667 0.160117 27.4401C1.04012 27.3067 1.70678 27.0667 2.16012 26.7201C2.61345 26.3467 2.94678 25.8534 3.16012 25.2401L10.2801 4.00006C10.9201 3.76006 11.7868 3.64006 12.8801 3.64006L19.9201 25.2001C20.1601 25.9734 20.5335 26.5334 21.0401 26.8801C21.5468 27.2001 22.2668 27.3867 23.2001 27.4401C23.1468 27.9734 23.0801 28.3601 23.0001 28.6001H14.4401ZM63.0889 15.8801V26.8001C63.9155 27.1201 64.8489 27.3201 65.8889 27.4001C65.8889 27.8801 65.8489 28.2801 65.7689 28.6001H57.6089C57.5555 28.2001 57.5822 27.8001 57.6889 27.4001C58.6489 27.2934 59.3022 27.1067 59.6489 26.8401C59.9955 26.5734 60.1689 26.1067 60.1689 25.4401V16.1201C60.1689 14.8134 59.8622 13.8134 59.2489 13.1201C58.6355 12.4267 57.7955 12.0801 56.7289 12.0801C54.3822 12.0801 52.6355 13.4667 51.4889 16.2401V26.8001C52.2355 27.1201 53.1422 27.3201 54.2089 27.4001C54.2089 27.8801 54.1689 28.2801 54.0889 28.6001H46.0489C46.0222 28.2801 46.0355 27.8801 46.0889 27.4001C47.0489 27.2934 47.7022 27.1067 48.0489 26.8401C48.4222 26.5734 48.6089 26.1067 48.6089 25.4401V16.1201C48.6089 14.8134 48.3022 13.8134 47.6889 13.1201C47.0755 12.4267 46.2222 12.0801 45.1289 12.0801C42.8089 12.0801 41.0755 13.4667 39.9289 16.2401V26.8001C40.6755 27.1201 41.5822 27.3201 42.6489 27.4001C42.6489 27.8801 42.6089 28.2801 42.5289 28.6001H34.3289C34.2755 28.2001 34.3022 27.8001 34.4089 27.4001C35.3955 27.2934 36.0755 27.1067 36.4489 26.8401C36.8489 26.5734 37.0489 26.1067 37.0489 25.4401V12.7201C36.2755 12.6934 35.6755 12.6801 35.2489 12.6801C34.8222 12.6801 34.4889 12.6801 34.2489 12.6801C34.2489 12.3601 34.3022 12.0134 34.4089 11.6401C36.1689 10.9467 37.9022 10.4534 39.6089 10.1601C39.7689 11.1734 39.8755 12.4801 39.9289 14.0801C41.2889 11.3067 43.3555 9.92006 46.1289 9.92006C47.4622 9.92006 48.5955 10.2934 49.5289 11.0401C50.4889 11.7867 51.1022 12.8801 51.3689 14.3201C52.7289 11.3867 54.8355 9.92006 57.6889 9.92006C59.2622 9.92006 60.5555 10.4401 61.5689 11.4801C62.5822 12.4934 63.0889 13.9601 63.0889 15.8801ZM73.0389 25.2801C74.0255 26.6934 75.4122 27.4001 77.1989 27.4001C78.9855 27.4001 80.2922 26.7334 81.1189 25.4001C81.9722 24.0401 82.3989 22.2267 82.3989 19.9601C82.3989 17.2401 81.9189 15.1467 80.9589 13.6801C79.9989 12.1867 78.6255 11.4401 76.8389 11.4401C75.0789 11.4401 73.7589 12.1467 72.8789 13.5601C72.0255 14.9467 71.5989 16.8001 71.5989 19.1201C71.5989 21.7867 72.0789 23.8401 73.0389 25.2801ZM77.0789 9.92006C79.6389 9.92006 81.6789 10.8001 83.1989 12.5601C84.7455 14.2934 85.5189 16.6001 85.5189 19.4801C85.5189 22.3601 84.7322 24.6801 83.1589 26.4401C81.5855 28.2001 79.4922 29.0801 76.8789 29.0801C74.2922 29.0801 72.2522 28.2134 70.7589 26.4801C69.2655 24.7201 68.5189 22.4001 68.5189 19.5201C68.5189 16.6401 69.3055 14.3201 70.8789 12.5601C72.4522 10.8001 74.5189 9.92006 77.0789 9.92006ZM105.59 15.8801V26.8001C106.444 27.1201 107.377 27.3201 108.39 27.4001C108.39 27.7734 108.364 28.1734 108.31 28.6001H100.15C100.124 28.2801 100.137 27.8801 100.19 27.4001C101.15 27.2934 101.804 27.1067 102.15 26.8401C102.524 26.5734 102.71 26.1067 102.71 25.4401V16.1201C102.71 14.8134 102.404 13.8134 101.79 13.1201C101.177 12.4267 100.324 12.0801 99.2304 12.0801C96.9104 12.0801 95.1771 13.4667 94.0304 16.2401V26.8001C94.7771 27.1201 95.6838 27.3201 96.7504 27.4001C96.7504 27.8801 96.7104 28.2801 96.6304 28.6001H88.4304C88.3771 28.2001 88.4038 27.8001 88.5104 27.4001C89.4971 27.2934 90.1771 27.1067 90.5504 26.8401C90.9504 26.5734 91.1504 26.1067 91.1504 25.4401V12.7201C90.3771 12.6934 89.7771 12.6801 89.3504 12.6801C88.9238 12.6801 88.5904 12.6801 88.3504 12.6801C88.3504 12.3601 88.4038 12.0134 88.5104 11.6401C90.2704 10.9467 92.0038 10.4534 93.7104 10.1601C93.8704 11.1734 93.9771 12.4801 94.0304 14.0801C95.3904 11.3067 97.4571 9.92006 100.23 9.92006C101.804 9.92006 103.084 10.4267 104.07 11.4401C105.084 12.4534 105.59 13.9334 105.59 15.8801ZM117.42 29.0801C116.14 29.0801 115.073 28.6934 114.22 27.9201C113.393 27.1201 112.98 25.9334 112.98 24.3601V12.2801C112.233 12.1734 111.366 12.1201 110.38 12.1201C110.38 12.0401 110.38 11.9334 110.38 11.8001C110.38 11.6401 110.393 11.4667 110.42 11.2801C111.353 10.9601 112.206 10.7467 112.98 10.6401L115.26 5.68006L115.9 5.88006V10.6401C117.926 10.5867 119.793 10.4934 121.5 10.3601C121.5 11.0801 121.393 11.7067 121.18 12.2401H115.9V23.9601C115.9 25.8534 116.673 26.8001 118.22 26.8001C119.526 26.8001 120.78 26.3067 121.98 25.3201L122.46 25.8401C121.046 28.0001 119.366 29.0801 117.42 29.0801ZM128.28 23.8401C128.28 24.8267 128.56 25.6001 129.12 26.1601C129.707 26.6934 130.48 26.9601 131.44 26.9601C132.907 26.9601 134.134 26.4267 135.12 25.3601V18.8401L132.28 19.5601C129.614 20.2801 128.28 21.7067 128.28 23.8401ZM138 29.0801C137.307 29.0801 136.707 28.8934 136.2 28.5201C135.694 28.1201 135.36 27.5734 135.2 26.8801C133.867 28.3467 132.36 29.0801 130.68 29.0801C129.027 29.0801 127.707 28.6134 126.72 27.6801C125.734 26.7201 125.24 25.4934 125.24 24.0001C125.24 21.0667 127.267 19.1601 131.32 18.2801L135.12 17.4401V15.6801C135.12 14.4801 134.867 13.6001 134.36 13.0401C133.88 12.4801 132.96 12.2001 131.6 12.2001C130.24 12.2001 128.64 12.5201 126.8 13.1601L126.28 12.3601C128.254 10.7334 130.467 9.92006 132.92 9.92006C134.547 9.92006 135.8 10.4001 136.68 11.3601C137.587 12.3201 138.04 13.6534 138.04 15.3601V24.8401C138.04 25.6401 138.134 26.2001 138.32 26.5201C138.507 26.8401 138.8 27.0001 139.2 27.0001C139.627 27.0001 140.147 26.9334 140.76 26.8001L141 27.2801C140.094 28.4801 139.094 29.0801 138 29.0801ZM148.594 20.1201C149.474 21.0534 150.541 21.5201 151.794 21.5201C153.048 21.5201 154.034 21.0934 154.754 20.2401C155.501 19.3867 155.874 18.2667 155.874 16.8801C155.874 14.9601 155.434 13.5201 154.554 12.5601C153.701 11.6001 152.648 11.1201 151.394 11.1201C150.168 11.1201 149.181 11.5601 148.434 12.4401C147.688 13.3201 147.314 14.5067 147.314 16.0001C147.314 17.8134 147.741 19.1867 148.594 20.1201ZM147.154 28.6801C145.901 29.5867 145.274 30.6667 145.274 31.9201C145.274 33.1734 145.808 34.1467 146.874 34.8401C147.968 35.5334 149.554 35.8801 151.634 35.8801C153.714 35.8801 155.501 35.3467 156.994 34.2801C158.488 33.2401 159.221 32.1201 159.194 30.9201C159.194 29.4801 158.394 28.7601 156.794 28.7601L148.634 28.8001C148.074 28.8001 147.581 28.7601 147.154 28.6801ZM156.994 26.3601C158.488 26.3601 159.634 26.6934 160.434 27.3601C161.261 28.0267 161.674 28.9334 161.674 30.0801C161.648 32.0534 160.541 33.8801 158.354 35.5601C156.168 37.2401 153.634 38.0801 150.754 38.0801C148.514 38.0801 146.714 37.5867 145.354 36.6001C144.021 35.6401 143.354 34.2801 143.354 32.5201C143.354 30.7867 144.248 29.3867 146.034 28.3201C144.781 27.7067 144.154 26.6534 144.154 25.1601C144.154 23.6667 145.168 22.4667 147.194 21.5601C145.221 20.3867 144.234 18.6401 144.234 16.3201C144.234 14.3734 144.941 12.8267 146.354 11.6801C147.768 10.5067 149.461 9.92006 151.434 9.92006C153.408 9.92006 155.034 10.3734 156.314 11.2801C157.888 10.1601 159.754 9.60006 161.914 9.60006C161.941 9.70672 161.954 9.90672 161.954 10.2001C161.954 10.4667 161.888 10.9734 161.754 11.7201L157.394 12.2001C158.408 13.2934 158.914 14.7467 158.914 16.5601C158.914 18.3467 158.221 19.8267 156.834 21.0001C155.448 22.1467 153.701 22.7201 151.594 22.7201C150.474 22.7201 149.394 22.5334 148.354 22.1601C147.048 22.7734 146.394 23.5467 146.394 24.4801C146.394 25.0401 146.608 25.5067 147.034 25.8801C147.488 26.2534 148.168 26.4401 149.074 26.4401L156.834 26.3601C156.888 26.3601 156.941 26.3601 156.994 26.3601ZM176.351 16.6001C176.325 14.8667 175.911 13.5867 175.111 12.7601C174.311 11.9334 173.338 11.5201 172.191 11.5201C171.071 11.5201 170.018 11.9734 169.031 12.8801C168.045 13.7867 167.405 15.1467 167.111 16.9601L171.751 16.6401L176.351 16.6001ZM166.911 19.2001C166.911 21.6801 167.418 23.6001 168.431 24.9601C169.471 26.2934 170.978 26.9601 172.951 26.9601C174.925 26.9601 176.871 26.3201 178.791 25.0401L179.151 25.7601C177.205 27.9734 174.818 29.0801 171.991 29.0801C169.991 29.0801 168.178 28.3467 166.551 26.8801C165.725 26.1334 165.058 25.1601 164.551 23.9601C164.071 22.7334 163.831 21.3601 163.831 19.8401C163.831 16.7201 164.738 14.2934 166.551 12.5601C168.365 10.8001 170.311 9.92006 172.391 9.92006C174.471 9.92006 176.151 10.5867 177.431 11.9201C178.738 13.2267 179.391 15.1067 179.391 17.5601C179.231 17.8534 179.085 18.0934 178.951 18.2801H166.951C166.925 18.4667 166.911 18.7734 166.911 19.2001ZM197.179 25.2801C198.166 26.6934 199.553 27.4001 201.339 27.4001C203.126 27.4001 204.433 26.7334 205.259 25.4001C206.113 24.0401 206.539 22.2267 206.539 19.9601C206.539 17.2401 206.059 15.1467 205.099 13.6801C204.139 12.1867 202.766 11.4401 200.979 11.4401C199.219 11.4401 197.899 12.1467 197.019 13.5601C196.166 14.9467 195.739 16.8001 195.739 19.1201C195.739 21.7867 196.219 23.8401 197.179 25.2801ZM201.219 9.92006C203.779 9.92006 205.819 10.8001 207.339 12.5601C208.886 14.2934 209.659 16.6001 209.659 19.4801C209.659 22.3601 208.873 24.6801 207.299 26.4401C205.726 28.2001 203.633 29.0801 201.019 29.0801C198.433 29.0801 196.393 28.2134 194.899 26.4801C193.406 24.7201 192.659 22.4001 192.659 19.5201C192.659 16.6401 193.446 14.3201 195.019 12.5601C196.593 10.8001 198.659 9.92006 201.219 9.92006ZM215.171 7.96006C215.171 5.37339 215.784 3.44006 217.011 2.16006C218.238 0.85339 219.664 0.200056 221.291 0.200056C222.944 0.200056 224.371 0.800056 225.571 2.00006C225.544 3.14672 225.384 4.34672 225.091 5.60006C224.878 5.60006 224.491 5.56006 223.931 5.48006C223.931 5.34672 223.931 5.21339 223.931 5.08006C223.931 2.94672 223.078 1.88006 221.371 1.88006C219.158 1.88006 218.051 3.41339 218.051 6.48006V10.6401C219.624 10.6401 221.504 10.5467 223.691 10.3601C223.691 11.1334 223.598 11.7601 223.411 12.2401H218.051V26.5601C219.304 27.0401 220.691 27.3201 222.211 27.4001C222.264 27.8267 222.238 28.2267 222.131 28.6001H212.411C212.384 28.4667 212.371 28.2934 212.371 28.0801C212.371 27.8667 212.424 27.6401 212.531 27.4001C213.518 27.2667 214.198 27.0667 214.571 26.8001C214.971 26.5334 215.171 26.0667 215.171 25.4001V12.2801C214.424 12.1734 213.558 12.1201 212.571 12.1201C212.571 11.8267 212.598 11.5467 212.651 11.2801C213.584 10.9601 214.424 10.7467 215.171 10.6401V7.96006ZM237.241 7.96006C237.241 5.37339 237.855 3.44006 239.081 2.16006C240.308 0.85339 241.735 0.200056 243.361 0.200056C245.015 0.200056 246.441 0.800056 247.641 2.00006C247.615 3.14672 247.455 4.34672 247.161 5.60006C246.948 5.60006 246.561 5.56006 246.001 5.48006C246.001 5.34672 246.001 5.21339 246.001 5.08006C246.001 2.94672 245.148 1.88006 243.441 1.88006C241.228 1.88006 240.121 3.41339 240.121 6.48006V10.6401C241.695 10.6401 243.575 10.5467 245.761 10.3601C245.761 11.1334 245.668 11.7601 245.481 12.2401H240.121V26.5601C241.375 27.0401 242.761 27.3201 244.281 27.4001C244.335 27.8267 244.308 28.2267 244.201 28.6001H234.481C234.455 28.4667 234.441 28.2934 234.441 28.0801C234.441 27.8667 234.495 27.6401 234.601 27.4001C235.588 27.2667 236.268 27.0667 236.641 26.8001C237.041 26.5334 237.241 26.0667 237.241 25.4001V12.2801C236.495 12.1734 235.628 12.1201 234.641 12.1201C234.641 11.8267 234.668 11.5467 234.721 11.2801C235.655 10.9601 236.495 10.7467 237.241 10.6401V7.96006ZM250.312 23.8401C250.312 24.8267 250.592 25.6001 251.152 26.1601C251.738 26.6934 252.512 26.9601 253.472 26.9601C254.938 26.9601 256.165 26.4267 257.152 25.3601V18.8401L254.312 19.5601C251.645 20.2801 250.312 21.7067 250.312 23.8401ZM260.032 29.0801C259.338 29.0801 258.738 28.8934 258.232 28.5201C257.725 28.1201 257.392 27.5734 257.232 26.8801C255.898 28.3467 254.392 29.0801 252.712 29.0801C251.058 29.0801 249.738 28.6134 248.752 27.6801C247.765 26.7201 247.272 25.4934 247.272 24.0001C247.272 21.0667 249.298 19.1601 253.352 18.2801L257.152 17.4401V15.6801C257.152 14.4801 256.898 13.6001 256.392 13.0401C255.912 12.4801 254.992 12.2001 253.632 12.2001C252.272 12.2001 250.672 12.5201 248.832 13.1601L248.312 12.3601C250.285 10.7334 252.498 9.92006 254.952 9.92006C256.578 9.92006 257.832 10.4001 258.712 11.3601C259.618 12.3201 260.072 13.6534 260.072 15.3601V24.8401C260.072 25.6401 260.165 26.2001 260.352 26.5201C260.538 26.8401 260.832 27.0001 261.232 27.0001C261.658 27.0001 262.178 26.9334 262.792 26.8001L263.032 27.2801C262.125 28.4801 261.125 29.0801 260.032 29.0801ZM294.065 15.8801V26.8001C294.892 27.1201 295.825 27.3201 296.865 27.4001C296.865 27.8801 296.825 28.2801 296.745 28.6001H288.585C288.532 28.2001 288.559 27.8001 288.665 27.4001C289.625 27.2934 290.279 27.1067 290.625 26.8401C290.972 26.5734 291.145 26.1067 291.145 25.4401V16.1201C291.145 14.8134 290.839 13.8134 290.225 13.1201C289.612 12.4267 288.772 12.0801 287.705 12.0801C285.359 12.0801 283.612 13.4667 282.465 16.2401V26.8001C283.212 27.1201 284.119 27.3201 285.185 27.4001C285.185 27.8801 285.145 28.2801 285.065 28.6001H277.025C276.999 28.2801 277.012 27.8801 277.065 27.4001C278.025 27.2934 278.679 27.1067 279.025 26.8401C279.399 26.5734 279.585 26.1067 279.585 25.4401V16.1201C279.585 14.8134 279.279 13.8134 278.665 13.1201C278.052 12.4267 277.199 12.0801 276.105 12.0801C273.785 12.0801 272.052 13.4667 270.905 16.2401V26.8001C271.652 27.1201 272.559 27.3201 273.625 27.4001C273.625 27.8801 273.585 28.2801 273.505 28.6001H265.305C265.252 28.2001 265.279 27.8001 265.385 27.4001C266.372 27.2934 267.052 27.1067 267.425 26.8401C267.825 26.5734 268.025 26.1067 268.025 25.4401V12.7201C267.252 12.6934 266.652 12.6801 266.225 12.6801C265.799 12.6801 265.465 12.6801 265.225 12.6801C265.225 12.3601 265.279 12.0134 265.385 11.6401C267.145 10.9467 268.879 10.4534 270.585 10.1601C270.745 11.1734 270.852 12.4801 270.905 14.0801C272.265 11.3067 274.332 9.92006 277.105 9.92006C278.439 9.92006 279.572 10.2934 280.505 11.0401C281.465 11.7867 282.079 12.8801 282.345 14.3201C283.705 11.3867 285.812 9.92006 288.665 9.92006C290.239 9.92006 291.532 10.4401 292.545 11.4801C293.559 12.4934 294.065 13.9601 294.065 15.8801ZM304.655 5.92006C304.255 6.34672 303.762 6.56006 303.175 6.56006C302.589 6.56006 302.082 6.34672 301.655 5.92006C301.229 5.49339 301.015 4.98672 301.015 4.40006C301.015 3.81339 301.229 3.30672 301.655 2.88006C302.082 2.45339 302.589 2.24006 303.175 2.24006C303.762 2.24006 304.255 2.45339 304.655 2.88006C305.082 3.28006 305.295 3.78672 305.295 4.40006C305.295 4.98672 305.082 5.49339 304.655 5.92006ZM301.775 25.4401V12.7601C301.349 12.7334 300.895 12.7201 300.415 12.7201C299.962 12.7201 299.482 12.7334 298.975 12.7601C298.975 12.4934 299.029 12.1201 299.135 11.6401C301.002 10.9467 302.842 10.4534 304.655 10.1601V26.8001C305.402 27.1201 306.309 27.3201 307.375 27.4001C307.375 27.8801 307.335 28.2801 307.255 28.6001H299.055C299.002 28.2001 299.029 27.8001 299.135 27.4001C300.122 27.2934 300.802 27.1067 301.175 26.8401C301.575 26.5734 301.775 26.1067 301.775 25.4401ZM312.869 25.4401V2.60006C312.576 2.57339 312.203 2.56006 311.749 2.56006C311.296 2.56006 310.736 2.57339 310.069 2.60006C310.069 2.28006 310.123 1.90672 310.229 1.48006C311.989 0.760058 313.829 0.266724 315.749 5.62668e-05V26.8001C316.496 27.1201 317.403 27.3201 318.469 27.4001C318.469 27.8801 318.429 28.2801 318.349 28.6001H310.149C310.096 28.2001 310.123 27.8001 310.229 27.4001C311.216 27.2934 311.896 27.1067 312.269 26.8401C312.669 26.5734 312.869 26.1067 312.869 25.4401ZM326.804 5.92006C326.404 6.34672 325.911 6.56006 325.324 6.56006C324.737 6.56006 324.231 6.34672 323.804 5.92006C323.377 5.49339 323.164 4.98672 323.164 4.40006C323.164 3.81339 323.377 3.30672 323.804 2.88006C324.231 2.45339 324.737 2.24006 325.324 2.24006C325.911 2.24006 326.404 2.45339 326.804 2.88006C327.231 3.28006 327.444 3.78672 327.444 4.40006C327.444 4.98672 327.231 5.49339 326.804 5.92006ZM323.924 25.4401V12.7601C323.497 12.7334 323.044 12.7201 322.564 12.7201C322.111 12.7201 321.631 12.7334 321.124 12.7601C321.124 12.4934 321.177 12.1201 321.284 11.6401C323.151 10.9467 324.991 10.4534 326.804 10.1601V26.8001C327.551 27.1201 328.457 27.3201 329.524 27.4001C329.524 27.8801 329.484 28.2801 329.404 28.6001H321.204C321.151 28.2001 321.177 27.8001 321.284 27.4001C322.271 27.2934 322.951 27.1067 323.324 26.8401C323.724 26.5734 323.924 26.1067 323.924 25.4401ZM335.898 23.8401C335.898 24.8267 336.178 25.6001 336.738 26.1601C337.324 26.6934 338.098 26.9601 339.058 26.9601C340.524 26.9601 341.751 26.4267 342.738 25.3601V18.8401L339.898 19.5601C337.231 20.2801 335.898 21.7067 335.898 23.8401ZM345.618 29.0801C344.924 29.0801 344.324 28.8934 343.818 28.5201C343.311 28.1201 342.978 27.5734 342.818 26.8801C341.484 28.3467 339.978 29.0801 338.298 29.0801C336.644 29.0801 335.324 28.6134 334.338 27.6801C333.351 26.7201 332.858 25.4934 332.858 24.0001C332.858 21.0667 334.884 19.1601 338.938 18.2801L342.738 17.4401V15.6801C342.738 14.4801 342.484 13.6001 341.978 13.0401C341.498 12.4801 340.578 12.2001 339.218 12.2001C337.858 12.2001 336.258 12.5201 334.418 13.1601L333.898 12.3601C335.871 10.7334 338.084 9.92006 340.538 9.92006C342.164 9.92006 343.418 10.4001 344.298 11.3601C345.204 12.3201 345.658 13.6534 345.658 15.3601V24.8401C345.658 25.6401 345.751 26.2001 345.938 26.5201C346.124 26.8401 346.418 27.0001 346.818 27.0001C347.244 27.0001 347.764 26.9334 348.378 26.8001L348.618 27.2801C347.711 28.4801 346.711 29.0801 345.618 29.0801ZM356.491 15.1601V15.4401C357.131 13.7867 358.091 12.4534 359.371 11.4401C360.651 10.4267 362.025 9.92006 363.491 9.92006C363.625 10.2401 363.691 10.6401 363.691 11.1201C363.691 11.5734 363.598 12.1201 363.411 12.7601C361.198 12.7601 359.385 13.4934 357.971 14.9601C357.171 15.8401 356.678 16.9334 356.491 18.2401V26.5601C357.691 27.0401 359.091 27.3201 360.691 27.4001C360.691 27.9067 360.638 28.3067 360.531 28.6001H350.891C350.865 28.2801 350.878 27.8801 350.931 27.4001C351.945 27.2667 352.638 27.0667 353.011 26.8001C353.411 26.5334 353.611 26.0667 353.611 25.4001V12.7201C352.838 12.6934 352.238 12.6801 351.811 12.6801C351.385 12.6801 351.051 12.6801 350.811 12.6801C350.811 12.3601 350.865 12.0134 350.971 11.6401C352.731 10.9467 354.465 10.4534 356.171 10.1601C356.385 11.5201 356.491 13.1867 356.491 15.1601ZM377.593 7.96006C377.593 5.37339 378.206 3.44006 379.433 2.16006C380.66 0.85339 382.086 0.200056 383.713 0.200056C385.366 0.200056 386.793 0.800056 387.993 2.00006C387.966 3.14672 387.806 4.34672 387.513 5.60006C387.3 5.60006 386.913 5.56006 386.353 5.48006C386.353 5.34672 386.353 5.21339 386.353 5.08006C386.353 2.94672 385.5 1.88006 383.793 1.88006C381.58 1.88006 380.473 3.41339 380.473 6.48006V10.6401C382.046 10.6401 383.926 10.5467 386.113 10.3601C386.113 11.1334 386.02 11.7601 385.833 12.2401H380.473V26.5601C381.726 27.0401 383.113 27.3201 384.633 27.4001C384.686 27.8267 384.66 28.2267 384.553 28.6001H374.833C374.806 28.4667 374.793 28.2934 374.793 28.0801C374.793 27.8667 374.846 27.6401 374.953 27.4001C375.94 27.2667 376.62 27.0667 376.993 26.8001C377.393 26.5334 377.593 26.0667 377.593 25.4001V12.2801C376.846 12.1734 375.98 12.1201 374.993 12.1201C374.993 11.8267 375.02 11.5467 375.073 11.2801C376.006 10.9601 376.846 10.7467 377.593 10.6401V7.96006ZM390.663 23.8401C390.663 24.8267 390.943 25.6001 391.503 26.1601C392.09 26.6934 392.863 26.9601 393.823 26.9601C395.29 26.9601 396.517 26.4267 397.503 25.3601V18.8401L394.663 19.5601C391.997 20.2801 390.663 21.7067 390.663 23.8401ZM400.383 29.0801C399.69 29.0801 399.09 28.8934 398.583 28.5201C398.077 28.1201 397.743 27.5734 397.583 26.8801C396.25 28.3467 394.743 29.0801 393.063 29.0801C391.41 29.0801 390.09 28.6134 389.103 27.6801C388.117 26.7201 387.623 25.4934 387.623 24.0001C387.623 21.0667 389.65 19.1601 393.703 18.2801L397.503 17.4401V15.6801C397.503 14.4801 397.25 13.6001 396.743 13.0401C396.263 12.4801 395.343 12.2001 393.983 12.2001C392.623 12.2001 391.023 12.5201 389.183 13.1601L388.663 12.3601C390.637 10.7334 392.85 9.92006 395.303 9.92006C396.93 9.92006 398.183 10.4001 399.063 11.3601C399.97 12.3201 400.423 13.6534 400.423 15.3601V24.8401C400.423 25.6401 400.517 26.2001 400.703 26.5201C400.89 26.8401 401.183 27.0001 401.583 27.0001C402.01 27.0001 402.53 26.9334 403.143 26.8001L403.383 27.2801C402.477 28.4801 401.477 29.0801 400.383 29.0801ZM421.097 26.1601C419.017 28.1067 416.777 29.0801 414.377 29.0801C412.004 29.0801 410.017 28.2401 408.417 26.5601C406.844 24.8534 406.057 22.5734 406.057 19.7201C406.057 16.8401 406.924 14.4934 408.657 12.6801C410.39 10.8401 412.617 9.92006 415.337 9.92006C417.47 9.92006 419.27 10.4401 420.737 11.4801C420.737 12.8667 420.617 14.3067 420.377 15.8001L419.537 15.6801C419.537 14.4001 419.124 13.4001 418.297 12.6801C417.47 11.9334 416.404 11.5601 415.097 11.5601C413.31 11.5601 411.87 12.2801 410.777 13.7201C409.71 15.1334 409.177 17.0401 409.177 19.4401C409.177 21.8401 409.697 23.7334 410.737 25.1201C411.804 26.5067 413.23 27.2001 415.017 27.2001C416.804 27.2001 418.657 26.6401 420.577 25.5201L421.097 26.1601ZM436.703 16.6001C436.676 14.8667 436.263 13.5867 435.463 12.7601C434.663 11.9334 433.69 11.5201 432.543 11.5201C431.423 11.5201 430.37 11.9734 429.383 12.8801C428.396 13.7867 427.756 15.1467 427.463 16.9601L432.103 16.6401L436.703 16.6001ZM427.263 19.2001C427.263 21.6801 427.77 23.6001 428.783 24.9601C429.823 26.2934 431.33 26.9601 433.303 26.9601C435.276 26.9601 437.223 26.3201 439.143 25.0401L439.503 25.7601C437.556 27.9734 435.17 29.0801 432.343 29.0801C430.343 29.0801 428.53 28.3467 426.903 26.8801C426.076 26.1334 425.41 25.1601 424.903 23.9601C424.423 22.7334 424.183 21.3601 424.183 19.8401C424.183 16.7201 425.09 14.2934 426.903 12.5601C428.716 10.8001 430.663 9.92006 432.743 9.92006C434.823 9.92006 436.503 10.5867 437.783 11.9201C439.09 13.2267 439.743 15.1067 439.743 17.5601C439.583 17.8534 439.436 18.0934 439.303 18.2801H427.303C427.276 18.4667 427.263 18.7734 427.263 19.2001ZM449.131 27.5601C450.464 27.5601 451.518 27.2801 452.291 26.7201C453.064 26.1334 453.451 25.4267 453.451 24.6001C453.451 23.7734 453.131 23.0801 452.491 22.5201C451.851 21.9601 451.064 21.4667 450.131 21.0401C449.198 20.6134 448.264 20.1734 447.331 19.7201C446.424 19.2401 445.651 18.6134 445.011 17.8401C444.371 17.0401 444.051 16.1067 444.051 15.0401C444.051 13.3601 444.651 12.0934 445.851 11.2401C447.051 10.3601 448.491 9.92006 450.171 9.92006C451.878 9.92006 453.504 10.1867 455.051 10.7201C455.078 11.1734 455.091 11.7867 455.091 12.5601C455.091 13.3334 455.011 14.2267 454.851 15.2401C454.638 15.2401 454.331 15.2001 453.931 15.1201C453.958 14.8534 453.971 14.6001 453.971 14.3601C453.971 12.3601 452.758 11.3601 450.331 11.3601C449.264 11.3601 448.384 11.6534 447.691 12.2401C447.024 12.8001 446.691 13.5067 446.691 14.3601C446.691 15.1867 447.011 15.8934 447.651 16.4801C448.318 17.0667 449.118 17.5601 450.051 17.9601C451.011 18.3601 451.958 18.7867 452.891 19.2401C453.851 19.6934 454.651 20.3067 455.291 21.0801C455.958 21.8267 456.291 22.7067 456.291 23.7201C456.291 25.4001 455.598 26.7201 454.211 27.6801C452.851 28.6134 451.171 29.0801 449.171 29.0801C447.171 29.0801 445.304 28.8001 443.571 28.2401C443.518 27.6267 443.491 26.9201 443.491 26.1201C443.491 25.2934 443.571 24.3867 443.731 23.4001C443.971 23.4001 444.278 23.4267 444.651 23.4801C444.651 23.6401 444.651 23.8001 444.651 23.9601C444.651 25.2134 445.064 26.1334 445.891 26.7201C446.744 27.2801 447.824 27.5601 449.131 27.5601ZM472.851 23.8401C472.851 24.8267 473.131 25.6001 473.691 26.1601C474.277 26.6934 475.051 26.9601 476.011 26.9601C477.477 26.9601 478.704 26.4267 479.691 25.3601V18.8401L476.851 19.5601C474.184 20.2801 472.851 21.7067 472.851 23.8401ZM482.571 29.0801C481.877 29.0801 481.277 28.8934 480.771 28.5201C480.264 28.1201 479.931 27.5734 479.771 26.8801C478.437 28.3467 476.931 29.0801 475.251 29.0801C473.597 29.0801 472.277 28.6134 471.291 27.6801C470.304 26.7201 469.811 25.4934 469.811 24.0001C469.811 21.0667 471.837 19.1601 475.891 18.2801L479.691 17.4401V15.6801C479.691 14.4801 479.437 13.6001 478.931 13.0401C478.451 12.4801 477.531 12.2001 476.171 12.2001C474.811 12.2001 473.211 12.5201 471.371 13.1601L470.851 12.3601C472.824 10.7334 475.037 9.92006 477.491 9.92006C479.117 9.92006 480.371 10.4001 481.251 11.3601C482.157 12.3201 482.611 13.6534 482.611 15.3601V24.8401C482.611 25.6401 482.704 26.2001 482.891 26.5201C483.077 26.8401 483.371 27.0001 483.771 27.0001C484.197 27.0001 484.717 26.9334 485.331 26.8001L485.571 27.2801C484.664 28.4801 483.664 29.0801 482.571 29.0801ZM505.004 15.8801V26.8001C505.858 27.1201 506.791 27.3201 507.804 27.4001C507.804 27.7734 507.778 28.1734 507.724 28.6001H499.564C499.538 28.2801 499.551 27.8801 499.604 27.4001C500.564 27.2934 501.218 27.1067 501.564 26.8401C501.938 26.5734 502.124 26.1067 502.124 25.4401V16.1201C502.124 14.8134 501.818 13.8134 501.204 13.1201C500.591 12.4267 499.738 12.0801 498.644 12.0801C496.324 12.0801 494.591 13.4667 493.444 16.2401V26.8001C494.191 27.1201 495.098 27.3201 496.164 27.4001C496.164 27.8801 496.124 28.2801 496.044 28.6001H487.844C487.791 28.2001 487.818 27.8001 487.924 27.4001C488.911 27.2934 489.591 27.1067 489.964 26.8401C490.364 26.5734 490.564 26.1067 490.564 25.4401V12.7201C489.791 12.6934 489.191 12.6801 488.764 12.6801C488.338 12.6801 488.004 12.6801 487.764 12.6801C487.764 12.3601 487.818 12.0134 487.924 11.6401C489.684 10.9467 491.418 10.4534 493.124 10.1601C493.284 11.1734 493.391 12.4801 493.444 14.0801C494.804 11.3067 496.871 9.92006 499.644 9.92006C501.218 9.92006 502.498 10.4267 503.484 11.4401C504.498 12.4534 505.004 13.9334 505.004 15.8801ZM520.154 11.8401C515.701 11.8401 513.474 14.3467 513.474 19.3601C513.474 21.9734 513.941 23.9067 514.874 25.1601C515.834 26.3867 517.141 27.0001 518.794 27.0001C520.447 27.0001 521.807 26.5201 522.874 25.5601V12.1201C522.101 11.9334 521.194 11.8401 520.154 11.8401ZM525.714 29.0801C525.074 29.0801 524.501 28.8934 523.994 28.5201C523.514 28.1467 523.181 27.6401 522.994 27.0001C521.607 28.3867 519.887 29.0801 517.834 29.0801C515.807 29.0801 514.074 28.2801 512.634 26.6801C511.194 25.0801 510.474 22.7734 510.474 19.7601C510.474 16.7201 511.487 14.3201 513.514 12.5601C515.567 10.8001 518.087 9.92006 521.074 9.92006C521.687 9.92006 522.287 9.96006 522.874 10.0401V2.60006C522.607 2.57339 522.234 2.56006 521.754 2.56006C521.274 2.56006 520.714 2.57339 520.074 2.60006C520.074 2.14672 520.127 1.77339 520.234 1.48006C522.074 0.760058 523.914 0.266724 525.754 5.62668e-05V24.8401C525.754 25.6401 525.847 26.2001 526.034 26.5201C526.221 26.8401 526.501 27.0001 526.874 27.0001C527.274 27.0001 527.807 26.9334 528.474 26.8001L528.754 27.2801C527.794 28.4801 526.781 29.0801 525.714 29.0801ZM558.481 15.8801V26.8001C559.334 27.1201 560.268 27.3201 561.281 27.4001C561.281 27.7734 561.254 28.1734 561.201 28.6001H553.041C553.014 28.2801 553.028 27.8801 553.081 27.4001C554.041 27.2934 554.694 27.1067 555.041 26.8401C555.414 26.5734 555.601 26.1067 555.601 25.4401V16.1201C555.601 14.8134 555.294 13.8134 554.681 13.1201C554.068 12.4267 553.214 12.0801 552.121 12.0801C549.801 12.0801 548.068 13.4667 546.921 16.2401V26.8001C547.668 27.1201 548.574 27.3201 549.641 27.4001C549.641 27.8801 549.601 28.2801 549.521 28.6001H541.321C541.268 28.2001 541.294 27.8001 541.401 27.4001C542.388 27.2934 543.068 27.1067 543.441 26.8401C543.841 26.5734 544.041 26.1067 544.041 25.4401V12.7201C543.268 12.6934 542.668 12.6801 542.241 12.6801C541.814 12.6801 541.481 12.6801 541.241 12.6801C541.241 12.3601 541.294 12.0134 541.401 11.6401C543.161 10.9467 544.894 10.4534 546.601 10.1601C546.761 11.1734 546.868 12.4801 546.921 14.0801C548.281 11.3067 550.348 9.92006 553.121 9.92006C554.694 9.92006 555.974 10.4267 556.961 11.4401C557.974 12.4534 558.481 13.9334 558.481 15.8801ZM567.03 23.8401C567.03 24.8267 567.31 25.6001 567.87 26.1601C568.457 26.6934 569.23 26.9601 570.19 26.9601C571.657 26.9601 572.884 26.4267 573.87 25.3601V18.8401L571.03 19.5601C568.364 20.2801 567.03 21.7067 567.03 23.8401ZM576.75 29.0801C576.057 29.0801 575.457 28.8934 574.95 28.5201C574.444 28.1201 574.11 27.5734 573.95 26.8801C572.617 28.3467 571.11 29.0801 569.43 29.0801C567.777 29.0801 566.457 28.6134 565.47 27.6801C564.484 26.7201 563.99 25.4934 563.99 24.0001C563.99 21.0667 566.017 19.1601 570.07 18.2801L573.87 17.4401V15.6801C573.87 14.4801 573.617 13.6001 573.11 13.0401C572.63 12.4801 571.71 12.2001 570.35 12.2001C568.99 12.2001 567.39 12.5201 565.55 13.1601L565.03 12.3601C567.004 10.7334 569.217 9.92006 571.67 9.92006C573.297 9.92006 574.55 10.4001 575.43 11.3601C576.337 12.3201 576.79 13.6534 576.79 15.3601V24.8401C576.79 25.6401 576.884 26.2001 577.07 26.5201C577.257 26.8401 577.55 27.0001 577.95 27.0001C578.377 27.0001 578.897 26.9334 579.51 26.8001L579.75 27.2801C578.844 28.4801 577.844 29.0801 576.75 29.0801ZM610.784 15.8801V26.8001C611.611 27.1201 612.544 27.3201 613.584 27.4001C613.584 27.8801 613.544 28.2801 613.464 28.6001H605.304C605.251 28.2001 605.278 27.8001 605.384 27.4001C606.344 27.2934 606.998 27.1067 607.344 26.8401C607.691 26.5734 607.864 26.1067 607.864 25.4401V16.1201C607.864 14.8134 607.558 13.8134 606.944 13.1201C606.331 12.4267 605.491 12.0801 604.424 12.0801C602.078 12.0801 600.331 13.4667 599.184 16.2401V26.8001C599.931 27.1201 600.838 27.3201 601.904 27.4001C601.904 27.8801 601.864 28.2801 601.784 28.6001H593.744C593.718 28.2801 593.731 27.8801 593.784 27.4001C594.744 27.2934 595.398 27.1067 595.744 26.8401C596.118 26.5734 596.304 26.1067 596.304 25.4401V16.1201C596.304 14.8134 595.998 13.8134 595.384 13.1201C594.771 12.4267 593.918 12.0801 592.824 12.0801C590.504 12.0801 588.771 13.4667 587.624 16.2401V26.8001C588.371 27.1201 589.278 27.3201 590.344 27.4001C590.344 27.8801 590.304 28.2801 590.224 28.6001H582.024C581.971 28.2001 581.998 27.8001 582.104 27.4001C583.091 27.2934 583.771 27.1067 584.144 26.8401C584.544 26.5734 584.744 26.1067 584.744 25.4401V12.7201C583.971 12.6934 583.371 12.6801 582.944 12.6801C582.518 12.6801 582.184 12.6801 581.944 12.6801C581.944 12.3601 581.998 12.0134 582.104 11.6401C583.864 10.9467 585.598 10.4534 587.304 10.1601C587.464 11.1734 587.571 12.4801 587.624 14.0801C588.984 11.3067 591.051 9.92006 593.824 9.92006C595.158 9.92006 596.291 10.2934 597.224 11.0401C598.184 11.7867 598.798 12.8801 599.064 14.3201C600.424 11.3867 602.531 9.92006 605.384 9.92006C606.958 9.92006 608.251 10.4401 609.264 11.4801C610.278 12.4934 610.784 13.9601 610.784 15.8801ZM628.734 16.6001C628.708 14.8667 628.294 13.5867 627.494 12.7601C626.694 11.9334 625.721 11.5201 624.574 11.5201C623.454 11.5201 622.401 11.9734 621.414 12.8801C620.428 13.7867 619.788 15.1467 619.494 16.9601L624.134 16.6401L628.734 16.6001ZM619.294 19.2001C619.294 21.6801 619.801 23.6001 620.814 24.9601C621.854 26.2934 623.361 26.9601 625.334 26.9601C627.308 26.9601 629.254 26.3201 631.174 25.0401L631.534 25.7601C629.588 27.9734 627.201 29.0801 624.374 29.0801C622.374 29.0801 620.561 28.3467 618.934 26.8801C618.108 26.1334 617.441 25.1601 616.934 23.9601C616.454 22.7334 616.214 21.3601 616.214 19.8401C616.214 16.7201 617.121 14.2934 618.934 12.5601C620.748 10.8001 622.694 9.92006 624.774 9.92006C626.854 9.92006 628.534 10.5867 629.814 11.9201C631.121 13.2267 631.774 15.1067 631.774 17.5601C631.614 17.8534 631.468 18.0934 631.334 18.2801H619.334C619.308 18.4667 619.294 18.7734 619.294 19.2001ZM641.162 27.5601C642.496 27.5601 643.549 27.2801 644.322 26.7201C645.096 26.1334 645.482 25.4267 645.482 24.6001C645.482 23.7734 645.162 23.0801 644.522 22.5201C643.882 21.9601 643.096 21.4667 642.162 21.0401C641.229 20.6134 640.296 20.1734 639.362 19.7201C638.456 19.2401 637.682 18.6134 637.042 17.8401C636.402 17.0401 636.082 16.1067 636.082 15.0401C636.082 13.3601 636.682 12.0934 637.882 11.2401C639.082 10.3601 640.522 9.92006 642.202 9.92006C643.909 9.92006 645.536 10.1867 647.082 10.7201C647.109 11.1734 647.122 11.7867 647.122 12.5601C647.122 13.3334 647.042 14.2267 646.882 15.2401C646.669 15.2401 646.362 15.2001 645.962 15.1201C645.989 14.8534 646.002 14.6001 646.002 14.3601C646.002 12.3601 644.789 11.3601 642.362 11.3601C641.296 11.3601 640.416 11.6534 639.722 12.2401C639.056 12.8001 638.722 13.5067 638.722 14.3601C638.722 15.1867 639.042 15.8934 639.682 16.4801C640.349 17.0667 641.149 17.5601 642.082 17.9601C643.042 18.3601 643.989 18.7867 644.922 19.2401C645.882 19.6934 646.682 20.3067 647.322 21.0801C647.989 21.8267 648.322 22.7067 648.322 23.7201C648.322 25.4001 647.629 26.7201 646.242 27.6801C644.882 28.6134 643.202 29.0801 641.202 29.0801C639.202 29.0801 637.336 28.8001 635.602 28.2401C635.549 27.6267 635.522 26.9201 635.522 26.1201C635.522 25.2934 635.602 24.3867 635.762 23.4001C636.002 23.4001 636.309 23.4267 636.682 23.4801C636.682 23.6401 636.682 23.8001 636.682 23.9601C636.682 25.2134 637.096 26.1334 637.922 26.7201C638.776 27.2801 639.856 27.5601 641.162 27.5601ZM657.322 28.2001C656.949 28.5734 656.495 28.7601 655.962 28.7601C655.429 28.7601 654.975 28.5734 654.602 28.2001C654.229 27.8001 654.042 27.3334 654.042 26.8001C654.042 26.2401 654.229 25.7734 654.602 25.4001C654.975 25.0267 655.429 24.8401 655.962 24.8401C656.495 24.8401 656.949 25.0267 657.322 25.4001C657.722 25.7734 657.922 26.2401 657.922 26.8001C657.922 27.3334 657.722 27.8001 657.322 28.2001Z" fill="#252729"/>
</svg>
